{
.appVersion = "3343";
.formatVersion = 3;
customParameters = (
{
name = panose;
value = (
0,
0,
0,
0,
0,
0,
0,
0,
0,
0
);
},
{
name = unicodeRanges;
value = (
0,
1,
2,
3,
4,
5,
6,
7,
9,
29,
31,
32,
33,
35,
36,
37,
38,
42,
45,
47,
60,
62
);
},
{
name = fsType;
value = (
);
},
{
name = glyphOrder;
value = (
.notdef,
CR,
space,
A,
Aacute,
Abreve,
uni01CD,
Acircumflex,
Adieresis,
Agrave,
Amacron,
Aogonek,
Aring,
Atilde,
AE,
AEacute,
B,
C,
Cacute,
Ccaron,
Ccedilla,
Cdotaccent,
D,
Dcaron,
Dcroat,
Eth,
E,
Eacute,
Ebreve,
Ecaron,
Ecircumflex,
Edieresis,
Edotaccent,
Egrave,
Emacron,
Eogonek,
uni018E,
uni1EBC,
uni018F,
F,
G,
Gbreve,
uni0122,
Gdotaccent,
H,
Hbar,
I,
IJ,
Iacute,
Ibreve,
Icircumflex,
Idieresis,
Idotaccent,
Igrave,
Imacron,
Iogonek,
Itilde,
J,
uni004A0301,
K,
uni0136,
L,
Lacute,
Lcaron,
uni013B,
Ldot,
Lslash,
M,
N,
Nacute,
Ncaron,
uni0145,
Ntilde,
Eng,
O,
Oacute,
Obreve,
Ocircumflex,
Odieresis,
Ograve,
Ohungarumlaut,
Omacron,
Oslash,
Otilde,
OE,
P,
Thorn,
Q,
R,
Racute,
Rcaron,
uni0156,
S,
Sacute,
Scaron,
Scedilla,
uni0218,
uni1E9E,
T,
Tcaron,
uni0162,
uni021A,
U,
Uacute,
Ubreve,
Ucircumflex,
Udieresis,
Ugrave,
Uhungarumlaut,
Umacron,
Uogonek,
Uring,
Utilde,
V,
W,
Wacute,
Wcircumflex,
Wdieresis,
Wgrave,
X,
Y,
Yacute,
Ycircumflex,
Ydieresis,
Ygrave,
uni1EF8,
Z,
Zacute,
Zcaron,
Zdotaccent,
uniA78B,
a,
aacute,
abreve,
uni01CE,
acircumflex,
adieresis,
agrave,
amacron,
aogonek,
aring,
atilde,
ae,
aeacute,
b,
c,
cacute,
ccaron,
ccedilla,
cdotaccent,
d,
dcaron,
dcroat,
eth,
e,
eacute,
ebreve,
ecaron,
ecircumflex,
edieresis,
edotaccent,
egrave,
emacron,
eogonek,
uni1EBD,
uni0259,
f,
g,
gbreve,
uni0123,
gdotaccent,
h,
hbar,
i,
dotlessi,
iacute,
ibreve,
icircumflex,
idieresis,
i.loclTRK,
igrave,
imacron,
iogonek,
itilde,
ij,
j,
uni0237,
uni006A0301,
k,
uni0137,
l,
lacute,
lcaron,
uni013C,
ldot,
lslash,
m,
n,
nacute,
ncaron,
uni0146,
ntilde,
eng,
o,
oacute,
obreve,
ocircumflex,
odieresis,
ograve,
ohungarumlaut,
omacron,
oslash,
otilde,
oe,
p,
thorn,
q,
r,
racute,
rcaron,

glyphs = (
{
glyphname = .notdef;
layers = (
{
layerId = m01;
shapes = (
{
closed = 1;
nodes = (
(465,0,l),
(465,700,l),
(64,700,l),
(64,0,l)
);
},
{
closed = 1;
nodes = (
(134,643,l),
(395,643,l),
(395,57,l),
(134,57,l)
);
}
);
userData = {
assembly = "NPUSHB[ ]	/* 38 values pushed */
0 0 0 2 3 0 2 103 4 1 3 1 1 3 87 4 1 3 3 1 95 0 1 3 1 79 4 4 4 7 4 7 18 17 16 5 6 25
CALL[ ]	/* CallFunction */";
};
width = 529;
}
);
note = .notdef;
},
{
glyphname = A;
kernLeft = A;
kernRight = A;
layers = (
{
anchors = (
{
name = bottom;
pos = (340,0);
},
{
name = ogonek;
pos = (655,0);
},
{
name = top;
pos = (340,700);
}
);
layerId = m01;
shapes = (
{
closed = 1;
nodes = (
(136,0,l),
(196,170,l),
(483,170,l),
(542,0,l),
(655,0,l),
(398,700,l),
(282,700,l),
(25,0,l)
);
},
{
closed = 1;
nodes = (
(339,574,l),
(452,255,l),
(227,255,l)
);
}
);
userData = {
assembly = "NPUSHB[ ]	/* 40 values pushed */
9 1 4 0 1 76 5 1 4 0 2 1 4 2 104 0 0 0 33 77 3 1 1 1 34 1 78 8 8 8 10 8 10 17 17 17 16 6 8 26
CALL[ ]	/* CallFunction */";
};
width = 679;
}
);
note = A;
unicode = 65;
},
{
glyphname = Aogonek;
kernLeft = A;
layers = (
{
anchors = (
{
name = bottom;
pos = (340,0);
},
{
name = ogonek;
pos = (655,0);
},
{
name = top;
pos = (340,700);
}
);
layerId = m01;
shapes = (
{
closed = 1;
nodes = (
(136,0,l),
(196,170,l),
(483,170,l),
(539,10,l),
(493,-17,o),
(452,-74,o),
(452,-107,qs),
(452,-156,o),
(524,-206,o),
(578,-206,qs),
(618,-206,o),
(659,-193,q),
(659,-127,l),
(622,-142,o),
(591,-142,qs),
(565,-142,o),
(535,-118,o),
(535,-97,qs),
(535,-78,o),
(565,-44,o),
(600,-27,qs),
(655,0,l),
(398,700,l),
(282,700,l),
(25,0,l)
);
},
{
closed = 1;
nodes = (
(339,574,l),
(452,255,l),
(227,255,l)
);
}
);
userData = {
assembly = "NPUSHB[ ]	/* 23 values pushed */
26 1 5 0 20 1 4 3 11 1 1 4 12 1 2 1 4 76 2 1 4 1 75
MPPEM[ ]	/* MeasurePixelPerEm */
PUSHB[ ]	/* 1 value pushed */
35
LT[ ]	/* LessThan */
IF[ ]	/* If */
NPUSHB[ ]	/* 30 values pushed */
6 1 5 0 3 4 5 3 104 0 0 0 33 77 0 4 4 34 77 0 1 1 2 97 0 2 2 38 2 78
ELSE[ ]	/* Else */
NPUSHB[ ]	/* 27 values pushed */
6 1 5 0 3 4 5 3 104 0 1 0 2 1 2 101 0 0 0 33 77 0 4 4 34 4 78
EIF[ ]	/* EndIf */
NPUSHB[ ]	/* 14 values pushed */
25 25 25 27 25 27 17 22 35 39 16 7 8 27
CALL[ ]	/* CallFunction */";
};
width = 679;
}
);
note = Aogonek;
unicode = 260;
},
{
glyphname = AE;
kernLeft = AE;
layers = (
{
anchors = (
{
name = bottom;
pos = (461,0);
},
{
name = top;
pos = (536,700);
}
);
layerId = m01;
shapes = (
{
closed = 1;
nodes = (
(140,0,l),
(222,148,l),
(482,148,l),
(482,0,l),
(868,0,l),
(868,88,l),
(588,88,l),
(588,327,l),
(823,327,l),
(823,415,l),
(588,415,l),
(588,612,l),
(868,612,l),
(868,700,l),
(414,700,l),
(25,0,l)
);
},
{
closed = 1;
nodes = (
(482,617,l),
(482,232,l),
(268,232,l)
);
}
);
userData = {
assembly = "NPUSHB[ ]	/* 62 values pushed */
17 1 1 0 1 76 0 2 0 3 8 2 3 103 9 1 8 0 6 4 8 6 103 0 1 1 0 95 0 0 0 33 77 0 4 4 5 95 7 1 5 5 34 5 78 16 16 16 18 16 18 17 17 17 17 17 17 17 16 10 8 30
CALL[ ]	/* CallFunction */";
};
width = 921;
}
);
note = AE;
unicode = 198;
},
{
glyphname = B;
kernRight = B;
layers = (
{
layerId = m01;
shapes = (
{
closed = 1;
nodes = (
(347,0,ls),
(455,0,o),
(573,110,o),
(573,198,qs),
(573,260,o),
(500,355,o),
(438,376,q),
(484,393,o),
(541,471,o),
(541,527,qs),
(541,605,o),
(425,700,o),
(322,700,qs),
(69,700,l),
(69,0,l)
);
},
{
closed = 1;
nodes = (
(175,90,l),
(175,325,l),
(326,325,ls),
(392,325,o),
(466,266,o),
(466,207,qs),
(466,148,o),
(396,90,o),
(328,90,qs)
);
},
{
closed = 1;
nodes = (
(175,413,l),
(175,611,l),
(311,611,ls),
(433,611,o),
(433,512,qs),
(433,464,o),
(373,413,o),
(314,413,qs)
);
}
);
userData = {
assembly = "NPUSHB[ ]	/* 57 values pushed */
7 1 2 5 1 76 7 1 5 0 2 3 5 2 103 0 4 4 0 95 0 0 0 33 77 6 1 3 3 1 95 0 1 1 34 1 78 24 24 15 15 24 31 24 30 29 27 15 23 15 22 37 42 32 8 8 25
CALL[ ]	/* CallFunction */";
};
width = 613;
}
);
note = B;
unicode = 66;
},
{
glyphname = C;
kernLeft = C;
kernRight = C;
layers = (
{
anchors = (
{
name = bottom;
pos = (381,0);
},
{
name = top;
pos = (380,700);
}
);
layerId = m01;
shapes = (
{
closed = 1;
nodes = (
(503,-12,o),
(660,105,o),
(681,211,q),
(564,211,l),
(549,150,o),
(456,83,o),
(380,83,qs),
(273,83,o),
(153,228,o),
(153,350,qs),
(153,471,o),
(272,617,o),
(380,617,qs),
(456,617,o),
(549,547,o),
(564,484,q),
(681,484,l),
(660,592,o),
(504,712,o),
(381,712,qs),
(275,712,o),
(123,618,o),
(44,454,o),
(44,350,qs),
(44,246,o),
(124,82,o),
(277,-12,o),
(381,-12,qs)
);
}
);
userData = {
assembly = "NPUSHB[ ]	/* 51 values pushed */
0 1 2 4 2 1 4 128 0 4 3 2 4 3 126 0 2 2 0 97 0 0 0 39 77 0 3 3 5 97 6 1 5 5 40 5 78 0 0 0 27 0 26 18 36 34 18 38 7 8 27
CALL[ ]	/* CallFunction */";
};
width = 725;
}
);
note = C;
unicode = 67;
},
{
glyphname = Ccedilla;
kernLeft = C;
kernRight = C;
layers = (
{
anchors = (
{
name = bottom;
pos = (381,-261);
},
{
name = top;
pos = (380,700);
}
);
layerId = m01;
shapes = (
{
closed = 1;
nodes = (
(418,-261,ls),
(473,-261,o),
(544,-206,o),
(544,-157,qs),
(544,-107,o),
(471,-55,o),
(414,-56,q),
(414,-11,l),
(522,-3,o),
(661,113,o),
(681,211,q),
(564,211,l),
(549,150,o),
(456,83,o),
(380,83,qs),
(273,83,o),
(153,228,o),
(153,350,qs),
(153,471,o),
(272,617,o),
(380,617,qs),
(456,617,o),
(549,547,o),
(564,484,q),
(681,484,l),
(660,592,o),
(504,712,o),
(381,712,qs),
(275,712,o),
(123,618,o),
(44,454,o),
(44,350,qs),
(44,252,o),
(116,94,o),
(252,-3,o),
(346,-11,q),
(346,-115,l),
(401,-115,ls),
(462,-115,o),
(462,-155,qs),
(462,-197,o),
(401,-197,qs),
(299,-197,l),
(299,-261,l)
);
}
);
userData = {
assembly = "PUSHB[ ]	/* 7 values pushed */
35 7 2 7 5 1 76
MPPEM[ ]	/* MeasurePixelPerEm */
PUSHB[ ]	/* 1 value pushed */
9
LT[ ]	/* LessThan */
IF[ ]	/* If */
NPUSHB[ ]	/* 47 values pushed */
0 3 4 6 4 3 6 128 0 6 5 4 6 5 126 0 5 7 7 5 112 0 7 0 1 0 7 1 106 0 0 0 8 0 8 99 0 4 4 2 97 0 2 2 39 4 78
ELSE[ ]	/* Else */
NPUSHB[ ]	/* 48 values pushed */
0 3 4 6 4 3 6 128 0 6 5 4 6 5 126 0 5 7 4 5 7 126 0 7 0 1 0 7 1 106 0 0 0 8 0 8 99 0 4 4 2 97 0 2 2 39 4 78
EIF[ ]	/* EndIf */
NPUSHB[ ]	/* 12 values pushed */
36 20 18 36 34 18 40 34 32 9 8 31
CALL[ ]	/* CallFunction */";
};
width = 725;
}
);
note = Ccedilla;
unicode = 199;
},
{
glyphname = D;
kernRight = D;
layers = (
{
anchors = (
{
name = bottom;
pos = (344,0);
},
{
name = top;
pos = (344,700);
}
);
layerId = m01;
shapes = (
{
closed = 1;
nodes = (
(296,0,ls),
(474,0,o),
(656,182,o),
(656,349,qs),
(656,515,o),
(477,700,o),
(296,700,qs),
(69,700,l),
(69,0,l)
);
},
{
closed = 1;
nodes = (
(175,90,l),
(175,611,l),
(292,611,ls),
(423,611,o),
(547,483,o),
(547,349,qs),
(547,222,o),
(428,90,o),
(292,90,qs)
);
}
);
userData = {
assembly = "NPUSHB[ ]	/* 34 values pushed */
0 2 2 0 95 0 0 0 33 77 4 1 3 3 1 95 0 1 1 34 1 78 9 9 9 17 9 16 37 36 32 5 8 25
CALL[ ]	/* CallFunction */";
};
width = 700;
}
);
note = D;
unicode = 68;
},
{
glyphname = Dcroat;
kernRight = D;
layers = (
{
layerId = m01;
shapes = (
{
closed = 1;
nodes = (
(313,0,ls),
(491,0,o),
(673,182,o),
(673,349,qs),
(673,515,o),
(494,700,o),
(313,700,qs),
(86,700,l),
(86,396,l),
(5,396,l),
(5,303,l),
(86,303,l),
(86,0,l)
);
},
{
closed = 1;
nodes = (
(192,90,l),
(192,303,l),
(382,303,l),
(382,396,l),
(192,396,l),
(192,611,l),
(310,611,ls),
(440,611,o),
(564,483,o),
(564,349,qs),
(564,224,o),
(448,90,o),
(310,90,qs)
);
}
);
userData = {
assembly = "NPUSHB[ ]	/* 48 values pushed */
5 1 1 6 1 0 7 1 0 103 0 4 4 2 95 0 2 2 33 77 8 1 7 7 3 95 0 3 3 34 3 78 13 13 13 25 13 24 17 17 37 36 33 17 16 9 8 29
CALL[ ]	/* CallFunction */";
};
width = 717;
}
);
note = Dcroat;
unicode = 272;
},
{
glyphname = Eth;
kernRight = D;
layers = (
{
layerId = m01;
shapes = (
{
closed = 1;
nodes = (
(313,0,ls),
(491,0,o),
(673,182,o),
(673,349,qs),
(673,515,o),
(494,700,o),
(313,700,qs),
(86,700,l),
(86,396,l),
(5,396,l),
(5,303,l),
(86,303,l),
(86,0,l)
);
},
{
closed = 1;
nodes = (
(192,90,l),
(192,303,l),
(382,303,l),
(382,396,l),
(192,396,l),
(192,611,l),
(310,611,ls),
(440,611,o),
(564,483,o),
(564,349,qs),
(564,224,o),
(448,90,o),
(310,90,qs)
);
}
);
userData = {
assembly = "NPUSHB[ ]	/* 48 values pushed */
5 1 1 6 1 0 7 1 0 103 0 4 4 2 95 0 2 2 33 77 8 1 7 7 3 95 0 3 3 34 3 78 13 13 13 25 13 24 17 17 37 36 33 17 16 9 8 29
CALL[ ]	/* CallFunction */";
};
width = 717;
}
);
note = Eth;
unicode = 208;
},
{
glyphname = E;
kernRight = E;
layers = (
{
anchors = (
{
name = bottom;
pos = (282,0);
},
{
name = ogonek;
pos = (510,0);
},
{
name = top;
pos = (282,700);
}
);
layerId = m01;
shapes = (
{
closed = 1;
nodes = (
(510,0,l),
(510,89,l),
(175,89,l),
(175,326,l),
(465,326,l),
(465,414,l),
(175,414,l),
(175,611,l),
(510,611,l),
(510,700,l),
(69,700,l),
(69,0,l)
);
}
);
userData = {
assembly = "NPUSHB[ ]	/* 38 values pushed */
0 2 0 3 4 2 3 103 0 1 1 0 95 0 0 0 33 77 0 4 4 5 95 0 5 5 34 5 78 17 17 17 17 17 16 6 8 28
CALL[ ]	/* CallFunction */";
};
width = 563;
}
);
note = E;
unicode = 69;
},
{
glyphname = Eogonek;
layers = (
{
anchors = (
{
name = bottom;
pos = (282,0);
},
{
name = ogonek;
pos = (510,0);
},
{
name = top;
pos = (282,700);
}
);
layerId = m01;
shapes = (
{
closed = 1;
nodes = (
(379,0,l),
(308,-45,o),
(308,-107,qs),
(308,-156,o),
(380,-206,o),
(434,-206,qs),
(474,-206,o),
(515,-193,q),
(515,-127,l),
(478,-142,o),
(447,-142,qs),
(421,-142,o),
(391,-118,o),
(391,-97,qs),
(391,-78,o),
(421,-44,o),
(456,-27,qs),
(511,0,l),
(510,2,l),
(510,89,l),
(175,89,l),
(175,326,l),
(465,326,l),
(465,414,l),
(175,414,l),
(175,611,l),
(510,611,l),
(510,700,l),
(69,700,l),
(69,0,l)
);
}
);
userData = {
assembly = "NPUSHB[ ]	/* 14 values pushed */
10 1 7 4 20 1 5 7 21 1 6 5 3 76
MPPEM[ ]	/* MeasurePixelPerEm */
PUSHB[ ]	/* 1 value pushed */
35
LT[ ]	/* LessThan */
IF[ ]	/* If */
NPUSHB[ ]	/* 39 values pushed */
0 2 0 3 4 2 3 103 0 1 1 0 95 0 0 0 33 77 0 4 4 7 95 0 7 7 34 77 0 5 5 6 97 0 6 6 38 6 78
ELSE[ ]	/* Else */
NPUSHB[ ]	/* 36 values pushed */
0 2 0 3 4 2 3 103 0 5 0 6 5 6 101 0 1 1 0 95 0 0 0 33 77 0 4 4 7 95 0 7 7 34 7 78
EIF[ ]	/* EndIf */
NPUSHB[ ]	/* 11 values pushed */
20 35 40 17 17 17 17 16 8 8 30
CALL[ ]	/* CallFunction */";
};
width = 563;
}
);
note = Eogonek;
unicode = 280;
},
{
glyphname = uni018E;
kernRight = uni018E;
layers = (
{
layerId = m01;
shapes = (
{
closed = 1;
nodes = (
(501,0,l),
(501,700,l),
(60,700,l),
(60,611,l),
(395,611,l),
(395,414,l),
(105,414,l),
(105,326,l),
(395,326,l),
(395,89,l),
(60,89,l),
(60,0,l)
);
}
);
userData = {
assembly = "NPUSHB[ ]	/* 38 values pushed */
0 2 0 1 0 2 1 103 0 3 3 4 95 0 4 4 33 77 0 0 0 5 95 0 5 5 34 5 78 17 17 17 17 17 16 6 8 28
CALL[ ]	/* CallFunction */";
};
width = 577;
}
);
note = uni018E;
unicode = (398,477);
},
{
glyphname = uni018F;
kernLeft = uni018F;
kernRight = D;
layers = (
{
layerId = m01;
shapes = (
{
closed = 1;
nodes = (
(476,-12,o),
(552,33,qs),
(629,78,o),
(713,241,o),
(713,347,qs),
(713,457,o),
(670,539,qs),
(628,621,o),
(476,712,o),
(376,712,qs),
(296,712,o),
(229,683,qs),
(163,653,o),
(71,547,o),
(51,477,q),
(169,477,l),
(190,542,o),
(302,616,o),
(377,616,qs),
(439,616,o),
(488,588,qs),
(538,560,o),
(597,453,o),
(600,381,q),
(48,381,l),
(44,353,o),
(44,321,qs),
(44,215,o),
(87,142,qs),
(128,68,o),
(277,-12,o),
(374,-12,qs)
);
},
{
closed = 1;
nodes = (
(308,85,o),
(258,112,qs),
(208,138,o),
(154,234,o),
(154,298,q),
(600,298,l),
(595,228,o),
(565,183,qs),
(535,135,o),
(434,85,o),
(373,85,qs)
);
}
);
userData = {
assembly = "NPUSHB[ ]	/* 60 values pushed */
0 2 1 0 1 2 0 128 0 0 0 5 6 0 5 103 0 1 1 3 97 0 3 3 39 77 8 1 6 6 4 97 7 1 4 4 40 4 78 32 32 0 0 32 42 32 41 37 36 0 31 0 30 36 18 36 22 9 8 26
CALL[ ]	/* CallFunction */";
};
width = 757;
}
);
note = uni018F;
unicode = 399;
},
{
glyphname = F;
kernRight = F;
layers = (
{
layerId = m01;
shapes = (
{
closed = 1;
nodes = (
(175,0,l),
(175,317,l),
(458,317,l),
(458,406,l),
(175,406,l),
(175,611,l),
(503,611,l),
(503,700,l),
(69,700,l),
(69,0,l)
);
}
);
userData = {
assembly = "NPUSHB[ ]	/* 32 values pushed */
0 2 0 3 4 2 3 103 0 1 1 0 95 0 0 0 33 77 0 4 4 34 4 78 17 17 17 17 16 5 8 27
CALL[ ]	/* CallFunction */";
};
width = 533;
}
);
note = F;
unicode = 70;
},
{
glyphname = G;
kernLeft = C;
kernRight = G;
layers = (
{
anchors = (
{
name = bottom;
pos = (381,0);
},
{
name = top;
pos = (381,700);
}
);
layerId = m01;
shapes = (
{
closed = 1;
nodes = (
(455,-12,o),
(562,46,o),
(600,104,q),
(608,0,l),
(706,0,l),
(706,376,l),
(359,376,l),
(359,289,l),
(597,289,l),
(585,190,o),
(478,83,o),
(380,83,qs),
(274,83,o),
(153,226,o),
(153,347,qs),
(153,468,o),
(277,615,o),
(389,615,qs),
(462,615,o),
(558,551,o),
(573,494,q),
(693,494,l),
(669,597,o),
(509,712,o),
(389,712,qs),
(281,712,o),
(125,617,o),
(44,452,o),
(44,348,qs),
(44,243,o),
(125,79,o),
(274,-12,o),
(373,-12,qs)
);
}
);
userData = {
assembly = "PUSHB[ ]	/* 6 values pushed */
29 1 3 4 1 76
MPPEM[ ]	/* MeasurePixelPerEm */
PUSHB[ ]	/* 1 value pushed */
21
LT[ ]	/* LessThan */
IF[ ]	/* If */
NPUSHB[ ]	/* 39 values pushed */
0 1 2 5 2 1 5 128 0 5 0 4 3 5 4 103 0 2 2 0 97 0 0 0 39 77 0 3 3 6 97 8 7 2 6 6 34 6 78
ELSE[ ]	/* Else */
NPUSHB[ ]	/* 43 values pushed */
0 1 2 5 2 1 5 128 0 5 0 4 3 5 4 103 0 2 2 0 97 0 0 0 39 77 0 6 6 34 77 0 3 3 7 97 8 1 7 7 40 7 78
EIF[ ]	/* EndIf */
NPUSHB[ ]	/* 16 values pushed */
0 0 0 32 0 31 17 17 18 36 34 18 38 9 8 29
CALL[ ]	/* CallFunction */";
};
width = 761;
}
);
note = G;
unicode = 71;
},
{
glyphname = H;
kernRight = H;
layers = (
{
layerId = m01;
shapes = (
{
closed = 1;
nodes = (
(175,0,l),
(175,326,l),
(514,326,l),
(514,0,l),
(620,0,l),
(620,700,l),
(514,700,l),
(514,415,l),
(175,415,l),
(175,700,l),
(69,700,l),
(69,0,l)
);
}
);
userData = {
assembly = "NPUSHB[ ]	/* 30 values pushed */
0 1 0 4 3 1 4 103 2 1 0 0 33 77 5 1 3 3 34 3 78 17 17 17 17 17 16 6 8 28
CALL[ ]	/* CallFunction */";
};
width = 689;
}
);
note = H;
unicode = 72;
},
{
glyphname = Hbar;
layers = (
{
layerId = m01;
shapes = (
{
closed = 1;
nodes = (
(176,0,l),
(176,326,l),
(514,326,l),
(514,0,l),
(620,0,l),
(620,503,l),
(665,503,l),
(665,592,l),
(620,592,l),
(620,700,l),
(514,700,l),
(514,592,l),
(176,592,l),
(176,700,l),
(70,700,l),
(70,592,l),
(24,592,l),
(24,503,l),
(70,503,l),
(70,0,l)
);
},
{
closed = 1;
nodes = (
(176,503,l),
(514,503,l),
(514,415,l),
(176,415,l)
);
}
);
userData = {
assembly = "NPUSHB[ ]	/* 56 values pushed */
5 3 2 1 10 6 2 0 11 1 0 103 12 1 11 0 8 7 11 8 103 4 1 2 2 33 77 9 1 7 7 34 7 78 20 20 20 23 20 23 22 21 19 18 17 17 17 17 17 17 17 17 16 13 8 31
CALL[ ]	/* CallFunction */";
};
width = 689;
}
);
note = Hbar;
unicode = 294;
},
{
glyphname = I;
kernRight = I;
layers = (
{
anchors = (
{
name = bottom;
pos = (122,0);
},
{
name = ogonek;
pos = (175,0);
},
{
name = top;
pos = (122,700);
}
);
layerId = m01;
shapes = (
{
closed = 1;
nodes = (
(175,0,l),
(175,700,l),
(69,700,l),
(69,0,l)
);
}
);
userData = {
assembly = "NPUSHB[ ]	/* 16 values pushed */
0 0 0 33 77 0 1 1 34 1 78 17 16 2 8 24
CALL[ ]	/* CallFunction */";
};
width = 244;
}
);
note = I;
unicode = 73;
},
{
glyphname = Iogonek;
layers = (
{
anchors = (
{
name = bottom;
pos = (122,0);
},
{
name = ogonek;
pos = (175,0);
},
{
name = top;
pos = (122,700);
}
);
layerId = m01;
shapes = (
{
closed = 1;
nodes = (
(139,-206,o),
(180,-193,q),
(180,-127,l),
(143,-142,o),
(112,-142,qs),
(86,-142,o),
(56,-118,o),
(56,-97,qs),
(56,-78,o),
(86,-44,o),
(121,-27,qs),
(176,0,l),
(175,2,l),
(175,700,l),
(69,700,l),
(69,15,l),
(18,-12,o),
(-27,-72,o),
(-27,-107,qs),
(-27,-156,o),
(45,-206,o),
(99,-206,qs)
);
}
);
userData = {
assembly = "NPUSHB[ ]	/* 12 values pushed */
18 8 5 3 1 0 19 1 2 1 2 76
MPPEM[ ]	/* MeasurePixelPerEm */
PUSHB[ ]	/* 1 value pushed */
35
LT[ ]	/* LessThan */
IF[ ]	/* If */
NPUSHB[ ]	/* 17 values pushed */
0 0 0 33 77 0 1 1 2 98 3 1 2 2 38 2 78
ELSE[ ]	/* Else */
NPUSHB[ ]	/* 14 values pushed */
0 1 3 1 2 1 2 102 0 0 0 33 0 78
EIF[ ]	/* EndIf */
NPUSHB[ ]	/* 11 values pushed */
0 0 0 21 0 20 40 22 4 8 24
CALL[ ]	/* CallFunction */";
};
width = 244;
}
);
note = Iogonek;
unicode = 302;
},
{
glyphname = J;
kernLeft = J;
kernRight = J;
layers = (
{
anchors = (
{
name = bottom;
pos = (256,0);
},
{
name = top;
pos = (391,700);
}
);
layerId = m01;
shapes = (
{
closed = 1;
nodes = (
(335,-12,o),
(443,96,o),
(443,194,qs),
(443,700,l),
(337,700,l),
(337,194,ls),
(337,142,o),
(289,83,o),
(237,83,qs),
(183,83,o),
(132,145,o),
(131,199,q),
(25,199,l),
(25,100,o),
(139,-12,o),
(239,-12,qs)
);
}
);
userData = {
assembly = "NPUSHB[ ]	/* 37 values pushed */
0 0 2 1 2 0 1 128 0 2 2 33 77 0 1 1 3 97 4 1 3 3 40 3 78 0 0 0 15 0 14 19 34 18 5 8 25
CALL[ ]	/* CallFunction */";
};
width = 512;
}
);
note = J;
unicode = 74;
},
{
glyphname = K;
kernRight = K;
layers = (
{
anchors = (
{
name = bottom;
pos = (302,0);
},
{
name = top;
pos = (302,700);
}
);
layerId = m01;
shapes = (
{
closed = 1;
nodes = (
(177,0,l),
(177,329,l),
(454,0,l),
(601,0,l),
(287,359,l),
(586,700,l),
(450,700,l),
(177,374,l),
(177,700,l),
(71,700,l),
(71,0,l)
);
}
);
userData = {
assembly = "NPUSHB[ ]	/* 28 values pushed */
8 5 2 3 2 0 1 76 1 1 0 0 33 77 3 1 2 2 34 2 78 18 18 18 16 4 8 26
CALL[ ]	/* CallFunction */";
};
width = 607;
}
);
note = K;
unicode = 75;
},
{
glyphname = L;
kernRight = L;
layers = (
{
anchors = (
{
name = bottom;
pos = (266,0);
},
{
name = top;
pos = (177,700);
},
{
name = topright;
pos = (271,700);
}
);
layerId = m01;
shapes = (
{
closed = 1;
nodes = (
(489,0,l),
(489,88,l),
(175,88,l),
(175,700,l),
(69,700,l),
(69,0,l)
);
}
);
userData = {
assembly = "NPUSHB[ ]	/* 22 values pushed */
0 0 0 33 77 0 1 1 2 96 0 2 2 34 2 78 17 17 16 3 8 25
CALL[ ]	/* CallFunction */";
};
width = 530;
}
);
note = L;
unicode = 76;
},
{
glyphname = Ldot;
kernRight = L;
layers = (
{
layerId = m01;
shapes = (
{
closed = 1;
nodes = (
(489,0,l),
(489,88,l),
(175,88,l),
(175,700,l),
(69,700,l),
(69,0,l)
);
},
{
closed = 1;
nodes = (
(392,280,o),
(433,321,o),
(433,350,qs),
(433,380,o),
(392,420,o),
(363,420,qs),
(333,420,o),
(293,380,o),
(293,350,qs),
(293,321,o),
(333,280,o),
(363,280,qs)
);
}
);
userData = {
assembly = "NPUSHB[ ]	/* 38 values pushed */
0 3 5 1 4 1 3 4 105 0 0 0 33 77 0 1 1 2 96 0 2 2 34 2 78 6 6 6 17 6 16 37 17 17 16 6 8 26
CALL[ ]	/* CallFunction */";
};
width = 530;
}
);
note = Ldot;
unicode = 319;
},
{
glyphname = Lslash;
kernRight = L;
layers = (
{
layerId = m01;
shapes = (
{
closed = 1;
nodes = (
(514,0,l),
(514,88,l),
(200,88,l),
(200,341,l),
(313,381,l),
(313,468,l),
(200,427,l),
(200,700,l),
(94,700,l),
(94,390,l),
(18,363,l),
(18,276,l),
(94,304,l),
(94,0,l)
);
}
);
userData = {
assembly = "NPUSHB[ ]	/* 35 values pushed */
9 8 7 6 3 2 1 0 8 1 0 1 76 0 0 0 33 77 0 1 1 2 96 0 2 2 34 2 78 17 21 20 3 8 25
CALL[ ]	/* CallFunction */";
};
width = 555;
}
);
note = Lslash;
unicode = 321;
},
{
glyphname = M;
kernRight = M;
layers = (
{
layerId = m01;
shapes = (
{
closed = 1;
nodes = (
(175,0,l),
(175,510,l),
(373,95,l),
(455,95,l),
(652,510,l),
(652,0,l),
(758,0,l),
(758,700,l),
(633,700,l),
(415,231,l),
(194,700,l),
(69,700,l),
(69,0,l)
);
}
);
userData = {
assembly = "NPUSHB[ ]	/* 37 values pushed */
10 7 2 3 3 0 1 76 0 3 0 2 0 3 2 128 1 1 0 0 33 77 4 1 2 2 34 2 78 18 18 17 18 16 5 8 27
CALL[ ]	/* CallFunction */";
};
width = 827;
}
);
note = M;
unicode = 77;
},
{
glyphname = N;
kernLeft = N;
kernRight = N;
layers = (
{
anchors = (
{
name = bottom;
pos = (351,0);
},
{
name = top;
pos = (351,700);
}
);
layerId = m01;
shapes = (
{
closed = 1;
nodes = (
(175,0,l),
(175,525,l),
(526,0,l),
(632,0,l),
(632,700,l),
(526,700,l),
(526,175,l),
(175,700,l),
(69,700,l),
(69,0,l)
);
}
);
userData = {
assembly = "NPUSHB[ ]	/* 27 values pushed */
7 2 2 2 0 1 76 1 1 0 0 33 77 3 1 2 2 34 2 78 18 17 18 16 4 8 26
CALL[ ]	/* CallFunction */";
};
width = 701;
}
);
note = N;
unicode = 78;
},
{
glyphname = Eng;
layers = (
{
layerId = m01;
shapes = (
{
closed = 1;
nodes = (
(175,0,l),
(175,525,l),
(526,0,l),
(526,-67,ls),
(526,-100,o),
(495,-129,o),
(461,-129,qs),
(428,-129,l),
(428,-220,l),
(477,-220,ls),
(632,-220,o),
(632,-68,qs),
(632,700,l),
(526,700,l),
(526,175,l),
(175,700,l),
(69,700,l),
(69,0,l)
);
}
);
userData = {
assembly = "NPUSHB[ ]	/* 42 values pushed */
15 2 2 4 0 1 76 14 1 4 1 75 1 1 0 0 33 77 0 4 4 34 77 0 3 3 2 98 0 2 2 38 2 78 21 33 34 18 16 5 8 27
CALL[ ]	/* CallFunction */";
};
width = 701;
}
);
note = Eng;
unicode = 330;
},
{
glyphname = O;
kernLeft = C;
kernRight = D;
layers = (
{
anchors = (
{
name = bottom;
pos = (396,0);
},
{
name = ogonek;
pos = (474,10);
},
{
name = top;
pos = (396,700);
},
{
name = topright;
pos = (771,700);
}
);
layerId = m01;
shapes = (
{
closed = 1;
nodes = (
(495,-12,o),
(655,79,o),
(747,244,o),
(747,350,qs),
(747,457,o),
(655,622,o),
(495,712,o),
(395,712,qs),
(295,712,o),
(135,620,o),
(44,456,o),
(44,350,qs),
(44,244,o),
(135,80,o),
(295,-12,o),
(395,-12,qs)
);
},
{
closed = 1;
nodes = (
(326,83,o),
(216,147,o),
(153,268,o),
(153,350,qs),
(153,432,o),
(216,553,o),
(326,617,o),
(395,617,qs),
(465,617,o),
(575,554,o),
(638,433,o),
(638,350,qs),
(638,268,o),
(575,147,o),
(464,83,o),
(395,83,qs)
);
}
);
userData = {
assembly = "NPUSHB[ ]	/* 41 values pushed */
0 2 2 0 97 0 0 0 39 77 5 1 3 3 1 97 4 1 1 1 40 1 78 16 16 0 0 16 31 16 30 24 22 0 15 0 14 38 6 8 23
CALL[ ]	/* CallFunction */";
};
width = 791;
}
);
note = O;
unicode = 79;
},
{
glyphname = Oslash;
kernLeft = Oslash;
kernRight = Oslash;
layers = (
{
layerId = m01;
shapes = (
{
closed = 1;
nodes = (
(497,-12,o),
(654,81,o),
(739,245,o),
(739,350,qs),
(739,499,o),
(657,596,q),
(749,700,l),
(643,700,l),
(599,650,l),
(512,712,o),
(392,712,qs),
(287,712,o),
(129,619,o),
(44,454,o),
(44,350,qs),
(44,277,o),
(86,153,o),
(125,106,q),
(33,0,l),
(139,0,l),
(184,51,l),
(272,-12,o),
(392,-12,qs)
);
},
{
closed = 1;
nodes = (
(308,83,o),
(249,127,q),
(588,516,l),
(631,448,o),
(631,350,qs),
(631,270,o),
(573,149,o),
(465,83,o),
(392,83,qs)
);
},
{
closed = 1;
nodes = (
(194,186,l),
(152,254,o),
(152,350,qs),
(152,430,o),
(210,551,o),
(319,617,o),
(392,617,qs),
(475,617,o),
(533,574,q)
);
}
);
userData = {
assembly = "MPPEM[ ]	/* MeasurePixelPerEm */
PUSHB[ ]	/* 1 value pushed */
21
LT[ ]	/* LessThan */
IF[ ]	/* If */
NPUSHB[ ]	/* 19 values pushed */
13 1 5 1 40 39 29 28 16 4 6 4 5 1 1 0 4 3 76
ELSE[ ]	/* Else */
NPUSHB[ ]	/* 19 values pushed */
13 1 5 2 40 39 29 28 16 4 6 4 5 1 1 0 4 3 76
EIF[ ]	/* EndIf */
MPPEM[ ]	/* MeasurePixelPerEm */
PUSHB[ ]	/* 1 value pushed */
21
LT[ ]	/* LessThan */
IF[ ]	/* If */
NPUSHB[ ]	/* 25 values pushed */
0 5 5 1 97 2 1 1 1 39 77 7 1 4 4 0 97 6 3 2 0 0 34 0 78
ELSE[ ]	/* Else */
NPUSHB[ ]	/* 33 values pushed */
0 2 2 33 77 0 5 5 1 97 0 1 1 39 77 0 0 0 34 77 7 1 4 4 3 97 6 1 3 3 40 3 78
EIF[ ]	/* EndIf */
NPUSHB[ ]	/* 20 values pushed */
23 23 0 0 34 32 23 31 23 30 0 22 0 21 18 39 18 8 8 25
CALL[ ]	/* CallFunction */";
};
width = 781;
}
);
note = Oslash;
unicode = 216;
},
{
glyphname = OE;
kernLeft = C;
layers = (
{
layerId = m01;
shapes = (
{
closed = 1;
nodes = (
(465,-12,o),
(598,52,o),
(639,110,q),
(639,0,l),
(1054,0,l),
(1054,89,l),
(745,89,l),
(745,326,l),
(1011,326,l),
(1011,414,l),
(745,414,l),
(745,611,l),
(1054,611,l),
(1054,700,l),
(639,700,l),
(639,588,l),
(598,648,o),
(465,712,o),
(389,712,qs),
(290,712,o),
(133,618,o),
(44,453,o),
(44,350,qs),
(44,248,o),
(132,83,o),
(289,-12,o),
(389,-12,qs)
);
},
{
closed = 1;
nodes = (
(331,83,o),
(220,145,o),
(153,266,o),
(153,350,qs),
(153,421,o),
(209,543,o),
(319,617,o),
(395,617,qs),
(463,617,o),
(573,553,o),
(638,432,o),
(638,350,qs),
(638,279,o),
(582,157,o),
(472,83,o),
(395,83,qs)
);
}
);
userData = {
assembly = "NPUSHB[ ]	/* 10 values pushed */
10 1 3 2 23 1 5 4 2 76
MPPEM[ ]	/* MeasurePixelPerEm */
PUSHB[ ]	/* 1 value pushed */
21
LT[ ]	/* LessThan */
IF[ ]	/* If */
NPUSHB[ ]	/* 35 values pushed */
0 3 0 4 5 3 4 103 8 1 2 2 0 97 1 1 0 0 39 77 11 9 2 5 5 6 97 10 7 2 6 6 34 6 78
ELSE[ ]	/* Else */
MPPEM[ ]	/* MeasurePixelPerEm */
PUSHB[ ]	/* 1 value pushed */
39
LT[ ]	/* LessThan */
IF[ ]	/* If */
NPUSHB[ ]	/* 56 values pushed */
0 3 0 4 5 3 4 103 8 1 2 2 0 97 0 0 0 39 77 8 1 2 2 1 95 0 1 1 33 77 11 9 2 5 5 6 95 0 6 6 34 77 11 9 2 5 5 7 97 10 1 7 7 40 7 78
ELSE[ ]	/* Else */
NPUSHB[ ]	/* 51 values pushed */
0 3 0 4 5 3 4 103 0 8 8 0 97 0 0 0 39 77 0 2 2 1 95 0 1 1 33 77 0 5 5 6 95 0 6 6 34 77 11 1 9 9 7 97 10 1 7 7 40 7 78
EIF[ ]	/* EndIf */
EIF[ ]	/* EndIf */
NPUSHB[ ]	/* 24 values pushed */
27 27 0 0 27 42 27 41 35 33 0 26 0 25 17 17 17 17 17 19 38 12 8 29
CALL[ ]	/* CallFunction */";
};
width = 1107;
}
);
note = OE;
unicode = 338;
},
{
glyphname = P;
kernRight = P;
layers = (
{
layerId = m01;
shapes = (
{
closed = 1;
nodes = (
(175,0,l),
(175,292,l),
(314,292,ls),
(424,292,o),
(557,397,o),
(557,496,qs),
(557,594,o),
(426,700,o),
(314,700,qs),
(69,700,l),
(69,0,l)
);
},
{
closed = 1;
nodes = (
(175,382,l),
(175,611,l),
(312,611,ls),
(384,611,o),
(449,552,o),
(449,496,qs),
(449,440,o),
(384,382,o),
(312,382,qs)
);
}
);
userData = {
assembly = "NPUSHB[ ]	/* 38 values pushed */
5 1 4 0 1 2 4 1 103 0 3 3 0 95 0 0 0 33 77 0 2 2 34 2 78 11 11 11 19 11 18 37 17 36 32 6 8 26
CALL[ ]	/* CallFunction */";
};
width = 589;
}
);
note = P;
unicode = 80;
},
{
glyphname = Thorn;
kernRight = Thorn;
layers = (
{
layerId = m01;
shapes = (
{
closed = 1;
nodes = (
(175,0,l),
(175,142,l),
(314,142,ls),
(399,142,o),
(452,170,qs),
(505,198,o),
(557,291,o),
(557,350,qs),
(557,412,o),
(531,458,qs),
(504,507,o),
(395,560,o),
(314,560,qs),
(175,560,l),
(175,700,l),
(69,700,l),
(69,0,l)
);
},
{
closed = 1;
nodes = (
(175,228,l),
(175,472,l),
(309,472,ls),
(382,472,o),
(449,410,o),
(449,350,qs),
(449,228,o),
(309,228,qs)
);
}
);
userData = {
assembly = "NPUSHB[ ]	/* 42 values pushed */
0 1 0 4 5 1 4 103 6 1 5 0 2 3 5 2 103 0 0 0 33 77 0 3 3 34 3 78 17 17 17 24 17 23 36 17 40 33 16 7 8 27
CALL[ ]	/* CallFunction */";
};
width = 589;
}
);
note = Thorn;
unicode = 222;
},
{
glyphname = Q;
kernLeft = C;
kernRight = Q;
layers = (
{
layerId = m01;
shapes = (
{
closed = 1;
nodes = (
(680,-11,l),
(747,59,l),
(677,125,l),
(747,217,o),
(747,350,qs),
(747,457,o),
(655,622,o),
(495,712,o),
(395,712,qs),
(295,712,o),
(135,620,o),
(44,456,o),
(44,350,qs),
(44,244,o),
(135,80,o),
(295,-12,o),
(395,-12,qs),
(456,-12,o),
(566,23,o),
(610,56,q)
);
},
{
closed = 1;
nodes = (
(153,432,o),
(216,553,o),
(326,617,o),
(395,617,qs),
(465,617,o),
(575,554,o),
(638,433,o),
(638,350,qs),
(638,258,o),
(603,197,q),
(499,299,l),
(431,229,l),
(540,125,l),
(482,83,o),
(395,83,qs),
(326,83,o),
(216,147,o),
(153,268,o),
(153,350,qs)
);
}
);
userData = {
assembly = "NPUSHB[ ]	/* 44 values pushed */
28 27 26 25 16 5 2 3 19 18 17 3 0 2 2 76 0 3 3 1 97 0 1 1 39 77 0 2 2 0 97 0 0 0 40 0 78 41 43 38 33 4 8 26
CALL[ ]	/* CallFunction */";
};
width = 796;
}
);
note = Q;
unicode = 81;
},
{
glyphname = R;
kernRight = R;
layers = (
{
anchors = (
{
name = bottom;
pos = (307,0);
},
{
name = top;
pos = (294,700);
}
);
layerId = m01;
shapes = (
{
closed = 1;
nodes = (
(175,0,l),
(175,303,l),
(272,303,l),
(448,0,l),
(576,0,l),
(378,321,l),
(531,354,o),
(531,502,qs),
(531,598,o),
(405,700,o),
(294,700,qs),
(69,700,l),
(69,0,l)
);
},
{
closed = 1;
nodes = (
(175,393,l),
(175,611,l),
(292,611,ls),
(364,611,o),
(423,556,o),
(423,502,qs),
(423,447,o),
(364,393,o),
(292,393,qs)
);
}
);
userData = {
assembly = "NPUSHB[ ]	/* 46 values pushed */
6 1 2 5 1 76 6 1 5 0 2 1 5 2 103 0 4 4 0 95 0 0 0 33 77 3 1 1 1 34 1 78 13 13 13 21 13 20 37 17 17 21 32 7 8 27
CALL[ ]	/* CallFunction */";
};
width = 604;
}
);
note = R;
unicode = 82;
},
{
glyphname = S;
kernLeft = S;
kernRight = S;
layers = (
{
anchors = (
{
name = bottom;
pos = (292,0);
},
{
name = top;
pos = (292,700);
}
);
layerId = m01;
shapes = (
{
closed = 1;
nodes = (
(368,-12,o),
(477,36,o),
(541,127,o),
(541,189,qs),
(541,250,o),
(487,331,o),
(404,377,o),
(344,397,qs),
(276,420,o),
(209,450,o),
(173,492,o),
(173,525,qs),
(173,571,o),
(235,622,o),
(283,622,qs),
(339,622,o),
(408,561,o),
(408,514,q),
(521,514,l),
(520,576,o),
(458,666,o),
(354,712,o),
(290,712,qs),
(226,712,o),
(122,667,o),
(62,579,o),
(62,518,qs),
(62,449,o),
(146,356,o),
(237,326,qs),
(323,297,o),
(395,266,o),
(430,221,o),
(430,182,qs),
(430,133,o),
(358,78,o),
(300,78,qs),
(234,78,o),
(155,151,o),
(153,211,q),
(42,211,l),
(42,141,o),
(110,40,o),
(227,-12,o),
(300,-12,qs)
);
}
);
userData = {
assembly = "NPUSHB[ ]	/* 51 values pushed */
0 3 4 0 4 3 0 128 0 0 1 4 0 1 126 0 4 4 2 97 0 2 2 39 77 0 1 1 5 97 6 1 5 5 40 5 78 0 0 0 44 0 43 34 19 44 34 19 7 8 27
CALL[ ]	/* CallFunction */";
};
width = 584;
}
);
note = S;
unicode = 83;
},
{
glyphname = Scedilla;
kernLeft = S;
kernRight = S;
layers = (
{
anchors = (
{
name = bottom;
pos = (292,-261);
},
{
name = top;
pos = (292,700);
}
);
layerId = m01;
shapes = (
{
closed = 1;
nodes = (
(329,-261,ls),
(384,-261,o),
(455,-206,o),
(455,-157,qs),
(455,-107,o),
(382,-55,o),
(325,-56,q),
(325,-11,l),
(420,-4,o),
(541,102,o),
(541,189,qs),
(541,250,o),
(487,331,o),
(404,377,o),
(344,397,qs),
(276,420,o),
(209,450,o),
(173,492,o),
(173,525,qs),
(173,571,o),
(235,622,o),
(283,622,qs),
(339,622,o),
(408,561,o),
(408,514,q),
(521,514,l),
(520,576,o),
(458,666,o),
(354,712,o),
(290,712,qs),
(226,712,o),
(122,667,o),
(62,579,o),
(62,518,qs),
(62,449,o),
(146,356,o),
(237,326,qs),
(323,297,o),
(395,266,o),
(430,221,o),
(430,182,qs),
(430,133,o),
(358,78,o),
(300,78,qs),
(234,78,o),
(155,151,o),
(153,211,q),
(42,211,l),
(43,117,o),
(161,2,o),
(257,-10,q),
(257,-115,l),
(312,-115,ls),
(373,-115,o),
(373,-155,qs),
(373,-197,o),
(312,-197,qs),
(210,-197,l),
(210,-261,l)
);
}
);
userData = {
assembly = "PUSHB[ ]	/* 7 values pushed */
50 7 2 7 3 1 76
MPPEM[ ]	/* MeasurePixelPerEm */
PUSHB[ ]	/* 1 value pushed */
9
LT[ ]	/* LessThan */
IF[ ]	/* If */
NPUSHB[ ]	/* 47 values pushed */
0 5 6 2 6 5 2 128 0 2 3 6 2 3 126 0 3 7 7 3 112 0 7 0 1 0 7 1 106 0 0 0 8 0 8 99 0 6 6 4 97 0 4 4 39 6 78
ELSE[ ]	/* Else */
NPUSHB[ ]	/* 48 values pushed */
0 5 6 2 6 5 2 128 0 2 3 6 2 3 126 0 3 7 6 3 7 126 0 7 0 1 0 7 1 106 0 0 0 8 0 8 99 0 6 6 4 97 0 4 4 39 6 78
EIF[ ]	/* EndIf */
NPUSHB[ ]	/* 12 values pushed */
36 30 34 19 44 34 20 34 32 9 8 31
CALL[ ]	/* CallFunction */";
};
width = 584;
}
);
note = Scedilla;
unicode = 350;
},
{
glyphname = uni1E9E;
layers = (
{
layerId = m01;
shapes = (
{
closed = 1;
nodes = (
(533,-10,o),
(641,78,o),
(641,155,qs),
(641,217,o),
(571,289,o),
(502,314,qs),
(443,335,o),
(394,363,o),
(394,388,qs),
(394,406,o),
(418,429,o),
(441,444,qs),
(482,469,o),
(527,519,o),
(527,563,qs),
(527,616,o),
(467,692,o),
(365,732,o),
(303,732,qs),
(193,732,o),
(59,618,o),
(59,515,qs),
(59,0,l),
(164,0,l),
(164,506,ls),
(164,570,o),
(230,643,o),
(300,643,qs),
(352,643,o),
(422,598,o),
(422,553,qs),
(422,530,o),
(398,497,o),
(375,481,qs),
(335,454,ls),
(287,423,o),
(287,373,qs),
(287,338,o),
(330,289,o),
(391,258,o),
(438,242,qs),
(487,226,o),
(536,187,o),
(536,148,qs),
(536,110,o),
(487,71,o),
(446,71,qs),
(399,71,o),
(344,127,o),
(339,172,q),
(237,172,l),
(247,85,o),
(361,-10,o),
(448,-10,qs)
);
}
);
userData = {
assembly = "MPPEM[ ]	/* MeasurePixelPerEm */
PUSHB[ ]	/* 1 value pushed */
25
LT[ ]	/* LessThan */
IF[ ]	/* If */
NPUSHB[ ]	/* 31 values pushed */
0 0 2 1 2 0 1 128 0 2 2 4 97 0 4 4 41 77 0 1 1 3 97 6 5 2 3 3 34 3 78
ELSE[ ]	/* Else */
MPPEM[ ]	/* MeasurePixelPerEm */
PUSHB[ ]	/* 1 value pushed */
33
LT[ ]	/* LessThan */
IF[ ]	/* If */
NPUSHB[ ]	/* 35 values pushed */
0 0 2 1 2 0 1 128 0 2 2 4 97 0 4 4 41 77 0 3 3 34 77 0 1 1 5 97 6 1 5 5 40 5 78
ELSE[ ]	/* Else */
NPUSHB[ ]	/* 33 values pushed */
0 0 2 1 2 0 1 128 0 4 0 2 0 4 2 105 0 3 3 34 77 0 1 1 5 97 6 1 5 5 40 5 78
EIF[ ]	/* EndIf */
EIF[ ]	/* EndIf */
NPUSHB[ ]	/* 17 values pushed */
0 0 0 53 0 52 35 33 30 29 26 24 34 18 7 8 24
CALL[ ]	/* CallFunction */";
};
width = 666;
}
);
note = uni1E9E;
unicode = 7838;
},
{
glyphname = T;
kernLeft = T;
kernRight = T;
layers = (
{
anchors = (
{
name = bottom;
pos = (286,0);
},
{
name = top;
pos = (286,700);
}
);
layerId = m01;
shapes = (
{
closed = 1;
nodes = (
(339,0,l),
(339,611,l),
(546,611,l),
(546,700,l),
(26,700,l),
(26,611,l),
(233,611,l),
(233,0,l)
);
}
);
userData = {
assembly = "NPUSHB[ ]	/* 24 values pushed */
2 1 0 0 1 95 0 1 1 33 77 0 3 3 34 3 78 17 17 17 16 4 8 26
CALL[ ]	/* CallFunction */";
};
width = 571;
}
);
note = T;
unicode = 84;
},
{
glyphname = uni0162;
kernLeft = T;
kernRight = T;
layers = (
{
anchors = (
{
name = bottom;
pos = (286,-261);
},
{
name = top;
pos = (286,700);
}
);
layerId = m01;
shapes = (
{
closed = 1;
nodes = (
(251,0,l),
(251,-115,l),
(306,-115,ls),
(367,-115,o),
(367,-155,qs),
(367,-197,o),
(306,-197,qs),
(204,-197,l),
(204,-261,l),
(323,-261,ls),
(378,-261,o),
(449,-206,o),
(449,-157,qs),
(449,-107,o),
(376,-55,o),
(319,-56,q),
(319,0,l),
(339,0,l),
(339,611,l),
(546,611,l),
(546,700,l),
(26,700,l),
(26,611,l),
(233,611,l),
(233,0,l)
);
}
);
userData = {
assembly = "NPUSHB[ ]	/* 45 values pushed */
0 4 0 7 6 4 7 105 0 6 0 5 6 5 99 2 1 0 0 1 95 0 1 1 33 77 8 1 3 3 34 3 78 17 34 33 36 17 17 17 17 16 9 8 31
CALL[ ]	/* CallFunction */";
};
width = 571;
}
);
note = uni0162;
unicode = 354;
},
{
glyphname = U;
kernLeft = U;
kernRight = U;
layers = (
{
anchors = (
{
name = bottom;
pos = (333,0);
},
{
name = ogonek;
pos = (411,10);
},
{
name = top;
pos = (333,700);
},
{
name = topright;
pos = (645,700);
}
);
layerId = m01;
shapes = (
{
closed = 1;
nodes = (
(400,-12,o),
(522,42,o),
(601,165,o),
(601,263,qs),
(601,700,l),
(495,700,l),
(495,262,ls),
(495,173,o),
(410,84,o),
(333,84,qs),
(256,84,o),
(170,173,o),
(170,262,qs),
(170,700,l),
(64,700,l),
(64,263,ls),
(64,186,o),
(121,62,o),
(241,-12,o),
(331,-12,qs)
);
}
);
userData = {
assembly = "NPUSHB[ ]	/* 30 values pushed */
2 1 0 0 33 77 0 1 1 3 97 4 1 3 3 40 3 78 0 0 0 19 0 18 19 35 20 5 8 25
CALL[ ]	/* CallFunction */";
};
width = 665;
}
);
note = U;
unicode = 85;
},
{
glyphname = Uogonek;
kernLeft = U;
kernRight = U;
layers = (
{
anchors = (
{
name = bottom;
pos = (333,0);
},
{
name = ogonek;
pos = (411,10);
},
{
name = top;
pos = (333,700);
},
{
name = topright;
pos = (645,700);
}
);
layerId = m01;
shapes = (
{
closed = 1;
nodes = (
(374,-196,o),
(415,-183,q),
(415,-117,l),
(378,-132,o),
(347,-132,qs),
(321,-132,o),
(291,-108,o),
(291,-87,qs),
(291,-68,o),
(321,-34,o),
(356,-17,qs),
(371,-10,l),
(468,1,o),
(601,134,o),
(601,263,qs),
(601,700,l),
(495,700,l),
(495,262,ls),
(495,173,o),
(410,84,o),
(333,84,qs),
(256,84,o),
(170,173,o),
(170,262,qs),
(170,700,l),
(64,700,l),
(64,263,ls),
(64,162,o),
(161,16,o),
(258,-5,q),
(208,-45,o),
(208,-97,qs),
(208,-146,o),
(280,-196,o),
(334,-196,qs)
);
}
);
userData = {
assembly = "NPUSHB[ ]	/* 11 values pushed */
31 4 2 3 1 32 1 4 3 2 76
MPPEM[ ]	/* MeasurePixelPerEm */
PUSHB[ ]	/* 1 value pushed */
21
LT[ ]	/* LessThan */
IF[ ]	/* If */
NPUSHB[ ]	/* 26 values pushed */
0 1 0 3 0 1 3 128 2 1 0 0 33 77 0 3 3 4 98 5 1 4 4 38 4 78
ELSE[ ]	/* Else */
NPUSHB[ ]	/* 23 values pushed */
0 1 0 3 0 1 3 128 0 3 5 1 4 3 4 102 2 1 0 0 33 0 78
EIF[ ]	/* EndIf */
NPUSHB[ ]	/* 13 values pushed */
0 0 0 34 0 33 42 19 35 24 6 8 26
CALL[ ]	/* CallFunction */";
};
width = 665;
}
);
note = Uogonek;
unicode = 370;
},
{
glyphname = V;
kernLeft = V;
kernRight = V;
layers = (
{
layerId = m01;
shapes = (
{
closed = 1;
nodes = (
(404,0,l),
(663,700,l),
(551,700,l),
(340,110,l),
(131,700,l),
(17,700,l),
(276,0,l)
);
}
);
userData = {
assembly = "NPUSHB[ ]	/* 24 values pushed */
2 1 2 0 1 76 1 1 0 0 33 77 0 2 2 34 2 78 17 18 16 3 8 25
CALL[ ]	/* CallFunction */";
};
width = 680;
}
);
note = V;
unicode = 86;
},
{
glyphname = W;
kernLeft = W;
kernRight = W;
layers = (
{
anchors = (
{
name = bottom;
pos = (506,0);
},
{
name = top;
pos = (506,700);
}
);
layerId = m01;
shapes = (
{
closed = 1;
nodes = (
(506,560,l),
(658,0,l),
(787,0,l),
(981,700,l),
(866,700,l),
(722,124,l),
(569,700,l),
(446,700,l),
(289,129,l),
(146,700,l),
(32,700,l),
(221,0,l),
(349,0,l)
);
}
);
userData = {
assembly = "NPUSHB[ ]	/* 36 values pushed */
11 6 3 3 3 0 1 76 2 1 2 0 0 33 77 5 4 2 3 3 34 3 78 0 0 0 12 0 12 17 18 18 17 6 8 26
CALL[ ]	/* CallFunction */";
};
width = 1013;
}
);
note = W;
unicode = 87;
},
{
glyphname = X;
kernLeft = X;
kernRight = X;
layers = (
{
layerId = m01;
shapes = (
{
closed = 1;
nodes = (
(151,0,l),
(310,282,l),
(479,0,l),
(598,0,l),
(372,379,l),
(561,700,l),
(441,700,l),
(314,474,l),
(179,700,l),
(60,700,l),
(252,379,l),
(30,0,l)
);
}
);
userData = {
assembly = "NPUSHB[ ]	/* 28 values pushed */
9 6 3 3 2 0 1 76 1 1 0 0 33 77 3 1 2 2 34 2 78 18 18 18 17 4 8 26
CALL[ ]	/* CallFunction */";
};
width = 627;
}
);
note = X;
unicode = 88;
},
{
glyphname = Y;
kernLeft = Y;
kernRight = Y;
layers = (
{
anchors = (
{
name = bottom;
pos = (300,0);
},
{
name = top;
pos = (300,700);
}
);
layerId = m01;
shapes = (
{
closed = 1;
nodes = (
(353,0,l),
(353,274,l),
(583,700,l),
(465,700,l),
(300,378,l),
(135,700,l),
(15,700,l),
(247,274,l),
(247,0,l)
);
}
);
userData = {
assembly = "NPUSHB[ ]	/* 26 values pushed */
6 3 0 3 2 0 1 76 1 1 0 0 33 77 0 2 2 34 2 78 18 18 17 3 8 25
CALL[ ]	/* CallFunction */";
};
width = 598;
}
);
note = Y;
unicode = 89;
},
{
glyphname = Z;
kernRight = Z;
layers = (
{
anchors = (
{
name = bottom;
pos = (274,0);
},
{
name = top;
pos = (274,700);
}
);
layerId = m01;
shapes = (
{
closed = 1;
nodes = (
(503,0,l),
(503,91,l),
(166,91,l),
(500,618,l),
(500,700,l),
(48,700,l),
(48,610,l),
(377,610,l),
(44,82,l),
(44,0,l)
);
}
);
userData = {
assembly = "NPUSHB[ ]	/* 38 values pushed */
5 1 0 1 0 1 3 2 2 76 0 0 0 1 95 0 1 1 33 77 0 2 2 3 95 0 3 3 34 3 78 17 18 17 17 4 8 26
CALL[ ]	/* CallFunction */";
};
width = 547;
}
);
note = Z;
unicode = 90;
},
{
glyphname = uniA78B;
layers = (
{
layerId = m01;
shapes = (
{
closed = 1;
nodes = (
(164,220,l),
(177,700,l),
(63,700,l),
(75,220,l)
);
}
);
userData = {
assembly = "NPUSHB[ ]	/* 16 values pushed */
0 1 1 0 95 0 0 0 33 1 78 17 16 2 8 24
CALL[ ]	/* CallFunction */";
};
width = 239;
}
);
note = uniA78B;
unicode = 42891;
},
{
glyphname = a;
kernLeft = a;
kernRight = a;
layers = (
{
anchors = (
{
name = bottom;
pos = (243,0);
},
{
name = ogonek;
pos = (539,0);
},
{
name = top;
pos = (271,496);
}
);
layerId = m01;
shapes = (
{
closed = 1;
nodes = (
(273,-12,o),
(361,38,o),
(385,77,q),
(388,0,l),
(485,0,l),
(485,301,ls),
(485,394,o),
(377,508,o),
(273,508,qs),
(217,508,o),
(118,467,o),
(54,390,o),
(50,338,q),
(157,338,l),
(164,378,o),
(225,419,o),
(270,419,qs),
(320,419,o),
(378,359,o),
(378,298,q),
(252,298,ls),
(158,298,o),
(40,219,o),
(40,139,qs),
(40,69,o),
(141,-12,o),
(216,-12,qs)
);
},
{
closed = 1;
nodes = (
(200,75,o),
(149,112,o),
(149,148,qs),
(149,188,o),
(211,224,o),
(260,224,qs),
(378,224,l),
(378,222,ls),
(378,182,o),
(343,115,o),
(281,75,o),
(241,75,qs)
);
}
);
userData = {
assembly = "PUSHB[ ]	/* 6 values pushed */
23 1 7 6 1 76
MPPEM[ ]	/* MeasurePixelPerEm */
PUSHB[ ]	/* 1 value pushed */
21
LT[ ]	/* LessThan */
IF[ ]	/* If */
NPUSHB[ ]	/* 40 values pushed */
0 2 1 0 1 2 0 128 0 0 0 6 7 0 6 103 0 1 1 3 97 0 3 3 42 77 9 1 7 7 4 97 8 5 2 4 4 34 4 78
ELSE[ ]	/* Else */
NPUSHB[ ]	/* 44 values pushed */
0 2 1 0 1 2 0 128 0 0 0 6 7 0 6 103 0 1 1 3 97 0 3 3 42 77 0 4 4 34 77 9 1 7 7 5 97 8 1 5 5 40 5 78
EIF[ ]	/* EndIf */
NPUSHB[ ]	/* 22 values pushed */
27 27 0 0 27 38 27 37 33 30 0 26 0 25 19 35 18 34 36 10 8 27
CALL[ ]	/* CallFunction */";
};
width = 533;
}
);
note = a;
unicode = 97;
},
{
glyphname = aogonek;
kernLeft = a;
kernRight = aacute;
layers = (
{
anchors = (
{
name = bottom;
pos = (243,0);
},
{
name = ogonek;
pos = (539,0);
},
{
name = top;
pos = (271,496);
}
);
layerId = m01;
shapes = (
{
closed = 1;
nodes = (
(273,-12,o),
(361,38,o),
(385,77,q),
(388,0,l),
(407,0,l),
(336,-45,o),
(336,-107,qs),
(336,-156,o),
(408,-206,o),
(462,-206,qs),
(502,-206,o),
(543,-193,q),
(543,-127,l),
(506,-142,o),
(475,-142,qs),
(449,-142,o),
(419,-118,o),
(419,-97,qs),
(419,-78,o),
(449,-44,o),
(484,-27,qs),
(539,0,l),
(514,52,l),
(485,39,l),
(485,301,ls),
(485,394,o),
(377,508,o),
(273,508,qs),
(217,508,o),
(118,467,o),
(54,390,o),
(50,338,q),
(157,338,l),
(164,378,o),
(225,419,o),
(270,419,qs),
(320,419,o),
(378,359,o),
(378,298,q),
(252,298,ls),
(158,298,o),
(40,219,o),
(40,139,qs),
(40,69,o),
(141,-12,o),
(216,-12,qs)
);
},
{
closed = 1;
nodes = (
(200,75,o),
(149,112,o),
(149,148,qs),
(149,188,o),
(211,224,o),
(260,224,qs),
(378,224,l),
(378,222,ls),
(378,182,o),
(343,115,o),
(281,75,o),
(241,75,qs)
);
}
);
userData = {
assembly = "MPPEM[ ]	/* MeasurePixelPerEm */
PUSHB[ ]	/* 1 value pushed */
21
LT[ ]	/* LessThan */
IF[ ]	/* If */
NPUSHB[ ]	/* 24 values pushed */
42 1 9 8 22 21 2 6 9 32 1 4 6 33 1 5 4 4 76 23 1 6 1 75
ELSE[ ]	/* Else */
NPUSHB[ ]	/* 24 values pushed */
42 1 9 8 22 21 2 6 9 32 1 4 7 33 1 5 4 4 76 23 1 6 1 75
EIF[ ]	/* EndIf */
MPPEM[ ]	/* MeasurePixelPerEm */
PUSHB[ ]	/* 1 value pushed */
21
LT[ ]	/* LessThan */
IF[ ]	/* If */
NPUSHB[ ]	/* 50 values pushed */
0 2 1 0 1 2 0 128 0 0 0 8 9 0 8 103 0 1 1 3 97 0 3 3 42 77 11 1 9 9 6 97 10 7 2 6 6 34 77 0 4 4 5 97 0 5 5 38 5 78
ELSE[ ]	/* Else */
MPPEM[ ]	/* MeasurePixelPerEm */
PUSHB[ ]	/* 1 value pushed */
35
LT[ ]	/* LessThan */
IF[ ]	/* If */
NPUSHB[ ]	/* 54 values pushed */
0 2 1 0 1 2 0 128 0 0 0 8 9 0 8 103 0 1 1 3 97 0 3 3 42 77 0 6 6 34 77 11 1 9 9 7 97 10 1 7 7 40 77 0 4 4 5 97 0 5 5 38 5 78
ELSE[ ]	/* Else */
NPUSHB[ ]	/* 51 values pushed */
0 2 1 0 1 2 0 128 0 0 0 8 9 0 8 103 0 4 0 5 4 5 101 0 1 1 3 97 0 3 3 42 77 0 6 6 34 77 11 1 9 9 7 97 10 1 7 7 40 7 78
EIF[ ]	/* EndIf */
EIF[ ]	/* EndIf */
NPUSHB[ ]	/* 24 values pushed */
46 46 0 0 46 57 46 56 52 49 0 45 0 44 20 35 43 35 18 34 36 12 8 29
CALL[ ]	/* CallFunction */";
};
width = 533;
}
);
note = aogonek;
unicode = 261;
},
{
glyphname = ae;
kernLeft = a;
kernRight = ae;
layers = (
{
anchors = (
{
name = bottom;
pos = (454,0);
},
{
name = top;
pos = (454,496);
}
);
layerId = m01;
shapes = (
{
closed = 1;
nodes = (
(363,-12,o),
(431,98,q),
(464,46,o),
(572,-12,o),
(637,-12,qs),
(721,-12,o),
(840,80,o),
(862,151,q),
(756,151,l),
(740,116,o),
(679,76,o),
(636,76,qs),
(579,76,o),
(499,156,o),
(495,224,q),
(873,224,l),
(875,271,ls),
(875,338,o),
(814,446,o),
(705,508,o),
(637,508,qs),
(582,508,o),
(488,466,o),
(456,427,q),
(430,466,o),
(338,508,o),
(277,508,qs),
(224,508,o),
(129,469,o),
(66,392,o),
(60,337,q),
(166,337,l),
(173,377,o),
(235,421,o),
(277,421,qs),
(327,421,o),
(387,359,o),
(387,297,q),
(252,297,ls),
(151,297,o),
(40,213,o),
(40,140,qs),
(40,71,o),
(147,-12,o),
(231,-12,qs)
);
},
{
closed = 1;
nodes = (
(201,74,o),
(152,115,o),
(152,149,qs),
(152,184,o),
(207,224,o),
(264,224,qs),
(384,224,l),
(384,210,l),
(376,153,o),
(297,74,o),
(243,74,qs)
);
},
{
closed = 1;
nodes = (
(497,297,l),
(506,356,o),
(584,421,o),
(638,421,qs),
(692,421,o),
(765,354,o),
(769,297,q)
);
}
);
userData = {
assembly = "NPUSHB[ ]	/* 97 values pushed */
20 1 1 3 47 1 7 5 42 1 6 7 3 76 0 2 1 0 1 2 0 128 0 7 5 6 5 7 6 128 13 1 0 10 1 5 7 0 5 103 12 1 1 1 3 97 4 1 3 3 42 77 15 11 2 6 6 8 97 14 9 2 8 8 40 8 78 45 45 0 0 62 61 59 57 45 55 45 54 50 48 0 44 0 43 34 18 34 20 36 35 18 34 36 16 8 31
CALL[ ]	/* CallFunction */";
};
width = 907;
}
);
note = ae;
unicode = 230;
},
{
glyphname = b;
kernLeft = b;
kernRight = b;
layers = (
{
layerId = m01;
shapes = (
{
closed = 1;
nodes = (
(408,-12,o),
(516,57,o),
(575,176,o),
(575,249,qs),
(575,323,o),
(516,440,o),
(408,508,o),
(337,508,qs),
(279,508,o),
(190,461,o),
(163,420,q),
(163,700,l),
(57,700,l),
(57,0,l),
(159,0,l),
(163,76,l),
(190,33,o),
(281,-12,o),
(337,-12,qs)
);
},
{
closed = 1;
nodes = (
(249,81,o),
(164,176,o),
(164,248,qs),
(164,322,o),
(248,416,o),
(315,416,qs),
(382,416,o),
(467,324,o),
(467,249,qs),
(467,176,o),
(383,81,o),
(315,81,qs)
);
}
);
userData = {
assembly = "NPUSHB[ ]	/* 10 values pushed */
7 1 4 2 2 1 0 5 2 76
MPPEM[ ]	/* MeasurePixelPerEm */
PUSHB[ ]	/* 1 value pushed */
21
LT[ ]	/* LessThan */
IF[ ]	/* If */
NPUSHB[ ]	/* 29 values pushed */
0 1 1 33 77 0 4 4 2 97 0 2 2 42 77 7 1 5 5 0 97 6 3 2 0 0 34 0 78
ELSE[ ]	/* Else */
NPUSHB[ ]	/* 33 values pushed */
0 1 1 33 77 0 4 4 2 97 0 2 2 42 77 0 0 0 34 77 7 1 5 5 3 97 6 1 3 3 40 3 78
EIF[ ]	/* EndIf */
NPUSHB[ ]	/* 20 values pushed */
19 19 0 0 19 30 19 29 25 23 0 18 0 17 35 17 19 8 8 25
CALL[ ]	/* CallFunction */";
};
width = 613;
}
);
note = b;
unicode = 98;
},
{
glyphname = c;
kernLeft = c;
kernRight = c;
layers = (
{
anchors = (
{
name = bottom;
pos = (287,0);
},
{
name = top;
pos = (285,496);
}
);
layerId = m01;
shapes = (
{
closed = 1;
nodes = (
(376,-12,o),
(501,82,o),
(519,162,q),
(407,162,l),
(397,121,o),
(333,78,o),
(287,78,qs),
(223,78,o),
(147,174,o),
(147,248,qs),
(147,321,o),
(220,418,o),
(287,418,qs),
(333,418,o),
(398,372,o),
(407,335,q),
(519,335,l),
(500,417,o),
(377,508,o),
(288,508,qs),
(214,508,o),
(101,442,o),
(39,323,o),
(39,248,qs),
(39,172,o),
(102,53,o),
(216,-12,o),
(288,-12,qs)
);
}
);
userData = {
assembly = "NPUSHB[ ]	/* 51 values pushed */
0 1 2 4 2 1 4 128 0 4 3 2 4 3 126 0 2 2 0 97 0 0 0 42 77 0 3 3 5 97 6 1 5 5 40 5 78 0 0 0 27 0 26 18 36 34 18 38 7 8 27
CALL[ ]	/* CallFunction */";
};
width = 557;
}
);
note = c;
unicode = 99;
},
{
glyphname = ccedilla;
layers = (
{
anchors = (
{
name = bottom;
pos = (287,-261);
},
{
name = top;
pos = (285,496);
}
);
layerId = m01;
shapes = (
{
closed = 1;
nodes = (
(322,-261,ls),
(377,-261,o),
(448,-206,o),
(448,-157,qs),
(448,-107,o),
(375,-55,o),
(318,-56,q),
(318,-10,l),
(395,-2,o),
(503,89,o),
(519,162,q),
(407,162,l),
(397,121,o),
(333,78,o),
(287,78,qs),
(223,78,o),
(147,174,o),
(147,248,qs),
(147,321,o),
(220,418,o),
(287,418,qs),
(333,418,o),
(398,372,o),
(407,335,q),
(519,335,l),
(500,417,o),
(377,508,o),
(288,508,qs),
(214,508,o),
(101,442,o),
(39,323,o),
(39,248,qs),
(39,178,o),
(92,67,o),
(187,-2,o),
(250,-10,q),
(250,-115,l),
(305,-115,ls),
(366,-115,o),
(366,-155,qs),
(366,-197,o),
(305,-197,qs),
(203,-197,l),
(203,-261,l)
);
}
);
userData = {
assembly = "PUSHB[ ]	/* 7 values pushed */
35 7 2 7 5 1 76
MPPEM[ ]	/* MeasurePixelPerEm */
PUSHB[ ]	/* 1 value pushed */
9
LT[ ]	/* LessThan */
IF[ ]	/* If */
NPUSHB[ ]	/* 47 values pushed */
0 3 4 6 4 3 6 128 0 6 5 4 6 5 126 0 5 7 7 5 112 0 7 0 1 0 7 1 106 0 0 0 8 0 8 99 0 4 4 2 97 0 2 2 42 4 78
ELSE[ ]	/* Else */
NPUSHB[ ]	/* 48 values pushed */
0 3 4 6 4 3 6 128 0 6 5 4 6 5 126 0 5 7 4 5 7 126 0 7 0 1 0 7 1 106 0 0 0 8 0 8 99 0 4 4 2 97 0 2 2 42 4 78
EIF[ ]	/* EndIf */
NPUSHB[ ]	/* 12 values pushed */
36 20 18 36 34 18 40 34 32 9 8 31
CALL[ ]	/* CallFunction */";
};
width = 557;
}
);
note = ccedilla;
unicode = 231;
},
{
glyphname = d;
kernLeft = c;
layers = (
{
anchors = (
{
name = bottom;
pos = (307,0);
},
{
name = top;
pos = (307,992);
},
{
name = topright;
pos = (593,992);
}
);
layerId = m01;
shapes = (
{
closed = 1;
nodes = (
(334,-12,o),
(425,37,o),
(450,77,q),
(454,0,l),
(557,0,l),
(557,700,l),
(450,700,l),
(450,422,l),
(422,463,o),
(332,508,o),
(277,508,qs),
(205,508,o),
(97,440,o),
(39,322,o),
(39,250,qs),
(39,177,o),
(97,58,o),
(205,-12,o),
(277,-12,qs)
);
},
{
closed = 1;
nodes = (
(256,81,o),
(187,123,o),
(147,200,o),
(147,249,qs),
(147,323,o),
(232,416,o),
(297,416,qs),
(362,416,o),
(449,326,o),
(449,248,qs),
(449,175,o),
(367,81,o),
(298,81,qs)
);
}
);
userData = {
assembly = "NPUSHB[ ]	/* 10 values pushed */
10 1 4 0 15 1 2 5 2 76
MPPEM[ ]	/* MeasurePixelPerEm */
PUSHB[ ]	/* 1 value pushed */
21
LT[ ]	/* LessThan */
IF[ ]	/* If */
NPUSHB[ ]	/* 29 values pushed */
0 1 1 33 77 0 4 4 0 97 0 0 0 42 77 7 1 5 5 2 97 6 3 2 2 2 34 2 78
ELSE[ ]	/* Else */
NPUSHB[ ]	/* 33 values pushed */
0 1 1 33 77 0 4 4 0 97 0 0 0 42 77 0 2 2 34 77 7 1 5 5 3 97 6 1 3 3 40 3 78
EIF[ ]	/* EndIf */
NPUSHB[ ]	/* 20 values pushed */
19 19 0 0 19 31 19 30 25 23 0 18 0 17 17 19 38 8 8 25
CALL[ ]	/* CallFunction */";
};
width = 613;
}
);
note = d;
unicode = 100;
},
{
glyphname = dcroat;
kernLeft = c;
layers = (
{
layerId = m01;
shapes = (
{
closed = 1;
nodes = (
(334,-12,o),
(425,37,o),
(450,77,q),
(454,0,l),
(557,0,l),
(557,565,l),
(600,565,l),
(600,641,l),
(557,641,l),
(557,700,l),
(450,700,l),
(450,641,l),
(287,641,l),
(287,565,l),
(450,565,l),
(450,422,l),
(422,463,o),
(332,508,o),
(277,508,qs),
(205,508,o),
(97,440,o),
(39,322,o),
(39,250,qs),
(39,177,o),
(97,58,o),
(205,-12,o),
(277,-12,qs)
);
},
{
closed = 1;
nodes = (
(147,323,o),
(232,416,o),
(297,416,qs),
(362,416,o),
(449,326,o),
(449,248,qs),
(449,175,o),
(367,81,o),
(298,81,qs),
(256,81,o),
(187,123,o),
(147,200,o),
(147,249,qs)
);
}
);
userData = {
assembly = "NPUSHB[ ]	/* 10 values pushed */
10 1 9 0 23 1 6 8 2 76
MPPEM[ ]	/* MeasurePixelPerEm */
PUSHB[ ]	/* 1 value pushed */
21
LT[ ]	/* LessThan */
IF[ ]	/* If */
NPUSHB[ ]	/* 38 values pushed */
4 1 2 5 1 1 0 2 1 103 0 3 3 33 77 0 9 9 0 97 0 0 0 42 77 0 8 8 6 97 10 7 2 6 6 34 6 78
ELSE[ ]	/* Else */
NPUSHB[ ]	/* 42 values pushed */
4 1 2 5 1 1 0 2 1 103 0 3 3 33 77 0 9 9 0 97 0 0 0 42 77 0 6 6 34 77 0 8 8 7 97 10 1 7 7 40 7 78
EIF[ ]	/* EndIf */
NPUSHB[ ]	/* 20 values pushed */
0 0 37 35 31 29 0 26 0 25 17 17 17 17 17 19 38 11 8 29
CALL[ ]	/* CallFunction */";
};
width = 614;
}
);
note = dcroat;
unicode = 273;
},
{
glyphname = eth;
kernLeft = c;
layers = (
{
layerId = m01;
shapes = (
{
closed = 1;
nodes = (
(382,-12,o),
(443,25,qs),
(506,62,o),
(577,194,o),
(577,281,qs),
(577,371,o),
(517,540,o),
(457,614,q),
(537,642,l),
(537,709,l),
(411,666,l),
(394,684,o),
(374,700,q),
(271,700,l),
(306,672,o),
(334,640,q),
(248,611,l),
(248,544,l),
(378,588,l),
(432,517,o),
(459,443,q),
(397,505,o),
(298,505,qs),
(225,505,o),
(166,472,qs),
(107,438,o),
(39,320,o),
(39,247,qs),
(39,174,o),
(73,116,qs),
(108,57,o),
(229,-12,o),
(305,-12,qs)
);
},
{
closed = 1;
nodes = (
(264,79,o),
(191,122,o),
(148,199,o),
(148,249,qs),
(148,295,o),
(188,372,o),
(261,416,o),
(308,416,qs),
(348,416,o),
(422,377,o),
(469,301,o),
(469,248,qs),
(469,201,o),
(429,124,o),
(355,79,o),
(308,79,qs)
);
}
);
userData = {
assembly = "NPUSHB[ ]	/* 67 values pushed */
24 23 21 16 15 14 13 7 0 1 11 1 3 0 2 76 22 1 1 74 0 1 1 33 77 0 3 3 0 97 0 0 0 42 77 6 1 4 4 2 97 5 1 2 2 40 2 78 33 33 0 0 33 48 33 47 41 39 0 32 0 31 24 40 7 8 24
CALL[ ]	/* CallFunction */";
};
width = 616;
}
);
note = eth;
unicode = 240;
},
{
glyphname = e;
kernLeft = c;
kernRight = ae;
layers = (
{
anchors = (
{
name = bottom;
pos = (285,0);
},
{
name = ogonek;
pos = (393,10);
},
{
name = top;
pos = (283,496);
}
);
layerId = m01;
shapes = (
{
closed = 1;
nodes = (
(375,-12,o),
(493,79,o),
(515,151,q),
(405,151,l),
(390,115,o),
(329,76,o),
(286,76,qs),
(226,76,o),
(149,156,o),
(145,220,q),
(526,220,l),
(529,247,o),
(529,268,qs),
(529,336,o),
(468,446,o),
(358,508,o),
(288,508,qs),
(214,508,o),
(101,443,o),
(39,326,o),
(39,248,qs),
(39,172,o),
(102,54,o),
(214,-12,o),
(287,-12,qs)
);
},
{
closed = 1;
nodes = (
(146,295,l),
(153,355,o),
(232,420,o),
(285,420,qs),
(342,420,o),
(419,352,o),
(421,295,q)
);
}
);
userData = {
assembly = "NPUSHB[ ]	/* 55 values pushed */
0 3 1 2 1 3 2 128 0 6 0 1 3 6 1 103 0 5 5 0 97 0 0 0 42 77 0 2 2 4 97 7 1 4 4 40 4 78 0 0 31 30 28 26 0 24 0 23 18 34 21 38 8 8 26
CALL[ ]	/* CallFunction */";
};
width = 561;
}
);
note = e;
unicode = 101;
},
{
glyphname = eogonek;
kernLeft = c;
kernRight = ae;
layers = (
{
anchors = (
{
name = bottom;
pos = (285,0);
},
{
name = ogonek;
pos = (393,10);
},
{
name = top;
pos = (283,496);
}
);
layerId = m01;
shapes = (
{
closed = 1;
nodes = (
(146,295,l),
(153,355,o),
(232,420,o),
(285,420,qs),
(342,420,o),
(419,352,o),
(421,295,q)
);
},
{
closed = 1;
nodes = (
(356,-196,o),
(397,-183,q),
(397,-117,l),
(360,-132,o),
(329,-132,qs),
(303,-132,o),
(273,-108,o),
(273,-87,qs),
(273,-68,o),
(303,-34,o),
(338,-17,qs),
(385,6,ls),
(434,26,o),
(500,102,o),
(515,151,q),
(405,151,l),
(390,115,o),
(329,76,o),
(286,76,qs),
(226,76,o),
(149,156,o),
(145,220,q),
(526,220,l),
(529,247,o),
(529,268,qs),
(529,336,o),
(468,446,o),
(358,508,o),
(288,508,qs),
(214,508,o),
(101,443,o),
(39,326,o),
(39,248,qs),
(39,147,o),
(147,9,o),
(237,-8,q),
(190,-47,o),
(190,-97,qs),
(190,-146,o),
(262,-196,o),
(316,-196,qs)
);
}
);
userData = {
assembly = "NPUSHB[ ]	/* 11 values pushed */
44 11 2 6 4 45 1 7 6 2 76
MPPEM[ ]	/* MeasurePixelPerEm */
PUSHB[ ]	/* 1 value pushed */
21
LT[ ]	/* LessThan */
IF[ ]	/* If */
NPUSHB[ ]	/* 45 values pushed */
0 5 3 4 3 5 4 128 0 4 6 3 4 6 126 0 1 0 3 5 1 3 103 0 0 0 2 97 0 2 2 42 77 0 6 6 7 98 8 1 7 7 38 7 78
ELSE[ ]	/* Else */
NPUSHB[ ]	/* 42 values pushed */
0 5 3 4 3 5 4 128 0 4 6 3 4 6 126 0 1 0 3 5 1 3 103 0 6 8 1 7 6 7 102 0 0 0 2 97 0 2 2 42 0 78
EIF[ ]	/* EndIf */
NPUSHB[ ]	/* 16 values pushed */
7 7 7 47 7 46 41 18 34 21 43 18 33 9 8 29
CALL[ ]	/* CallFunction */";
};
width = 561;
}
);
note = eogonek;
unicode = 281;
},
{
glyphname = uni0259;
kernLeft = c;
kernRight = b;
layers = (
{
layerId = m01;
shapes = (
{
closed = 1;
nodes = (
(347,-12,o),
(460,53,o),
(523,171,o),
(523,248,qs),
(523,323,o),
(462,441,o),
(349,508,o),
(274,508,qs),
(187,508,o),
(68,417,o),
(46,345,q),
(156,345,l),
(172,381,o),
(233,420,o),
(276,420,qs),
(335,420,o),
(412,342,o),
(417,277,q),
(35,277,l),
(33,259,o),
(33,229,qs),
(33,160,o),
(94,51,o),
(203,-12,o),
(273,-12,qs)
);
},
{
closed = 1;
nodes = (
(219,76,o),
(142,145,o),
(140,202,q),
(416,202,l),
(409,141,o),
(330,76,o),
(276,76,qs)
);
}
);
userData = {
assembly = "NPUSHB[ ]	/* 60 values pushed */
0 2 1 0 1 2 0 128 0 0 0 5 6 0 5 103 0 1 1 3 97 0 3 3 42 77 8 1 6 6 4 97 7 1 4 4 40 4 78 25 25 0 0 25 31 25 30 28 27 0 24 0 23 34 18 34 21 9 8 26
CALL[ ]	/* CallFunction */";
};
width = 561;
}
);
note = uni0259;
unicode = 601;
},
{
glyphname = f;
kernLeft = f;
kernRight = f;
layers = (
{
layerId = m01;
shapes = (
{
closed = 1;
nodes = (
(183,0,l),
(183,407,l),
(289,407,l),
(289,496,l),
(183,496,l),
(183,547,ls),
(183,581,o),
(213,610,o),
(249,610,qs),
(278,610,l),
(278,700,l),
(232,700,ls),
(156,700,o),
(77,627,o),
(77,548,qs),
(77,496,l),
(11,496,l),
(11,407,l),
(77,407,l),
(77,0,l)
);
}
);
userData = {
assembly = "NPUSHB[ ]	/* 38 values pushed */
0 3 3 2 97 0 2 2 33 77 5 1 0 0 1 95 4 1 1 1 36 77 0 6 6 34 6 78 17 17 19 33 35 17 16 7 8 29
CALL[ ]	/* CallFunction */";
};
width = 321;
}
);
note = f;
unicode = 102;
},
{
glyphname = g;
kernLeft = g;
kernRight = g;
layers = (
{
anchors = (
{
name = bottom;
pos = (264,-310);
},
{
name = top;
pos = (254,496);
}
);
layerId = m01;
shapes = (
{
closed = 1;
nodes = (
(328,-232,o),
(432,-192,o),
(494,-115,o),
(494,-62,qs),
(494,17,o),
(394,92,o),
(304,92,qs),
(217,92,ls),
(177,92,o),
(138,115,o),
(138,139,qs),
(138,150,o),
(151,171,o),
(162,176,q),
(204,155,o),
(254,155,qs),
(310,155,o),
(401,198,o),
(454,279,o),
(454,332,qs),
(454,371,o),
(434,413,q),
(507,413,l),
(507,496,l),
(333,496,l),
(297,508,o),
(254,508,qs),
(166,508,o),
(54,413,o),
(54,332,qs),
(54,265,o),
(99,217,q),
(41,180,o),
(41,118,qs),
(41,61,o),
(94,31,q),
(62,13,o),
(29,-39,o),
(29,-76,qs),
(29,-156,o),
(161,-232,o),
(265,-232,qs)
);
},
{
closed = 1;
nodes = (
(204,-147,o),
(128,-110,o),
(128,-70,qs),
(128,-35,o),
(177,2,o),
(222,2,qs),
(301,2,ls),
(394,2,o),
(394,-70,qs),
(394,-107,o),
(321,-147,o),
(264,-147,qs)
);
},
{
closed = 1;
nodes = (
(207,240,o),
(153,291,o),
(153,332,qs),
(153,372,o),
(208,423,o),
(253,423,qs),
(298,423,o),
(355,371,o),
(355,332,qs),
(355,291,o),
(298,240,o),
(253,240,qs)
);
}
);
userData = {
assembly = "NPUSHB[ ]	/* 11 values pushed */
27 9 2 3 9 5 1 6 4 2 76
MPPEM[ ]	/* MeasurePixelPerEm */
PUSHB[ ]	/* 1 value pushed */
21
LT[ ]	/* LessThan */
IF[ ]	/* If */
NPUSHB[ ]	/* 44 values pushed */
12 1 9 0 3 4 9 3 105 8 1 2 2 0 97 1 1 0 0 42 77 0 4 4 6 95 0 6 6 34 77 11 1 7 7 5 97 10 1 5 5 38 5 78
ELSE[ ]	/* Else */
MPPEM[ ]	/* MeasurePixelPerEm */
PUSHB[ ]	/* 1 value pushed */
25
LT[ ]	/* LessThan */
IF[ ]	/* If */
NPUSHB[ ]	/* 54 values pushed */
12 1 9 0 3 4 9 3 105 8 1 2 2 0 97 0 0 0 42 77 8 1 2 2 1 95 0 1 1 36 77 0 4 4 6 95 0 6 6 34 77 11 1 7 7 5 97 10 1 5 5 38 5 78
ELSE[ ]	/* Else */
MPPEM[ ]	/* MeasurePixelPerEm */
PUSHB[ ]	/* 1 value pushed */
41
LT[ ]	/* LessThan */
IF[ ]	/* If */
NPUSHB[ ]	/* 52 values pushed */
12 1 9 0 3 4 9 3 105 0 8 8 0 97 0 0 0 42 77 0 2 2 1 95 0 1 1 36 77 0 4 4 6 95 0 6 6 34 77 11 1 7 7 5 97 10 1 5 5 38 5 78
ELSE[ ]	/* Else */
NPUSHB[ ]	/* 49 values pushed */
12 1 9 0 3 4 9 3 105 11 1 7 10 1 5 7 5 101 0 8 8 0 97 0 0 0 42 77 0 2 2 1 95 0 1 1 36 77 0 4 4 6 95 0 6 6 34 6 78
EIF[ ]	/* EndIf */
EIF[ ]	/* EndIf */
EIF[ ]	/* EndIf */
NPUSHB[ ]	/* 30 values pushed */
54 54 42 42 0 0 54 65 54 64 60 58 42 53 42 52 48 45 0 41 0 40 54 37 17 17 45 13 8 27
CALL[ ]	/* CallFunction */";
};
width = 528;
}
);
note = g;
unicode = 103;
},
{
glyphname = h;
kernLeft = b;
kernRight = a;
layers = (
{
layerId = m01;
shapes = (
{
closed = 1;
nodes = (
(163,0,l),
(163,266,ls),
(163,337,o),
(235,418,o),
(296,418,qs),
(354,418,o),
(415,345,o),
(415,278,qs),
(415,0,l),
(520,0,l),
(520,291,ls),
(520,396,o),
(415,508,o),
(327,508,qs),
(276,508,o),
(187,465,o),
(163,425,q),
(163,700,l),
(57,700,l),
(57,0,l)
);
}
);
userData = {
assembly = "NPUSHB[ ]	/* 36 values pushed */
2 1 3 1 1 76 0 0 0 33 77 0 3 3 1 97 0 1 1 42 77 4 1 2 2 34 2 78 19 35 19 35 16 5 8 27
CALL[ ]	/* CallFunction */";
};
width = 567;
}
);
note = h;
unicode = 104;
},
{
glyphname = hbar;
layers = (
{
layerId = m01;
shapes = (
{
closed = 1;
nodes = (
(163,0,l),
(163,266,ls),
(163,337,o),
(235,418,o),
(296,418,qs),
(354,418,o),
(415,345,o),
(415,278,qs),
(415,0,l),
(520,0,l),
(520,291,ls),
(520,396,o),
(415,508,o),
(327,508,qs),
(276,508,o),
(187,465,o),
(163,425,q),
(163,565,l),
(327,565,l),
(327,641,l),
(163,641,l),
(163,700,l),
(57,700,l),
(57,641,l),
(14,641,l),
(14,565,l),
(57,565,l),
(57,0,l)
);
}
);
userData = {
assembly = "NPUSHB[ ]	/* 50 values pushed */
10 1 7 5 1 76 3 1 1 4 1 0 5 1 0 103 0 2 2 33 77 0 7 7 5 97 0 5 5 42 77 8 1 6 6 34 6 78 19 35 19 35 17 17 17 17 16 9 8 31
CALL[ ]	/* CallFunction */";
};
width = 567;
}
);
note = hbar;
unicode = 295;
},
{
glyphname = i;
kernLeft = i;
kernRight = i;
layers = (
{
anchors = (
{
name = bottom;
pos = (117,0);
}
);
layerId = m01;
shapes = (
{
closed = 1;
nodes = (
(147,583,o),
(188,624,o),
(188,654,qs),
(188,683,o),
(147,723,o),
(117,723,qs),
(88,723,o),
(47,683,o),
(47,654,qs),
(47,624,o),
(88,583,o),
(117,583,qs)
);
},
{
closed = 1;
nodes = (
(170,0,l),
(170,496,l),
(64,496,l),
(64,0,l)
);
}
);
userData = {
assembly = "MPPEM[ ]	/* MeasurePixelPerEm */
PUSHB[ ]	/* 1 value pushed */
33
LT[ ]	/* LessThan */
IF[ ]	/* If */
NPUSHB[ ]	/* 22 values pushed */
4 1 1 1 0 97 0 0 0 41 77 0 2 2 36 77 0 3 3 34 3 78
ELSE[ ]	/* Else */
MPPEM[ ]	/* MeasurePixelPerEm */
PUSHB[ ]	/* 1 value pushed */
45
LT[ ]	/* LessThan */
IF[ ]	/* If */
NPUSHB[ ]	/* 22 values pushed */
4 1 1 1 0 97 0 0 0 39 77 0 2 2 36 77 0 3 3 34 3 78
ELSE[ ]	/* Else */
NPUSHB[ ]	/* 20 values pushed */
0 0 4 1 1 2 0 1 105 0 2 2 36 77 0 3 3 34 3 78
EIF[ ]	/* EndIf */
EIF[ ]	/* EndIf */
NPUSHB[ ]	/* 14 values pushed */
0 0 15 14 13 12 0 11 0 10 36 5 8 23
CALL[ ]	/* CallFunction */";
};
width = 233;
}
);
note = i;
unicode = 105;
},
{
glyphname = dotlessi;
kernLeft = dotlessi;
layers = (
{
anchors = (
{
name = bottom;
pos = (111,0);
},
{
name = ogonek;
pos = (163,0);
},
{
name = top;
pos = (111,496);
}
);
layerId = m01;
shapes = (
{
closed = 1;
nodes = (
(163,0,l),
(163,496,l),
(57,496,l),
(57,0,l)
);
}
);
userData = {
assembly = "NPUSHB[ ]	/* 16 values pushed */
0 0 0 36 77 0 1 1 34 1 78 17 16 2 8 24
CALL[ ]	/* CallFunction */";
};
width = 221;
}
);
note = dotlessi;
unicode = 305;
},
{
glyphname = iogonek;
kernLeft = dotlessi;
layers = (
{
anchors = (
{
name = bottom;
pos = (111,0);
},
{
name = ogonek;
pos = (163,0);
},
{
name = top;
pos = (111,723);
}
);
layerId = m01;
shapes = (
{
closed = 1;
nodes = (
(140,583,o),
(181,624,o),
(181,654,qs),
(181,683,o),
(140,723,o),
(111,723,qs),
(81,723,o),
(40,683,o),
(40,654,qs),
(40,624,o),
(81,583,o),
(111,583,qs)
);
},
{
closed = 1;
nodes = (
(127,-206,o),
(168,-193,q),
(168,-127,l),
(131,-142,o),
(100,-142,qs),
(74,-142,o),
(44,-118,o),
(44,-97,qs),
(44,-78,o),
(74,-44,o),
(109,-27,qs),
(164,0,l),
(163,2,l),
(163,496,l),
(57,496,l),
(57,15,l),
(6,-12,o),
(-39,-72,o),
(-39,-107,qs),
(-39,-156,o),
(33,-206,o),
(87,-206,qs)
);
}
);
userData = {
assembly = "NPUSHB[ ]	/* 12 values pushed */
30 20 17 3 3 2 31 1 4 3 2 76
MPPEM[ ]	/* MeasurePixelPerEm */
PUSHB[ ]	/* 1 value pushed */
33
LT[ ]	/* LessThan */
IF[ ]	/* If */
NPUSHB[ ]	/* 28 values pushed */
5 1 1 1 0 97 0 0 0 41 77 0 2 2 36 77 0 3 3 4 98 6 1 4 4 38 4 78
ELSE[ ]	/* Else */
MPPEM[ ]	/* MeasurePixelPerEm */
PUSHB[ ]	/* 1 value pushed */
35
LT[ ]	/* LessThan */
IF[ ]	/* If */
NPUSHB[ ]	/* 28 values pushed */
5 1 1 1 0 97 0 0 0 39 77 0 2 2 36 77 0 3 3 4 98 6 1 4 4 38 4 78
ELSE[ ]	/* Else */
MPPEM[ ]	/* MeasurePixelPerEm */
PUSHB[ ]	/* 1 value pushed */
45
LT[ ]	/* LessThan */
IF[ ]	/* If */
NPUSHB[ ]	/* 25 values pushed */
0 3 6 1 4 3 4 102 5 1 1 1 0 97 0 0 0 39 77 0 2 2 36 2 78
ELSE[ ]	/* Else */
NPUSHB[ ]	/* 23 values pushed */
0 0 5 1 1 2 0 1 105 0 3 6 1 4 3 4 102 0 2 2 36 2 78
EIF[ ]	/* EndIf */
EIF[ ]	/* EndIf */
EIF[ ]	/* EndIf */
NPUSHB[ ]	/* 20 values pushed */
12 12 0 0 12 33 12 32 29 27 19 18 0 11 0 10 36 7 8 23
CALL[ ]	/* CallFunction */";
};
width = 221;
}
);
note = iogonek;
unicode = 303;
},
{
glyphname = j;
kernLeft = j;
layers = (
{
layerId = m01;
shapes = (
{
closed = 1;
nodes = (
(17,-220,ls),
(172,-220,o),
(172,-68,qs),
(172,496,l),
(66,496,l),
(66,-67,ls),
(66,-100,o),
(35,-129,o),
(1,-129,qs),
(-32,-129,l),
(-32,-220,l)
);
},
{
closed = 1;
nodes = (
(149,583,o),
(190,624,o),
(190,654,qs),
(190,683,o),
(149,723,o),
(120,723,qs),
(91,723,o),
(50,683,o),
(50,654,qs),
(50,624,o),
(91,583,o),
(120,583,qs)
);
}
);
userData = {
assembly = "MPPEM[ ]	/* MeasurePixelPerEm */
PUSHB[ ]	/* 1 value pushed */
33
LT[ ]	/* LessThan */
IF[ ]	/* If */
NPUSHB[ ]	/* 27 values pushed */
5 1 4 4 3 97 0 3 3 41 77 0 1 1 36 77 0 0 0 2 98 0 2 2 38 2 78
ELSE[ ]	/* Else */
MPPEM[ ]	/* MeasurePixelPerEm */
PUSHB[ ]	/* 1 value pushed */
45
LT[ ]	/* LessThan */
IF[ ]	/* If */
NPUSHB[ ]	/* 27 values pushed */
5 1 4 4 3 97 0 3 3 39 77 0 1 1 36 77 0 0 0 2 98 0 2 2 38 2 78
ELSE[ ]	/* Else */
NPUSHB[ ]	/* 25 values pushed */
0 3 5 1 4 1 3 4 105 0 1 1 36 77 0 0 0 2 98 0 2 2 38 2 78
EIF[ ]	/* EndIf */
EIF[ ]	/* EndIf */
NPUSHB[ ]	/* 13 values pushed */
11 11 11 22 11 21 37 34 19 32 6 8 26
CALL[ ]	/* CallFunction */";
};
width = 235;
}
);
note = j;
unicode = 106;
},
{
glyphname = uni0237;
layers = (
{
anchors = (
{
name = bottom;
pos = (118,-310);
},
{
name = top;
pos = (118,496);
}
);
layerId = m01;
shapes = (
{
closed = 1;
nodes = (
(17,-220,ls),
(172,-220,o),
(172,-68,qs),
(172,496,l),
(66,496,l),
(66,-67,ls),
(66,-100,o),
(35,-129,o),
(1,-129,qs),
(-32,-129,l),
(-32,-220,l)
);
}
);
userData = {
assembly = "NPUSHB[ ]	/* 22 values pushed */
0 1 1 36 77 0 0 0 2 98 0 2 2 38 2 78 34 19 32 3 8 25
CALL[ ]	/* CallFunction */";
};
width = 235;
}
);
note = uni0237;
unicode = 567;
},
{
glyphname = k;
kernLeft = b;
kernRight = k;
layers = (
{
anchors = (
{
name = bottom;
pos = (257,0);
},
{
name = top;
pos = (257,992);
}
);
layerId = m01;
shapes = (
{
closed = 1;
nodes = (
(163,0,l),
(163,234,l),
(361,0,l),
(497,0,l),
(262,260,l),
(481,496,l),
(347,496,l),
(163,287,l),
(163,700,l),
(57,700,l),
(57,0,l)
);
}
);
userData = {
assembly = "NPUSHB[ ]	/* 32 values pushed */
8 5 2 3 2 1 1 76 0 0 0 33 77 0 1 1 36 77 3 1 2 2 34 2 78 18 18 18 16 4 8 26
CALL[ ]	/* CallFunction */";
};
width = 514;
}
);
note = k;
unicode = 107;
},
{
glyphname = l;
kernLeft = b;
kernRight = l;
layers = (
{
anchors = (
{
name = bottom;
pos = (111,0);
},
{
name = top;
pos = (111,700);
},
{
name = topright;
pos = (202,992);
}
);
layerId = m01;
shapes = (
{
closed = 1;
nodes = (
(163,0,l),
(163,700,l),
(57,700,l),
(57,0,l)
);
}
);
userData = {
assembly = "NPUSHB[ ]	/* 16 values pushed */
0 0 0 33 77 0 1 1 34 1 78 17 16 2 8 24
CALL[ ]	/* CallFunction */";
};
width = 221;
}
);
note = l;
unicode = 108;
},
{
glyphname = ldot;
kernLeft = b;
layers = (
{
layerId = m01;
shapes = (
{
closed = 1;
nodes = (
(170,0,l),
(170,700,l),
(64,700,l),
(64,0,l)
);
},
{
closed = 1;
nodes = (
(312,311,o),
(344,343,o),
(344,366,qs),
(344,390,o),
(312,423,o),
(288,423,qs),
(265,423,o),
(232,390,o),
(232,366,qs),
(232,343,o),
(265,311,o),
(288,311,qs)
);
}
);
userData = {
assembly = "NPUSHB[ ]	/* 32 values pushed */
0 2 4 1 3 1 2 3 105 0 0 0 33 77 0 1 1 34 1 78 4 4 4 15 4 14 37 17 16 5 8 25
CALL[ ]	/* CallFunction */";
};
width = 350;
}
);
note = ldot;
unicode = 320;
},
{
glyphname = lslash;
kernLeft = b;
kernRight = lslash;
layers = (
{
layerId = m01;
shapes = (
{
closed = 1;
nodes = (
(186,0,l),
(186,379,l),
(259,406,l),
(259,494,l),
(186,466,l),
(186,700,l),
(80,700,l),
(80,427,l),
(9,399,l),
(9,312,l),
(80,339,l),
(80,0,l)
);
}
);
userData = {
assembly = "NPUSHB[ ]	/* 29 values pushed */
9 8 7 6 3 2 1 0 8 1 0 1 76 0 0 0 33 77 0 1 1 34 1 78 21 20 2 8 24
CALL[ ]	/* CallFunction */";
};
width = 284;
}
);
note = lslash;
unicode = 322;
},
{
glyphname = m;
kernLeft = dotlessi;
kernRight = a;
layers = (
{
layerId = m01;
shapes = (
{
closed = 1;
nodes = (
(163,0,l),
(163,266,ls),
(163,339,o),
(233,417,o),
(288,417,qs),
(343,417,o),
(403,345,o),
(403,278,qs),
(403,0,l),
(508,0,l),
(508,266,ls),
(508,337,o),
(575,417,o),
(633,417,qs),
(690,417,o),
(748,345,o),
(748,278,qs),
(748,0,l),
(853,0,l),
(853,292,ls),
(853,398,o),
(744,508,o),
(654,508,qs),
(601,508,o),
(510,457,o),
(485,411,q),
(461,459,o),
(371,508,o),
(312,508,qs),
(264,508,o),
(186,469,o),
(162,432,q),
(159,496,l),
(57,496,l),
(57,0,l)
);
}
);
userData = {
assembly = "NPUSHB[ ]	/* 10 values pushed */
2 1 4 0 8 1 3 4 2 76
MPPEM[ ]	/* MeasurePixelPerEm */
PUSHB[ ]	/* 1 value pushed */
21
LT[ ]	/* LessThan */
IF[ ]	/* If */
NPUSHB[ ]	/* 21 values pushed */
6 1 4 4 0 97 2 1 2 0 0 36 77 7 5 2 3 3 34 3 78
ELSE[ ]	/* Else */
NPUSHB[ ]	/* 25 values pushed */
0 0 0 36 77 6 1 4 4 1 97 2 1 1 1 42 77 7 5 2 3 3 34 3 78
EIF[ ]	/* EndIf */
NPUSHB[ ]	/* 11 values pushed */
19 35 19 35 19 36 35 16 8 8 30
CALL[ ]	/* CallFunction */";
};
width = 901;
}
);
note = m;
unicode = 109;
},
{
glyphname = n;
kernLeft = dotlessi;
kernRight = a;
layers = (
{
anchors = (
{
name = bottom;
pos = (295,0);
},
{
name = top;
pos = (296,496);
}
);
layerId = m01;
shapes = (
{
closed = 1;
nodes = (
(163,0,l),
(163,266,ls),
(163,337,o),
(234,418,o),
(294,418,qs),
(353,418,o),
(414,345,o),
(414,278,qs),
(414,0,l),
(520,0,l),
(520,291,ls),
(520,396,o),
(415,508,o),
(325,508,qs),
(274,508,o),
(185,463,o),
(161,423,q),
(159,496,l),
(57,496,l),
(57,0,l)
);
}
);
userData = {
assembly = "PUSHB[ ]	/* 6 values pushed */
2 1 3 0 1 76
MPPEM[ ]	/* MeasurePixelPerEm */
PUSHB[ ]	/* 1 value pushed */
21
LT[ ]	/* LessThan */
IF[ ]	/* If */
NPUSHB[ ]	/* 18 values pushed */
0 3 3 0 97 1 1 0 0 36 77 4 1 2 2 34 2 78
ELSE[ ]	/* Else */
NPUSHB[ ]	/* 22 values pushed */
0 0 0 36 77 0 3 3 1 97 0 1 1 42 77 4 1 2 2 34 2 78
EIF[ ]	/* EndIf */
PUSHB[ ]	/* 8 values pushed */
19 35 19 35 16 5 8 27
CALL[ ]	/* CallFunction */";
};
width = 568;
}
);
note = n;
unicode = 110;
},
{
glyphname = eng;
kernLeft = dotlessi;
kernRight = a;
layers = (
{
layerId = m01;
shapes = (
{
closed = 1;
nodes = (
(365,-220,ls),
(520,-220,o),
(520,-68,qs),
(520,291,ls),
(520,396,o),
(415,508,o),
(325,508,qs),
(274,508,o),
(185,463,o),
(161,423,q),
(159,496,l),
(57,496,l),
(57,0,l),
(163,0,l),
(163,266,ls),
(163,337,o),
(234,418,o),
(294,418,qs),
(353,418,o),
(414,345,o),
(414,278,qs),
(414,-67,ls),
(414,-100,o),
(383,-129,o),
(349,-129,qs),
(315,-129,l),
(315,-220,l)
);
}
);
userData = {
assembly = "PUSHB[ ]	/* 6 values pushed */
16 1 1 3 1 76
MPPEM[ ]	/* MeasurePixelPerEm */
PUSHB[ ]	/* 1 value pushed */
21
LT[ ]	/* LessThan */
IF[ ]	/* If */
NPUSHB[ ]	/* 27 values pushed */
0 1 1 3 97 4 1 3 3 36 77 0 2 2 34 77 0 0 0 5 97 0 5 5 38 5 78
ELSE[ ]	/* Else */
NPUSHB[ ]	/* 31 values pushed */
0 3 3 36 77 0 1 1 4 97 0 4 4 42 77 0 2 2 34 77 0 0 0 5 97 0 5 5 38 5 78
EIF[ ]	/* EndIf */
NPUSHB[ ]	/* 9 values pushed */
36 35 17 19 37 32 6 8 28
CALL[ ]	/* CallFunction */";
};
width = 567;
}
);
note = eng;
unicode = 331;
},
{
glyphname = o;
kernLeft = c;
kernRight = b;
layers = (
{
anchors = (
{
name = bottom;
pos = (297,0);
},
{
name = ogonek;
pos = (405,10);
},
{
name = top;
pos = (297,496);
},
{
name = topright;
pos = (572,496);
}
);
layerId = m01;
shapes = (
{
closed = 1;
nodes = (
(369,-12,o),
(488,55,o),
(555,174,o),
(555,249,qs),
(555,327,o),
(487,445,o),
(369,508,o),
(297,508,qs),
(224,508,o),
(107,445,o),
(39,327,o),
(39,249,qs),
(39,170,o),
(105,52,o),
(221,-12,o),
(293,-12,qs)
);
},
{
closed = 1;
nodes = (
(254,80,o),
(186,119,o),
(146,196,o),
(146,249,qs),
(146,322,o),
(226,416,o),
(295,416,qs),
(362,416,o),
(447,325,o),
(447,250,qs),
(447,201,o),
(407,124,o),
(338,80,o),
(294,80,qs)
);
}
);
userData = {
assembly = "NPUSHB[ ]	/* 41 values pushed */
0 2 2 0 97 0 0 0 42 77 5 1 3 3 1 97 4 1 1 1 40 1 78 16 16 0 0 16 29 16 28 23 21 0 15 0 14 38 6 8 23
CALL[ ]	/* CallFunction */";
};
width = 593;
}
);
note = o;
unicode = 111;
},
{
glyphname = oslash;
layers = (
{
layerId = m01;
shapes = (
{
closed = 1;
nodes = (
(370,-12,o),
(487,54,o),
(552,173,o),
(552,248,qs),
(552,350,o),
(494,421,q),
(560,496,l),
(469,496,l),
(443,466,l),
(382,508,o),
(298,508,qs),
(227,508,o),
(110,444,o),
(42,326,o),
(42,248,qs),
(42,144,o),
(100,75,q),
(35,0,l),
(126,0,l),
(151,29,l),
(212,-12,o),
(295,-12,qs)
);
},
{
closed = 1;
nodes = (
(251,79,o),
(216,103,q),
(424,341,l),
(445,302,o),
(445,249,qs),
(445,177,o),
(363,79,o),
(296,79,qs)
);
},
{
closed = 1;
nodes = (
(170,155,l),
(149,195,o),
(149,248,qs),
(149,322,o),
(228,418,o),
(297,418,qs),
(342,418,o),
(378,393,q)
);
}
);
userData = {
assembly = "MPPEM[ ]	/* MeasurePixelPerEm */
PUSHB[ ]	/* 1 value pushed */
21
LT[ ]	/* LessThan */
IF[ ]	/* If */
NPUSHB[ ]	/* 19 values pushed */
15 12 2 5 1 37 36 27 26 4 4 5 4 1 2 0 4 3 76
ELSE[ ]	/* Else */
NPUSHB[ ]	/* 19 values pushed */
15 12 2 5 2 37 36 27 26 4 4 5 4 1 2 0 4 3 76
EIF[ ]	/* EndIf */
MPPEM[ ]	/* MeasurePixelPerEm */
PUSHB[ ]	/* 1 value pushed */
21
LT[ ]	/* LessThan */
IF[ ]	/* If */
NPUSHB[ ]	/* 25 values pushed */
0 5 5 1 97 2 1 1 1 42 77 7 1 4 4 0 97 6 3 2 0 0 34 0 78
ELSE[ ]	/* Else */
NPUSHB[ ]	/* 33 values pushed */
0 2 2 36 77 0 5 5 1 97 0 1 1 42 77 0 0 0 34 77 7 1 4 4 3 97 6 1 3 3 40 3 78
EIF[ ]	/* EndIf */
NPUSHB[ ]	/* 20 values pushed */
22 22 0 0 32 30 22 29 22 28 0 21 0 20 18 38 18 8 8 25
CALL[ ]	/* CallFunction */";
};
width = 592;
}
);
note = oslash;
unicode = 248;
},
{
glyphname = oe;
kernLeft = c;
kernRight = ae;
layers = (
{
layerId = m01;
shapes = (
{
closed = 1;
nodes = (
(352,-12,o),
(452,41,o),
(482,90,q),
(515,41,o),
(618,-12,o),
(683,-12,qs),
(769,-12,o),
(889,79,o),
(912,151,q),
(806,151,l),
(789,116,o),
(726,76,o),
(683,76,qs),
(622,76,o),
(541,156,o),
(537,223,q),
(923,223,l),
(925,271,ls),
(925,336,o),
(895,390,qs),
(864,445,o),
(756,508,o),
(684,508,qs),
(619,508,o),
(514,454,o),
(482,406,q),
(452,455,o),
(354,508,o),
(291,508,qs),
(221,508,o),
(163,476,qs),
(105,442,o),
(39,325,o),
(39,248,qs),
(39,171,o),
(72,112,qs),
(105,53,o),
(219,-12,o),
(289,-12,qs)
);
},
{
closed = 1;
nodes = (
(227,80,o),
(147,171,o),
(147,248,qs),
(147,324,o),
(225,417,o),
(291,417,qs),
(352,417,o),
(433,325,o),
(433,248,qs),
(433,173,o),
(354,80,o),
(289,80,qs)
);
},
{
closed = 1;
nodes = (
(540,296,l),
(547,355,o),
(627,421,o),
(683,421,qs),
(740,421,o),
(816,353,o),
(819,296,q)
);
}
);
userData = {
assembly = "NPUSHB[ ]	/* 80 values pushed */
12 1 10 7 35 1 3 4 2 76 0 4 2 3 2 4 3 128 0 10 0 2 4 10 2 103 9 1 7 7 0 97 1 1 0 0 42 77 12 8 2 3 3 5 97 11 6 2 5 5 40 5 78 39 39 0 0 57 56 54 52 39 50 39 49 45 43 0 38 0 37 34 18 34 21 36 40 13 8 28
CALL[ ]	/* CallFunction */";
};
width = 957;
}
);
note = oe;
unicode = 339;
},
{
glyphname = p;
kernLeft = p;
kernRight = b;
layers = (
{
layerId = m01;
shapes = (
{
closed = 1;
nodes = (
(163,-220,l),
(163,76,l),
(187,37,o),
(278,-12,o),
(337,-12,qs),
(408,-12,o),
(516,57,o),
(575,176,o),
(575,249,qs),
(575,322,o),
(517,440,o),
(409,508,o),
(337,508,qs),
(280,508,o),
(191,461,o),
(163,421,q),
(159,496,l),
(57,496,l),
(57,-220,l)
);
},
{
closed = 1;
nodes = (
(248,81,o),
(164,176,o),
(164,248,qs),
(164,322,o),
(249,416,o),
(315,416,qs),
(382,416,o),
(467,324,o),
(467,249,qs),
(467,176,o),
(383,81,o),
(315,81,qs)
);
}
);
userData = {
assembly = "NPUSHB[ ]	/* 10 values pushed */
2 1 4 0 16 1 2 5 2 76
MPPEM[ ]	/* MeasurePixelPerEm */
PUSHB[ ]	/* 1 value pushed */
21
LT[ ]	/* LessThan */
IF[ ]	/* If */
NPUSHB[ ]	/* 28 values pushed */
0 4 4 0 97 1 1 0 0 36 77 6 1 5 5 2 97 0 2 2 40 77 0 3 3 38 3 78
ELSE[ ]	/* Else */
NPUSHB[ ]	/* 32 values pushed */
0 0 0 36 77 0 4 4 1 97 0 1 1 42 77 6 1 5 5 2 97 0 2 2 40 77 0 3 3 38 3 78
EIF[ ]	/* EndIf */
NPUSHB[ ]	/* 14 values pushed */
19 19 19 30 19 29 37 19 38 35 16 7 8 27
CALL[ ]	/* CallFunction */";
};
width = 613;
}
);
note = p;
unicode = 112;
},
{
glyphname = thorn;
kernRight = b;
layers = (
{
layerId = m01;
shapes = (
{
closed = 1;
nodes = (
(163,-220,l),
(163,76,l),
(189,34,o),
(279,-12,o),
(337,-12,qs),
(409,-12,o),
(520,56,o),
(582,174,o),
(582,247,qs),
(582,320,o),
(521,439,o),
(410,508,o),
(337,508,qs),
(224,508,o),
(163,420,q),
(163,700,l),
(57,700,l),
(57,-220,l)
);
},
{
closed = 1;
nodes = (
(249,81,o),
(163,175,o),
(163,248,qs),
(163,322,o),
(250,416,o),
(319,416,qs),
(388,416,o),
(474,321,o),
(474,248,qs),
(474,174,o),
(387,81,o),
(319,81,qs)
);
}
);
userData = {
assembly = "NPUSHB[ ]	/* 56 values pushed */
2 1 4 1 15 1 2 5 2 76 0 0 0 33 77 0 4 4 1 97 0 1 1 42 77 6 1 5 5 2 97 0 2 2 40 77 0 3 3 38 3 78 18 18 18 29 18 28 37 19 38 34 16 7 8 27
CALL[ ]	/* CallFunction */";
};
width = 620;
}
);
note = thorn;
unicode = 254;
},
{
glyphname = q;
kernLeft = c;
layers = (
{
layerId = m01;
shapes = (
{
closed = 1;
nodes = (
(451,-220,l),
(557,-220,l),
(557,496,l),
(455,496,l),
(451,424,l),
(424,464,o),
(334,508,o),
(280,508,qs),
(208,508,o),
(99,439,o),
(39,321,o),
(39,249,qs),
(39,176,o),
(100,57,o),
(208,-11,o),
(278,-11,qs),
(338,-11,o),
(426,38,o),
(451,74,q)
);
},
{
closed = 1;
nodes = (
(256,81,o),
(187,123,o),
(147,200,o),
(147,249,qs),
(147,297,o),
(186,373,o),
(255,416,o),
(298,416,qs),
(366,416,o),
(450,321,o),
(450,248,qs),
(450,173,o),
(365,81,o),
(298,81,qs)
);
}
);
userData = {
assembly = "MPPEM[ ]	/* MeasurePixelPerEm */
PUSHB[ ]	/* 1 value pushed */
21
LT[ ]	/* LessThan */
IF[ ]	/* If */
NPUSHB[ ]	/* 10 values pushed */
13 1 4 1 18 1 0 5 2 76
ELSE[ ]	/* Else */
NPUSHB[ ]	/* 10 values pushed */
13 1 4 2 18 1 0 5 2 76
EIF[ ]	/* EndIf */
MPPEM[ ]	/* MeasurePixelPerEm */
PUSHB[ ]	/* 1 value pushed */
21
LT[ ]	/* LessThan */
IF[ ]	/* If */
NPUSHB[ ]	/* 28 values pushed */
0 4 4 1 97 2 1 1 1 42 77 6 1 5 5 0 97 0 0 0 40 77 0 3 3 38 3 78
ELSE[ ]	/* Else */
NPUSHB[ ]	/* 32 values pushed */
0 2 2 36 77 0 4 4 1 97 0 1 1 42 77 6 1 5 5 0 97 0 0 0 40 77 0 3 3 38 3 78
EIF[ ]	/* EndIf */
NPUSHB[ ]	/* 14 values pushed */
19 19 19 32 19 31 38 17 19 38 33 7 8 27
CALL[ ]	/* CallFunction */";
};
width = 614;
}
);
note = q;
unicode = 113;
},
{
glyphname = r;
kernLeft = dotlessi;
kernRight = r;
layers = (
{
anchors = (
{
name = bottom;
pos = (116,0);
},
{
name = top;
pos = (177,496);
}
);
layerId = m01;
shapes = (
{
closed = 1;
nodes = (
(163,0,l),
(163,249,ls),
(163,324,o),
(233,397,o),
(304,397,qs),
(333,397,l),
(333,508,l),
(275,508,o),
(187,458,o),
(162,412,q),
(159,496,l),
(57,496,l),
(57,0,l)
);
}
);
userData = {
assembly = "PUSHB[ ]	/* 6 values pushed */
2 1 2 0 1 76
MPPEM[ ]	/* MeasurePixelPerEm */
PUSHB[ ]	/* 1 value pushed */
21
LT[ ]	/* LessThan */
IF[ ]	/* If */
NPUSHB[ ]	/* 17 values pushed */
0 2 2 0 97 1 1 0 0 36 77 0 3 3 34 3 78
ELSE[ ]	/* Else */
NPUSHB[ ]	/* 21 values pushed */
0 0 0 36 77 0 2 2 1 97 0 1 1 42 77 0 3 3 34 3 78
EIF[ ]	/* EndIf */
PUSHB[ ]	/* 7 values pushed */
19 33 19 16 4 8 26
CALL[ ]	/* CallFunction */";
};
width = 353;
}
);
note = r;
unicode = 114;
},
{
glyphname = s;
kernLeft = s;
kernRight = s;
layers = (
{
anchors = (
{
name = bottom;
pos = (251,0);
},
{
name = top;
pos = (244,496);
}
);
layerId = m01;
shapes = (
{
closed = 1;
nodes = (
(339,-12,o),
(448,72,o),
(448,141,qs),
(447,189,o),
(402,248,o),
(327,280,o),
(268,293,qs),
(217,305,o),
(157,337,o),
(157,364,qs),
(157,392,o),
(202,422,o),
(240,422,qs),
(280,422,o),
(331,384,o),
(335,349,q),
(437,349,l),
(430,425,o),
(325,508,o),
(242,508,qs),
(160,508,o),
(53,426,o),
(53,359,qs),
(53,295,o),
(146,232,o),
(230,213,qs),
(288,200,o),
(344,171,o),
(344,138,qs),
(344,109,o),
(295,74,o),
(254,74,qs),
(210,74,o),
(149,119,o),
(142,156,q),
(35,156,l),
(42,80,o),
(166,-12,o),
(254,-12,qs)
);
}
);
userData = {
assembly = "NPUSHB[ ]	/* 51 values pushed */
0 3 4 0 4 3 0 128 0 0 1 4 0 1 126 0 4 4 2 97 0 2 2 42 77 0 1 1 5 97 6 1 5 5 40 5 78 0 0 0 38 0 37 34 18 42 34 18 7 8 27
CALL[ ]	/* CallFunction */";
};
width = 487;
}
);
note = s;
unicode = 115;
},
{
glyphname = scedilla;
kernLeft = s;
kernRight = s;
layers = (
{
anchors = (
{
name = bottom;
pos = (251,-261);
},
{
name = top;
pos = (244,496);
}
);
layerId = m01;
shapes = (
{
closed = 1;
nodes = (
(286,-261,ls),
(341,-261,o),
(412,-206,o),
(412,-157,qs),
(412,-107,o),
(339,-55,o),
(282,-56,q),
(282,-11,l),
(356,-4,o),
(448,78,o),
(448,141,qs),
(447,189,o),
(402,248,o),
(327,280,o),
(268,293,qs),
(217,305,o),
(157,337,o),
(157,364,qs),
(157,392,o),
(202,422,o),
(240,422,qs),
(280,422,o),
(331,384,o),
(335,349,q),
(437,349,l),
(430,425,o),
(325,508,o),
(242,508,qs),
(160,508,o),
(53,426,o),
(53,359,qs),
(53,295,o),
(146,232,o),
(230,213,qs),
(288,200,o),
(344,171,o),
(344,138,qs),
(344,109,o),
(295,74,o),
(254,74,qs),
(210,74,o),
(149,119,o),
(142,156,q),
(35,156,l),
(42,89,o),
(140,1,o),
(214,-9,q),
(214,-115,l),
(269,-115,ls),
(330,-115,o),
(330,-155,qs),
(330,-197,o),
(269,-197,qs),
(167,-197,l),
(167,-261,l)
);
}
);
userData = {
assembly = "PUSHB[ ]	/* 7 values pushed */
46 7 2 7 3 1 76
MPPEM[ ]	/* MeasurePixelPerEm */
PUSHB[ ]	/* 1 value pushed */
9
LT[ ]	/* LessThan */
IF[ ]	/* If */
NPUSHB[ ]	/* 47 values pushed */
0 5 6 2 6 5 2 128 0 2 3 6 2 3 126 0 3 7 7 3 112 0 7 0 1 0 7 1 106 0 0 0 8 0 8 99 0 6 6 4 97 0 4 4 42 6 78
ELSE[ ]	/* Else */
NPUSHB[ ]	/* 48 values pushed */
0 5 6 2 6 5 2 128 0 2 3 6 2 3 126 0 3 7 6 3 7 126 0 7 0 1 0 7 1 106 0 0 0 8 0 8 99 0 6 6 4 97 0 4 4 42 6 78
EIF[ ]	/* EndIf */
NPUSHB[ ]	/* 12 values pushed */
36 29 34 18 42 34 20 34 32 9 8 31
CALL[ ]	/* CallFunction */";
};
width = 487;
}
);
note = scedilla;
unicode = 351;
},
{
glyphname = germandbls;
kernLeft = b;
kernRight = germandbls;
layers = (
{
layerId = m01;
shapes = (
{
closed = 1;
nodes = (
(533,-10,o),
(641,78,o),
(641,155,qs),
(641,217,o),
(571,289,o),
(502,314,qs),
(443,335,o),
(394,363,o),
(394,388,qs),
(394,406,o),
(418,429,o),
(441,444,qs),
(482,469,o),
(527,519,o),
(527,563,qs),
(527,616,o),
(467,692,o),
(365,732,o),
(303,732,qs),
(193,732,o),
(59,618,o),
(59,515,qs),
(59,0,l),
(164,0,l),
(164,506,ls),
(164,570,o),
(230,643,o),
(300,643,qs),
(352,643,o),
(422,598,o),
(422,553,qs),
(422,530,o),
(398,497,o),
(375,481,qs),
(335,454,ls),
(287,423,o),
(287,373,qs),
(287,338,o),
(330,289,o),
(391,258,o),
(438,242,qs),
(487,226,o),
(536,187,o),
(536,148,qs),
(536,110,o),
(487,71,o),
(446,71,qs),
(399,71,o),
(344,127,o),
(339,172,q),
(237,172,l),
(247,85,o),
(361,-10,o),
(448,-10,qs)
);
}
);
userData = {
assembly = "MPPEM[ ]	/* MeasurePixelPerEm */
PUSHB[ ]	/* 1 value pushed */
25
LT[ ]	/* LessThan */
IF[ ]	/* If */
NPUSHB[ ]	/* 31 values pushed */
0 0 2 1 2 0 1 128 0 2 2 4 97 0 4 4 41 77 0 1 1 3 97 6 5 2 3 3 34 3 78
ELSE[ ]	/* Else */
MPPEM[ ]	/* MeasurePixelPerEm */
PUSHB[ ]	/* 1 value pushed */
33
LT[ ]	/* LessThan */
IF[ ]	/* If */
NPUSHB[ ]	/* 35 values pushed */
0 0 2 1 2 0 1 128 0 2 2 4 97 0 4 4 41 77 0 3 3 34 77 0 1 1 5 97 6 1 5 5 40 5 78
ELSE[ ]	/* Else */
NPUSHB[ ]	/* 33 values pushed */
0 0 2 1 2 0 1 128 0 4 0 2 0 4 2 105 0 3 3 34 77 0 1 1 5 97 6 1 5 5 40 5 78
EIF[ ]	/* EndIf */
EIF[ ]	/* EndIf */
NPUSHB[ ]	/* 17 values pushed */
0 0 0 53 0 52 35 33 30 29 26 24 34 18 7 8 24
CALL[ ]	/* CallFunction */";
};
width = 666;
}
);
note = germandbls;
unicode = 223;
},
{
glyphname = t;
kernLeft = t;
kernRight = t;
layers = (
{
anchors = (
{
name = bottom;
pos = (229,0);
},
{
name = top;
pos = (185,496);
},
{
name = topright;
pos = (253,992);
}
);
layerId = m01;
shapes = (
{
closed = 1;
nodes = (
(331,0,l),
(331,90,l),
(275,90,ls),
(238,90,o),
(205,118,o),
(205,154,qs),
(205,407,l),
(331,407,l),
(331,496,l),
(205,496,l),
(205,616,l),
(99,616,l),
(99,496,l),
(24,496,l),
(24,407,l),
(99,407,l),
(99,154,ls),
(99,74,o),
(177,0,o),
(253,0,qs)
);
}
);
userData = {
assembly = "NPUSHB[ ]	/* 44 values pushed */
0 2 1 2 133 4 1 0 0 1 95 3 1 1 1 36 77 0 5 5 6 96 7 1 6 6 34 6 78 0 0 0 19 0 18 35 17 17 17 17 19 8 8 28
CALL[ ]	/* CallFunction */";
};
width = 369;
}
);
note = t;
unicode = 116;
},
{
glyphname = uni0163;
kernLeft = t;
kernRight = t;
layers = (
{
anchors = (
{
name = bottom;
pos = (229,-261);
},
{
name = top;
pos = (185,496);
},
{
name = topright;
pos = (253,992);
}
);
layerId = m01;
shapes = (
{
closed = 1;
nodes = (
(264,-261,ls),
(319,-261,o),
(390,-206,o),
(390,-157,qs),
(390,-107,o),
(317,-55,o),
(260,-56,q),
(260,0,l),
(331,0,l),
(331,90,l),
(275,90,ls),
(238,90,o),
(205,118,o),
(205,154,qs),
(205,407,l),
(331,407,l),
(331,496,l),
(205,496,l),
(205,616,l),
(99,616,l),
(99,496,l),
(24,496,l),
(24,407,l),
(99,407,l),
(99,154,ls),
(99,33,o),
(192,7,q),
(192,-115,l),
(247,-115,ls),
(308,-115,o),
(308,-155,qs),
(308,-197,o),
(247,-197,qs),
(145,-197,l),
(145,-261,l)
);
}
);
userData = {
assembly = "NPUSHB[ ]	/* 65 values pushed */
7 1 8 7 1 76 0 4 3 4 133 0 9 0 1 0 9 1 106 0 0 0 10 0 10 99 6 1 2 2 3 95 5 1 3 3 36 77 0 7 7 8 95 0 8 8 34 8 78 34 32 28 27 17 35 17 17 17 17 20 34 32 11 8 31
CALL[ ]	/* CallFunction */";
};
width = 369;
}
);
note = uni0163;
unicode = 355;
},
{
glyphname = u;
kernLeft = u;
layers = (
{
anchors = (
{
name = bottom;
pos = (284,0);
},
{
name = ogonek;
pos = (510,0);
},
{
name = top;
pos = (282,496);
},
{
name = topright;
pos = (547,496);
}
);
layerId = m01;
shapes = (
{
closed = 1;
nodes = (
(295,-12,o),
(381,34,o),
(406,74,q),
(408,0,l),
(510,0,l),
(510,496,l),
(404,496,l),
(404,230,ls),
(404,159,o),
(334,78,o),
(273,78,qs),
(214,78,o),
(153,151,o),
(153,218,qs),
(153,496,l),
(48,496,l),
(48,204,ls),
(48,102,o),
(153,-12,o),
(245,-12,qs)
);
}
);
userData = {
assembly = "PUSHB[ ]	/* 6 values pushed */
16 1 3 1 1 76
MPPEM[ ]	/* MeasurePixelPerEm */
PUSHB[ ]	/* 1 value pushed */
21
LT[ ]	/* LessThan */
IF[ ]	/* If */
NPUSHB[ ]	/* 19 values pushed */
2 1 0 0 36 77 0 1 1 3 97 5 4 2 3 3 34 3 78
ELSE[ ]	/* Else */
NPUSHB[ ]	/* 23 values pushed */
2 1 0 0 36 77 0 3 3 34 77 0 1 1 4 97 5 1 4 4 40 4 78
EIF[ ]	/* EndIf */
NPUSHB[ ]	/* 13 values pushed */
0 0 0 19 0 18 17 19 35 19 6 8 26
CALL[ ]	/* CallFunction */";
};
width = 567;
}
);
note = u;
unicode = 117;
},
{
glyphname = uogonek;
kernLeft = u;
layers = (
{
anchors = (
{
name = bottom;
pos = (284,0);
},
{
name = ogonek;
pos = (510,0);
},
{
name = top;
pos = (282,496);
},
{
name = topright;
pos = (547,496);
}
);
layerId = m01;
shapes = (
{
closed = 1;
nodes = (
(295,-12,o),
(381,34,o),
(406,74,q),
(408,17,l),
(354,-11,o),
(308,-72,o),
(308,-107,qs),
(308,-156,o),
(380,-206,o),
(434,-206,qs),
(474,-206,o),
(515,-193,q),
(515,-127,l),
(478,-142,o),
(447,-142,qs),
(421,-142,o),
(391,-118,o),
(391,-97,qs),
(391,-78,o),
(421,-44,o),
(456,-27,qs),
(511,0,l),
(510,2,l),
(510,496,l),
(404,496,l),
(404,230,ls),
(404,159,o),
(334,78,o),
(273,78,qs),
(214,78,o),
(153,151,o),
(153,218,qs),
(153,496,l),
(48,496,l),
(48,204,ls),
(48,102,o),
(153,-12,o),
(245,-12,qs)
);
}
);
userData = {
assembly = "NPUSHB[ ]	/* 16 values pushed */
34 33 14 3 5 1 24 1 3 5 25 1 4 3 3 76
MPPEM[ ]	/* MeasurePixelPerEm */
PUSHB[ ]	/* 1 value pushed */
35
LT[ ]	/* LessThan */
IF[ ]	/* If */
NPUSHB[ ]	/* 28 values pushed */
2 1 0 0 36 77 0 1 1 5 97 6 1 5 5 40 77 0 3 3 4 98 0 4 4 38 4 78
ELSE[ ]	/* Else */
NPUSHB[ ]	/* 25 values pushed */
0 3 0 4 3 4 102 2 1 0 0 36 77 0 1 1 5 97 6 1 5 5 40 5 78
EIF[ ]	/* EndIf */
NPUSHB[ ]	/* 14 values pushed */
0 0 0 37 0 36 35 40 19 35 19 7 8 27
CALL[ ]	/* CallFunction */";
};
width = 567;
}
);
note = uogonek;
unicode = 371;
},
{
glyphname = v;
kernLeft = v;
kernRight = v;
layers = (
{
layerId = m01;
shapes = (
{
closed = 1;
nodes = (
(324,0,l),
(511,496,l),
(401,496,l),
(262,98,l),
(124,496,l),
(12,496,l),
(199,0,l)
);
}
);
userData = {
assembly = "NPUSHB[ ]	/* 24 values pushed */
2 1 2 0 1 76 1 1 0 0 36 77 0 2 2 34 2 78 17 18 16 3 8 25
CALL[ ]	/* CallFunction */";
};
width = 523;
}
);
note = v;
unicode = 118;
},
{
glyphname = w;
kernLeft = w;
kernRight = w;
layers = (
{
anchors = (
{
name = bottom;
pos = (376,0);
},
{
name = top;
pos = (376,496);
}
);
layerId = m01;
shapes = (
{
closed = 1;
nodes = (
(269,0,l),
(376,378,l),
(483,1,l),
(595,1,l),
(741,496,l),
(637,496,l),
(541,114,l),
(435,496,l),
(320,496,l),
(214,113,l),
(117,496,l),
(11,496,l),
(157,0,l)
);
}
);
userData = {
assembly = "NPUSHB[ ]	/* 30 values pushed */
10 5 2 3 3 0 1 76 2 1 2 0 0 36 77 4 1 3 3 34 3 78 18 17 18 18 16 5 8 27
CALL[ ]	/* CallFunction */";
};
width = 751;
}
);
note = w;
unicode = 119;
},
{
glyphname = x;
kernLeft = x;
kernRight = x;
layers = (
{
layerId = m01;
shapes = (
{
closed = 1;
nodes = (
(123,0,l),
(239,180,l),
(361,0,l),
(477,0,l),
(308,249,l),
(476,496,l),
(363,496,l),
(247,317,l),
(126,496,l),
(9,496,l),
(178,249,l),
(10,0,l)
);
}
);
userData = {
assembly = "NPUSHB[ ]	/* 28 values pushed */
9 6 3 3 2 0 1 76 1 1 0 0 36 77 3 1 2 2 34 2 78 18 18 18 17 4 8 26
CALL[ ]	/* CallFunction */";
};
width = 485;
}
);
note = x;
unicode = 120;
},
{
glyphname = y;
kernLeft = y;
kernRight = y;
layers = (
{
anchors = (
{
name = bottom;
pos = (273,0);
},
{
name = top;
pos = (273,496);
}
);
layerId = m01;
shapes = (
{
closed = 1;
nodes = (
(219,-220,l),
(536,496,l),
(425,496,l),
(273,134,l),
(127,496,l),
(10,496,l),
(217,22,l),
(107,-220,l)
);
}
);
userData = {
assembly = "NPUSHB[ ]	/* 24 values pushed */
3 1 2 0 1 76 1 1 0 0 36 77 0 2 2 38 2 78 17 18 17 3 8 25
CALL[ ]	/* CallFunction */";
};
width = 546;
}
);
note = y;
unicode = 121;
},
{
glyphname = z;
kernLeft = z;
layers = (
{
anchors = (
{
name = bottom;
pos = (217,0);
},
{
name = top;
pos = (217,496);
}
);
layerId = m01;
shapes = (
{
closed = 1;
nodes = (
(401,0,l),
(401,88,l),
(148,88,l),
(397,411,l),
(397,496,l),
(32,496,l),
(32,409,l),
(277,409,l),
(29,86,l),
(29,0,l)
);
}
);
userData = {
assembly = "NPUSHB[ ]	/* 38 values pushed */
5 1 0 1 0 1 3 2 2 76 0 0 0 1 95 0 1 1 36 77 0 2 2 3 95 0 3 3 34 3 78 17 18 17 17 4 8 26
CALL[ ]	/* CallFunction */";
};
width = 433;
}
);
note = z;
unicode = 122;
},
{
glyphname = uniA78C;
layers = (
{
layerId = m01;
shapes = (
{
closed = 1;
nodes = (
(159,335,l),
(177,700,l),
(63,700,l),
(80,335,l)
);
}
);
userData = {
assembly = "NPUSHB[ ]	/* 16 values pushed */
0 1 1 0 95 0 0 0 33 1 78 17 16 2 8 24
CALL[ ]	/* CallFunction */";
};
width = 239;
}
);
note = uniA78C;
unicode = 42892;
},
{
glyphname = fi;
layers = (
{
anchors = (
{
name = caret_1;
pos = (275,0);
}
);
layerId = m01;
shapes = (
{
closed = 1;
nodes = (
(183,0,l),
(183,407,l),
(289,407,l),
(289,496,l),
(183,496,l),
(183,547,ls),
(183,581,o),
(213,610,o),
(249,610,qs),
(278,610,l),
(278,700,l),
(232,700,ls),
(156,700,o),
(77,627,o),
(77,548,qs),
(77,496,l),
(11,496,l),
(11,407,l),
(77,407,l),
(77,0,l)
);
},
{
closed = 1;
nodes = (
(486,0,l),
(486,496,l),
(380,496,l),
(380,0,l)
);
},
{
closed = 1;
nodes = (
(464,576,o),
(504,617,o),
(504,646,qs),
(504,675,o),
(464,716,o),
(434,716,qs),
(405,716,o),
(363,675,o),
(363,646,qs),
(363,617,o),
(405,576,o),
(434,576,qs)
);
}
);
userData = {
assembly = "MPPEM[ ]	/* MeasurePixelPerEm */
PUSHB[ ]	/* 1 value pushed */
15
LT[ ]	/* LessThan */
IF[ ]	/* If */
NPUSHB[ ]	/* 43 values pushed */
0 3 3 2 97 9 1 2 2 33 77 11 1 10 10 2 97 9 1 2 2 33 77 5 1 0 0 1 95 7 4 2 1 1 36 77 8 1 6 6 34 6 78
ELSE[ ]	/* Else */
NPUSHB[ ]	/* 41 values pushed */
0 3 3 2 97 0 2 2 33 77 11 1 10 10 9 97 0 9 9 39 77 5 1 0 0 1 95 7 4 2 1 1 36 77 8 1 6 6 34 6 78
EIF[ ]	/* EndIf */
NPUSHB[ ]	/* 20 values pushed */
24 24 24 35 24 34 30 28 17 17 17 17 19 33 35 17 16 12 8 31
CALL[ ]	/* CallFunction */";
};
width = 551;
}
);
note = fi;
unicode = 64257;
},
{
glyphname = fl;
kernRight = fl;
layers = (
{
anchors = (
{
name = caret_1;
pos = (271,0);
}
);
layerId = m01;
shapes = (
{
closed = 1;
nodes = (
(183,0,l),
(183,407,l),
(289,407,l),
(289,496,l),
(183,496,l),
(183,547,ls),
(183,581,o),
(213,610,o),
(249,610,qs),
(278,610,l),
(278,700,l),
(232,700,ls),
(156,700,o),
(77,627,o),
(77,548,qs),
(77,496,l),
(11,496,l),
(11,407,l),
(77,407,l),
(77,0,l)
);
},
{
closed = 1;
nodes = (
(484,0,l),
(484,700,l),
(378,700,l),
(378,0,l)
);
}
);
userData = {
assembly = "NPUSHB[ ]	/* 42 values pushed */
0 3 3 2 97 7 1 2 2 33 77 5 1 0 0 1 95 4 1 1 1 36 77 8 1 6 6 34 6 78 17 17 17 17 19 33 35 17 16 9 8 31
CALL[ ]	/* CallFunction */";
};
width = 541;
}
);
note = fl;
unicode = 64258;
},
{
glyphname = ordfeminine;
layers = (
{
layerId = m01;
shapes = (
{
closed = 1;
nodes = (
(196,347,o),
(258,381,o),
(277,412,q),
(287,383,o),
(335,354,o),
(369,354,qs),
(381,354,l),
(381,418,l),
(344,418,o),
(344,455,qs),
(344,564,ls),
(344,633,o),
(263,710,o),
(194,710,qs),
(135,710,o),
(50,647,o),
(42,591,q),
(116,591,l),
(123,618,o),
(164,648,o),
(193,648,qs),
(228,648,o),
(268,604,o),
(269,563,q),
(181,563,ls),
(116,563,o),
(33,508,o),
(33,452,qs),
(33,403,o),
(104,347,o),
(156,347,qs)
);
},
{
closed = 1;
nodes = (
(145,407,o),
(109,433,o),
(109,458,qs),
(109,486,o),
(153,511,o),
(187,511,qs),
(269,511,l),
(269,468,o),
(215,407,o),
(173,407,qs)
);
}
);
userData = {
assembly = "MPPEM[ ]	/* MeasurePixelPerEm */
PUSHB[ ]	/* 1 value pushed */
11
LT[ ]	/* LessThan */
IF[ ]	/* If */
PUSHB[ ]	/* 6 values pushed */
27 1 5 4 1 76
ELSE[ ]	/* Else */
MPPEM[ ]	/* MeasurePixelPerEm */
PUSHB[ ]	/* 1 value pushed */
12
LT[ ]	/* LessThan */
IF[ ]	/* If */
PUSHB[ ]	/* 6 values pushed */
27 1 8 4 1 76
ELSE[ ]	/* Else */
MPPEM[ ]	/* MeasurePixelPerEm */
PUSHB[ ]	/* 1 value pushed */
22
LT[ ]	/* LessThan */
IF[ ]	/* If */
PUSHB[ ]	/* 6 values pushed */
27 1 5 4 1 76
ELSE[ ]	/* Else */
PUSHB[ ]	/* 6 values pushed */
27 1 8 4 1 76
EIF[ ]	/* EndIf */
EIF[ ]	/* EndIf */
EIF[ ]	/* EndIf */
MPPEM[ ]	/* MeasurePixelPerEm */
PUSHB[ ]	/* 1 value pushed */
11
LT[ ]	/* LessThan */
IF[ ]	/* If */
NPUSHB[ ]	/* 41 values pushed */
0 2 1 0 1 2 0 128 0 0 0 7 4 0 7 103 0 1 1 3 97 0 3 3 59 77 10 8 2 4 4 5 97 9 6 2 5 5 58 5 78
ELSE[ ]	/* Else */
MPPEM[ ]	/* MeasurePixelPerEm */
PUSHB[ ]	/* 1 value pushed */
12
LT[ ]	/* LessThan */
IF[ ]	/* If */
NPUSHB[ ]	/* 52 values pushed */
0 2 1 0 1 2 0 128 0 0 0 7 4 0 7 103 0 1 1 3 97 0 3 3 59 77 0 4 4 5 97 9 6 2 5 5 58 77 10 1 8 8 5 97 9 6 2 5 5 58 5 78
ELSE[ ]	/* Else */
MPPEM[ ]	/* MeasurePixelPerEm */
PUSHB[ ]	/* 1 value pushed */
22
LT[ ]	/* LessThan */
IF[ ]	/* If */
NPUSHB[ ]	/* 41 values pushed */
0 2 1 0 1 2 0 128 0 0 0 7 4 0 7 103 0 1 1 3 97 0 3 3 59 77 10 8 2 4 4 5 97 9 6 2 5 5 58 5 78
ELSE[ ]	/* Else */
MPPEM[ ]	/* MeasurePixelPerEm */
PUSHB[ ]	/* 1 value pushed */
34
LT[ ]	/* LessThan */
IF[ ]	/* If */
NPUSHB[ ]	/* 52 values pushed */
0 2 1 0 1 2 0 128 0 0 0 7 4 0 7 103 0 1 1 3 97 0 3 3 59 77 0 4 4 5 97 9 6 2 5 5 58 77 10 1 8 8 5 97 9 6 2 5 5 58 5 78
ELSE[ ]	/* Else */
NPUSHB[ ]	/* 49 values pushed */
0 2 1 0 1 2 0 128 0 0 0 7 4 0 7 103 0 1 1 3 97 0 3 3 59 77 0 4 4 5 97 0 5 5 58 77 10 1 8 8 6 97 9 1 6 6 58 6 78
EIF[ ]	/* EndIf */
EIF[ ]	/* EndIf */
EIF[ ]	/* EndIf */
EIF[ ]	/* EndIf */
NPUSHB[ ]	/* 23 values pushed */
31 31 0 0 31 40 31 39 35 33 0 30 0 29 33 20 34 18 34 36 11 10 28
CALL[ ]	/* CallFunction */";
};
width = 406;
}
);
note = ordfeminine;
unicode = 170;
},
{
glyphname = ordmasculine;
layers = (
{
layerId = m01;
shapes = (
{
closed = 1;
nodes = (
(265,349,o),
(348,395,o),
(395,478,o),
(395,531,qs),
(395,587,o),
(347,669,o),
(265,712,o),
(214,712,qs),
(162,712,o),
(79,667,o),
(32,585,o),
(32,531,qs),
(32,476,o),
(80,393,o),
(162,349,o),
(212,349,qs)
);
},
{
closed = 1;
nodes = (
(167,415,o),
(111,478,o),
(111,531,qs),
(111,583,o),
(168,647,o),
(213,647,qs),
(259,647,o),
(315,584,o),
(315,531,qs),
(315,479,o),
(257,415,o),
(212,415,qs)
);
}
);
userData = {
assembly = "NPUSHB[ ]	/* 41 values pushed */
0 2 2 0 97 0 0 0 59 77 5 1 3 3 1 97 4 1 1 1 58 1 78 16 16 0 0 16 27 16 26 22 20 0 15 0 14 38 6 10 23
CALL[ ]	/* CallFunction */";
};
width = 426;
}
);
note = ordmasculine;
unicode = 186;
},
{
glyphname = uni042F;
layers = (
{
layerId = m01;
shapes = (
{
closed = 1;
nodes = (
(29,0,l),
(156,0,l),
(332,303,l),
(429,303,l),
(429,0,l),
(535,0,l),
(535,700,l),
(310,700,ls),
(199,700,o),
(73,598,o),
(73,502,qs),
(73,353,o),
(227,321,q)
);
},
{
closed = 1;
nodes = (
(240,393,o),
(181,447,o),
(181,502,qs),
(181,556,o),
(241,611,o),
(313,611,qs),
(429,611,l),
(429,393,l),
(313,393,ls)
);
}
);
userData = {
assembly = "NPUSHB[ ]	/* 52 values pushed */
12 1 2 5 1 76 3 1 1 2 1 134 0 0 0 4 5 0 4 103 6 1 5 2 2 5 87 6 1 5 5 2 95 0 2 5 2 79 13 13 13 21 13 20 35 17 17 17 35 7 6 27
CALL[ ]	/* CallFunction */";
};
width = 604;
}
);
note = uni042F;
unicode = (1071,1103);
},
{
glyphname = uni0394;
layers = (
{
layerId = m01;
shapes = (
{
closed = 1;
nodes = (
(677,0,l),
(677,82,l),
(395,700,l),
(308,700,l),
(27,82,l),
(27,0,l)
);
},
{
closed = 1;
nodes = (
(351,580,l),
(569,82,l),
(135,82,l)
);
}
);
userData = {
assembly = "NPUSHB[ ]	/* 12 values pushed */
7 1 2 0 1 76 3 0 2 2 1 75
MPPEM[ ]	/* MeasurePixelPerEm */
PUSHB[ ]	/* 1 value pushed */
42
LT[ ]	/* LessThan */
IF[ ]	/* If */
NPUSHB[ ]	/* 17 values pushed */
0 0 0 23 77 3 1 2 2 1 95 0 1 1 24 1 78
ELSE[ ]	/* Else */
NPUSHB[ ]	/* 17 values pushed */
0 0 2 0 133 3 1 2 2 1 95 0 1 1 24 1 78
EIF[ ]	/* EndIf */
NPUSHB[ ]	/* 11 values pushed */
6 6 6 8 6 8 18 17 4 7 24
CALL[ ]	/* CallFunction */";
};
width = 703;
}
);
note = uni0394;
unicode = 916;
},
{
glyphname = Pi;
layers = (
{
layerId = m01;
shapes = (
{
closed = 1;
nodes = (
(222,0,l),
(222,414,l),
(424,414,l),
(424,0,l),
(530,0,l),
(530,414,l),
(607,414,l),
(607,496,l),
(40,496,l),
(40,414,l),
(116,414,l),
(116,0,l)
);
}
);
userData = {
assembly = "NPUSHB[ ]	/* 26 values pushed */
0 1 4 2 2 0 3 1 0 103 5 1 3 3 24 3 78 17 17 17 17 17 16 6 7 28
CALL[ ]	/* CallFunction */";
};
width = 647;
}
);
note = Pi;
unicode = 928;
},
{
glyphname = uni03A9;
layers = (
{
layerId = m01;
shapes = (
{
closed = 1;
nodes = (
(326,0,l),
(326,86,l),
(245,113,o),
(148,255,o),
(148,351,qs),
(148,419,o),
(202,540,o),
(313,616,o),
(394,616,qs),
(462,616,o),
(574,555,o),
(641,435,o),
(641,351,qs),
(641,256,o),
(546,113,o),
(463,86,q),
(463,0,l),
(736,0,l),
(736,82,l),
(607,82,l),
(677,125,o),
(749,271,o),
(749,360,qs),
(749,463,o),
(656,623,o),
(494,712,o),
(394,712,qs),
(295,712,o),
(134,623,o),
(41,462,o),
(41,360,qs),
(41,271,o),
(113,125,o),
(182,82,q),
(52,82,l),
(52,0,l)
);
}
);
userData = {
assembly = "NPUSHB[ ]	/* 39 values pushed */
33 19 2 0 4 1 76 0 4 4 1 97 0 1 1 23 77 2 1 0 0 3 95 5 1 3 3 24 3 78 23 39 17 22 38 16 6 7 28
CALL[ ]	/* CallFunction */";
};
width = 789;
}
);
note = uni03A9;
unicode = 937;
},
{
glyphname = uni03BC;
layers = (
{
layerId = m01;
shapes = (
{
closed = 1;
nodes = (
(173,-220,l),
(173,12,l),
(208,-12,o),
(261,-12,qs),
(318,-12,o),
(407,40,o),
(431,86,q),
(439,0,l),
(533,0,l),
(533,496,l),
(427,496,l),
(427,240,ls),
(427,164,o),
(352,78,o),
(291,78,qs),
(232,78,o),
(173,151,o),
(173,222,qs),
(173,496,l),
(67,496,l),
(67,-220,l)
);
}
);
userData = {
assembly = "NPUSHB[ ]	/* 10 values pushed */
13 1 1 0 18 1 3 1 2 76
MPPEM[ ]	/* MeasurePixelPerEm */
PUSHB[ ]	/* 1 value pushed */
42
LT[ ]	/* LessThan */
IF[ ]	/* If */
NPUSHB[ ]	/* 27 values pushed */
2 1 0 1 0 133 0 3 3 24 77 0 1 1 4 97 0 4 4 24 77 0 5 5 25 5 78
ELSE[ ]	/* Else */
NPUSHB[ ]	/* 25 values pushed */
2 1 0 1 0 133 0 1 0 4 5 1 4 105 0 3 3 24 77 0 5 5 25 5 78
EIF[ ]	/* EndIf */
NPUSHB[ ]	/* 9 values pushed */
18 35 17 19 35 16 6 7 28
CALL[ ]	/* CallFunction */";
};
width = 600;
}
);
note = uni03BC;
unicode = 956;
},
{
glyphname = zero;
layers = (
{
layerId = m01;
shapes = (
{
closed = 1;
nodes = (
(433,-12,o),
(559,183,o),
(559,350,qs),
(559,517,o),
(433,712,o),
(296,712,qs),
(160,712,o),
(32,514,o),
(32,350,qs),
(32,186,o),
(160,-12,o),
(296,-12,qs)
);
},
{
closed = 1;
nodes = (
(218,83,o),
(140,223,o),
(140,350,qs),
(140,477,o),
(218,618,o),
(296,618,qs),
(374,618,o),
(451,478,o),
(451,350,qs),
(451,223,o),
(374,83,o),
(296,83,qs)
);
}
);
userData = {
assembly = "NPUSHB[ ]	/* 41 values pushed */
0 2 2 0 97 0 0 0 39 77 5 1 3 3 1 97 4 1 1 1 40 1 78 12 12 0 0 12 23 12 22 18 16 0 11 0 10 36 6 8 23
CALL[ ]	/* CallFunction */";
};
width = 590;
}
);
note = zero;
unicode = 48;
},
{
glyphname = one;
layers = (
{
layerId = m01;
shapes = (
{
closed = 1;
nodes = (
(558,0,l),
(558,89,l),
(387,89,l),
(387,700,l),
(331,700,l),
(89,611,l),
(89,522,l),
(286,588,l),
(286,89,l),
(84,89,l),
(84,0,l)
);
}
);
userData = {
assembly = "NPUSHB[ ]	/* 32 values pushed */
4 3 2 3 0 1 1 76 0 1 1 33 77 2 1 0 0 3 96 0 3 3 34 3 78 17 17 20 16 4 8 26
CALL[ ]	/* CallFunction */";
};
width = 590;
}
);
note = one;
unicode = 49;
},
{
glyphname = two;
layers = (
{
layerId = m01;
shapes = (
{
closed = 1;
nodes = (
(63,0,l),
(535,0,l),
(535,90,l),
(198,90,l),
(366,262,ls),
(421,318,o),
(474,377,o),
(515,458,o),
(515,503,qs),
(515,599,o),
(401,712,o),
(296,712,qs),
(192,712,o),
(67,592,o),
(66,487,q),
(169,487,l),
(169,546,o),
(235,622,o),
(294,622,qs),
(350,622,o),
(410,556,o),
(410,500,qs),
(410,461,o),
(352,383,o),
(285,314,qs),
(262,290,l),
(63,83,l)
);
}
);
userData = {
assembly = "NPUSHB[ ]	/* 43 values pushed */
26 1 4 3 1 76 0 1 0 3 0 1 3 128 0 0 0 2 97 0 2 2 39 77 0 3 3 4 95 0 4 4 34 4 78 17 23 34 18 38 5 8 27
CALL[ ]	/* CallFunction */";
};
width = 590;
}
);
note = two;
unicode = 50;
},
{
glyphname = three;
layers = (
{
layerId = m01;
shapes = (
{
closed = 1;
nodes = (
(371,-12,o),
(481,43,o),
(543,146,o),
(543,217,qs),
(543,279,o),
(486,374,o),
(386,426,o),
(322,426,q),
(520,614,l),
(520,700,l),
(73,700,l),
(73,611,l),
(390,611,l),
(163,397,l),
(224,327,l),
(259,347,o),
(299,347,qs),
(364,347,o),
(441,278,o),
(441,216,qs),
(441,153,o),
(365,79,o),
(298,79,qs),
(235,79,o),
(158,148,o),
(151,203,q),
(48,203,l),
(55,102,o),
(190,-12,o),
(298,-12,qs)
);
}
);
userData = {
assembly = "NPUSHB[ ]	/* 67 values pushed */
20 1 3 4 15 1 2 5 14 1 0 2 3 76 0 0 2 1 2 0 1 128 0 5 0 2 0 5 2 105 0 3 3 4 95 0 4 4 33 77 0 1 1 6 97 7 1 6 6 40 6 78 0 0 0 29 0 28 18 17 19 36 34 18 8 8 28
CALL[ ]	/* CallFunction */";
};
width = 590;
}
);
note = three;
unicode = 51;
},
{
glyphname = four;
layers = (
{
layerId = m01;
shapes = (
{
closed = 1;
nodes = (
(475,0,l),
(475,140,l),
(566,140,l),
(566,233,l),
(475,233,l),
(475,423,l),
(375,423,l),
(375,233,l),
(149,233,l),
(381,700,l),
(276,700,l),
(37,224,l),
(37,140,l),
(369,140,l),
(369,0,l)
);
}
);
userData = {
assembly = "NPUSHB[ ]	/* 45 values pushed */
2 1 0 2 1 76 0 3 1 2 1 3 2 128 4 1 2 5 1 0 6 2 0 104 0 1 1 33 77 0 6 6 34 6 78 17 17 17 17 17 18 16 7 8 29
CALL[ ]	/* CallFunction */";
};
width = 590;
}
);
note = four;
unicode = 52;
},
{
glyphname = five;
layers = (
{
layerId = m01;
shapes = (
{
closed = 1;
nodes = (
(374,-12,o),
(486,53,o),
(548,167,o),
(548,239,qs),
(548,303,o),
(520,361,qs),
(491,417,o),
(389,481,o),
(319,481,qs),
(269,481,o),
(188,448,o),
(165,420,q),
(201,608,l),
(498,608,l),
(498,700,l),
(121,700,l),
(61,308,l),
(162,308,l),
(179,347,o),
(254,394,o),
(304,394,qs),
(367,394,o),
(446,308,o),
(446,238,qs),
(446,169,o),
(366,79,o),
(302,79,qs),
(244,79,o),
(164,142,o),
(153,193,q),
(49,193,l),
(59,100,o),
(196,-12,o),
(301,-12,qs)
);
}
);
userData = {
assembly = "PUSHB[ ]	/* 6 values pushed */
21 1 2 6 1 76
MPPEM[ ]	/* MeasurePixelPerEm */
PUSHB[ ]	/* 1 value pushed */
33
LT[ ]	/* LessThan */
IF[ ]	/* If */
NPUSHB[ ]	/* 47 values pushed */
0 3 2 0 2 3 0 128 0 0 1 2 0 1 126 0 5 5 4 95 0 4 4 33 77 0 2 2 6 97 0 6 6 36 77 0 1 1 7 97 8 1 7 7 40 7 78
ELSE[ ]	/* Else */
NPUSHB[ ]	/* 45 values pushed */
0 3 2 0 2 3 0 128 0 0 1 2 0 1 126 0 6 0 2 3 6 2 105 0 5 5 4 95 0 4 4 33 77 0 1 1 7 97 8 1 7 7 40 7 78
EIF[ ]	/* EndIf */
NPUSHB[ ]	/* 16 values pushed */
0 0 0 33 0 32 35 17 17 18 36 34 18 9 8 29
CALL[ ]	/* CallFunction */";
};
width = 590;
}
);
note = five;
unicode = 53;
},
{
glyphname = six;
layers = (
{
layerId = m01;
shapes = (
{
closed = 1;
nodes = (
(386,-12,o),
(436,22,qs),
(488,55,o),
(545,162,o),
(545,224,qs),
(545,294,o),
(515,343,qs),
(484,394,o),
(387,450,o),
(330,450,qs),
(271,450,o),
(177,394,o),
(154,349,q),
(157,486,o),
(241,623,o),
(311,623,qs),
(360,623,o),
(421,567,o),
(431,515,q),
(528,515,l),
(522,569,o),
(497,613,qs),
(469,659,o),
(376,712,o),
(312,712,qs),
(228,712,o),
(172,663,qs),
(114,615,o),
(52,441,o),
(52,325,qs),
(52,188,o),
(110,94,qs),
(178,-12,o),
(315,-12,qs)
);
},
{
closed = 1;
nodes = (
(250,80,o),
(174,160,o),
(174,220,qs),
(174,258,o),
(209,322,o),
(270,360,o),
(308,360,qs),
(366,360,o),
(441,283,o),
(441,220,qs),
(441,160,o),
(368,80,o),
(309,80,qs)
);
}
);
userData = {
assembly = "NPUSHB[ ]	/* 66 values pushed */
20 1 6 5 1 76 0 1 2 3 2 1 3 128 0 3 0 5 6 3 5 105 0 2 2 0 97 0 0 0 39 77 8 1 6 6 4 97 7 1 4 4 40 4 78 34 34 0 0 34 46 34 45 40 38 0 33 0 32 36 34 20 39 9 8 26
CALL[ ]	/* CallFunction */";
};
width = 590;
}
);
note = six;
unicode = 54;
},
{
glyphname = seven;
layers = (
{
layerId = m01;
shapes = (
{
closed = 1;
nodes = (
(260,0,l),
(547,623,l),
(547,700,l),
(45,700,l),
(45,610,l),
(437,610,l),
(149,0,l)
);
}
);
userData = {
assembly = "NPUSHB[ ]	/* 28 values pushed */
4 1 0 1 1 76 0 0 0 1 95 0 1 1 33 77 0 2 2 34 2 78 18 17 16 3 8 25
CALL[ ]	/* CallFunction */";
};
width = 590;
}
);
note = seven;
unicode = 55;
},
{
glyphname = eight;
layers = (
{
layerId = m01;
shapes = (
{
closed = 1;
nodes = (
(361,-12,o),
(470,38,o),
(535,131,o),
(535,193,qs),
(535,256,o),
(469,356,o),
(411,375,q),
(460,393,o),
(518,476,o),
(518,526,qs),
(518,582,o),
(459,667,o),
(358,712,o),
(296,712,qs),
(235,712,o),
(133,668,o),
(73,584,o),
(73,526,qs),
(73,476,o),
(130,395,o),
(180,375,q),
(122,355,o),
(56,256,o),
(56,193,qs),
(56,132,o),
(120,39,o),
(230,-12,o),
(296,-12,qs)
);
},
{
closed = 1;
nodes = (
(232,79,o),
(161,145,o),
(161,201,qs),
(161,261,o),
(235,326,o),
(296,326,qs),
(357,326,o),
(431,261,o),
(431,201,qs),
(431,144,o),
(358,79,o),
(296,79,qs)
);
},
{
closed = 1;
nodes = (
(244,409,o),
(179,467,o),
(179,516,qs),
(179,568,o),
(243,624,o),
(296,624,qs),
(348,624,o),
(413,567,o),
(413,516,qs),
(413,467,o),
(347,409,o),
(296,409,qs)
);
}
);
userData = {
assembly = "NPUSHB[ ]	/* 65 values pushed */
20 6 2 2 5 1 76 8 1 5 0 2 3 5 2 105 0 4 4 0 97 0 0 0 39 77 7 1 3 3 1 97 6 1 1 1 40 1 78 40 40 28 28 0 0 40 51 40 50 46 44 28 39 28 38 34 32 0 27 0 26 44 9 8 23
CALL[ ]	/* CallFunction */";
};
width = 590;
}
);
note = eight;
unicode = 56;
},
{
glyphname = nine;
layers = (
{
layerId = m01;
shapes = (
{
closed = 1;
nodes = (
(361,-12,o),
(421,37,qs),
(479,86,o),
(541,260,o),
(541,376,qs),
(541,440,o),
(512,559,o),
(483,606,qs),
(416,712,o),
(278,712,qs),
(209,712,o),
(156,679,qs),
(105,646,o),
(48,538,o),
(48,476,qs),
(48,408,o),
(78,357,qs),
(108,306,o),
(206,250,o),
(262,250,qs),
(322,250,o),
(416,305,o),
(439,351,q),
(436,214,o),
(352,78,o),
(282,78,qs),
(234,78,o),
(172,134,o),
(162,185,q),
(65,185,l),
(69,135,o),
(96,88,qs),
(123,41,o),
(217,-12,o),
(281,-12,qs)
);
},
{
closed = 1;
nodes = (
(227,341,o),
(152,418,o),
(152,481,qs),
(152,541,o),
(225,620,o),
(284,620,qs),
(342,620,o),
(419,541,o),
(419,480,qs),
(419,443,o),
(384,379,o),
(323,341,o),
(285,341,qs)
);
}
);
userData = {
assembly = "NPUSHB[ ]	/* 66 values pushed */
11 1 6 5 1 76 0 0 2 1 2 0 1 128 8 1 6 0 2 0 6 2 105 0 5 5 3 97 0 3 3 39 77 0 1 1 4 97 7 1 4 4 40 4 78 35 35 0 0 35 47 35 46 42 40 0 34 0 33 40 36 34 20 9 8 26
CALL[ ]	/* CallFunction */";
};
width = 590;
}
);
note = nine;
unicode = 57;
},
{
glyphname = uni24EA;
layers = (
{
layerId = m01;
shapes = (
{
closed = 1;
nodes = (
(487,-12,o),
(654,85,o),
(751,252,o),
(751,350,qs),
(751,448,o),
(654,615,o),
(487,712,o),
(389,712,qs),
(291,712,o),
(124,615,o),
(27,448,o),
(27,350,qs),
(27,252,o),
(124,85,o),
(291,-12,o),
(389,-12,qs)
);
},
{
closed = 1;
nodes = (
(307,51,o),
(170,130,o),
(91,267,o),
(91,350,qs),
(91,433,o),
(170,570,o),
(307,649,o),
(389,649,qs),
(472,649,o),
(609,570,o),
(688,433,o),
(688,350,qs),
(688,267,o),
(609,130,o),
(472,51,o),
(389,51,qs)
);
},
{
closed = 1;
nodes = (
(460,165,o),
(492,215,qs),
(524,265,o),
(524,350,qs),
(524,435,o),
(492,485,qs),
(460,535,o),
(390,535,qs),
(320,535,o),
(288,484,qs),
(255,435,o),
(255,350,qs),
(255,266,o),
(288,216,qs),
(320,165,o),
(390,165,qs)
);
},
{
closed = 1;
nodes = (
(359,230,o),
(344,261,qs),
(329,294,o),
(329,350,qs),
(329,408,o),
(344,439,qs),
(359,470,o),
(390,470,qs),
(421,470,o),
(436,439,qs),
(451,404,o),
(451,350,qs),
(451,298,o),
(436,261,qs),
(421,230,o),
(390,230,qs)
);
}
);
userData = {
assembly = "NPUSHB[ ]	/* 75 values pushed */
0 4 0 6 7 4 6 105 11 1 7 10 1 5 3 7 5 105 0 2 2 0 97 0 0 0 39 77 9 1 3 3 1 97 8 1 1 1 40 1 78 48 48 32 32 16 16 0 0 48 63 48 62 56 54 32 47 32 46 40 38 16 31 16 30 24 22 0 15 0 14 38 12 8 23
CALL[ ]	/* CallFunction */";
};
width = 778;
}
);
note = uni24EA;
unicode = 9450;
},
{
glyphname = uni2780;
layers = (
{
layerId = m01;
shapes = (
{
closed = 1;
nodes = (
(487,-12,o),
(654,85,o),
(751,252,o),
(751,350,qs),
(751,448,o),
(654,615,o),
(487,712,o),
(389,712,qs),
(291,712,o),
(124,615,o),
(27,448,o),
(27,350,qs),
(27,252,o),
(124,85,o),
(291,-12,o),
(389,-12,qs)
);
},
{
closed = 1;
nodes = (
(307,51,o),
(170,130,o),
(91,267,o),
(91,350,qs),
(91,433,o),
(170,570,o),
(307,649,o),
(389,649,qs),
(472,649,o),
(609,570,o),
(688,433,o),
(688,350,qs),
(688,267,o),
(609,130,o),
(472,51,o),
(389,51,qs)
);
},
{
closed = 1;
nodes = (
(517,176,l),
(517,239,l),
(437,239,l),
(437,533,l),
(398,533,l),
(280,491,l),
(280,434,l),
(368,452,l),
(368,239,l),
(277,239,l),
(277,176,l)
);
}
);
userData = {
assembly = "NPUSHB[ ]	/* 74 values pushed */
36 35 34 3 4 5 1 76 0 5 2 4 2 5 4 128 6 1 4 0 7 3 4 7 104 0 2 2 0 97 0 0 0 39 77 9 1 3 3 1 97 8 1 1 1 40 1 78 16 16 0 0 42 41 40 39 38 37 33 32 16 31 16 30 24 22 0 15 0 14 38 10 8 23
CALL[ ]	/* CallFunction */";
};
width = 778;
}
);
note = uni2780;
unicode = 10112;
},
{
glyphname = uni2781;
layers = (
{
layerId = m01;
shapes = (
{
closed = 1;
nodes = (
(487,-12,o),
(654,85,o),
(751,252,o),
(751,350,qs),
(751,448,o),
(654,615,o),
(487,712,o),
(389,712,qs),
(291,712,o),
(124,615,o),
(27,448,o),
(27,350,qs),
(27,252,o),
(124,85,o),
(291,-12,o),
(389,-12,qs)
);
},
{
closed = 1;
nodes = (
(306,51,o),
(170,131,o),
(91,268,o),
(91,350,qs),
(91,432,o),
(170,569,o),
(306,649,o),
(389,649,qs),
(472,649,o),
(609,570,o),
(688,433,o),
(688,350,qs),
(688,267,o),
(609,130,o),
(472,51,o),
(389,51,qs)
);
},
{
closed = 1;
nodes = (
(516,176,l),
(516,239,l),
(366,239,l),
(426,300,ls),
(465,337,o),
(509,397,o),
(509,432,qs),
(509,480,o),
(446,540,o),
(391,540,qs),
(336,540,o),
(267,479,o),
(266,420,q),
(337,420,l),
(337,445,o),
(363,478,o),
(389,478,qs),
(412,478,o),
(438,453,o),
(438,430,qs),
(438,415,o),
(417,382,o),
(385,349,o),
(372,336,qs),
(266,227,l),
(266,176,l)
);
}
);
userData = {
assembly = "NPUSHB[ ]	/* 81 values pushed */
32 1 8 7 1 76 0 5 4 7 4 5 7 128 0 6 0 4 5 6 4 105 0 7 0 8 3 7 8 103 0 2 2 0 97 0 0 0 39 77 10 1 3 3 1 97 9 1 1 1 40 1 78 16 16 0 0 57 56 55 54 48 46 44 43 41 39 16 31 16 30 24 22 0 15 0 14 38 11 8 23
CALL[ ]	/* CallFunction */";
};
width = 778;
}
);
note = uni2781;
unicode = 10113;
},
{
glyphname = uni2782;
layers = (
{
layerId = m01;
shapes = (
{
closed = 1;
nodes = (
(487,-12,o),
(654,85,o),
(751,252,o),
(751,350,qs),
(751,448,o),
(654,615,o),
(487,712,o),
(389,712,qs),
(291,712,o),
(124,615,o),
(27,448,o),
(27,350,qs),
(27,252,o),
(124,85,o),
(291,-12,o),
(389,-12,qs)
);
},
{
closed = 1;
nodes = (
(307,51,o),
(170,130,o),
(91,267,o),
(91,350,qs),
(91,433,o),
(170,570,o),
(307,649,o),
(389,649,qs),
(472,649,o),
(609,570,o),
(688,433,o),
(688,350,qs),
(688,267,o),
(609,130,o),
(472,51,o),
(389,51,qs)
);
},
{
closed = 1;
nodes = (
(448,158,o),
(519,225,o),
(519,279,qs),
(519,321,o),
(472,382,o),
(423,388,q),
(508,461,l),
(508,522,l),
(270,522,l),
(270,460,l),
(417,460,l),
(314,369,l),
(353,323,l),
(372,334,o),
(391,334,qs),
(415,334,o),
(449,305,o),
(449,278,qs),
(449,250,o),
(419,221,o),
(390,221,qs),
(365,221,o),
(331,251,o),
(331,279,q),
(260,279,l),
(261,220,o),
(332,158,o),
(390,158,qs)
);
}
);
userData = {
assembly = "NPUSHB[ ]	/* 15 values pushed */
52 1 7 8 53 47 2 6 7 46 1 4 6 3 76
MPPEM[ ]	/* MeasurePixelPerEm */
PUSHB[ ]	/* 1 value pushed */
10
LT[ ]	/* LessThan */
IF[ ]	/* If */
NPUSHB[ ]	/* 54 values pushed */
0 6 7 4 7 6 114 0 4 5 7 4 5 126 0 8 0 7 6 8 7 103 0 5 12 1 9 3 5 9 105 0 2 2 0 97 0 0 0 39 77 11 1 3 3 1 98 10 1 1 1 40 1 78
ELSE[ ]	/* Else */
NPUSHB[ ]	/* 55 values pushed */
0 6 7 4 7 6 4 128 0 4 5 7 4 5 126 0 8 0 7 6 8 7 103 0 5 12 1 9 3 5 9 105 0 2 2 0 97 0 0 0 39 77 11 1 3 3 1 98 10 1 1 1 40 1 78
EIF[ ]	/* EndIf */
NPUSHB[ ]	/* 34 values pushed */
32 32 16 16 0 0 32 59 32 58 51 50 49 48 45 43 39 37 35 34 16 31 16 30 24 22 0 15 0 14 38 13 8 23
CALL[ ]	/* CallFunction */";
};
width = 778;
}
);
note = uni2782;
unicode = 10114;
},
{
glyphname = uni2783;
layers = (
{
layerId = m01;
shapes = (
{
closed = 1;
nodes = (
(487,-12,o),
(654,85,o),
(751,252,o),
(751,350,qs),
(751,448,o),
(654,615,o),
(487,712,o),
(389,712,qs),
(291,712,o),
(124,615,o),
(27,448,o),
(27,350,qs),
(27,252,o),
(124,85,o),
(291,-12,o),
(389,-12,qs)
);
},
{
closed = 1;
nodes = (
(476,176,l),
(476,239,l),
(514,239,l),
(514,302,l),
(476,302,l),
(476,392,l),
(408,392,l),
(408,302,l),
(316,302,l),
(430,533,l),
(359,533,l),
(239,298,l),
(239,239,l),
(403,239,l),
(403,176,l)
);
},
{
closed = 1;
nodes = (
(307,51,o),
(170,130,o),
(91,267,o),
(91,350,qs),
(91,433,o),
(170,570,o),
(307,649,o),
(389,649,qs),
(472,649,o),
(609,570,o),
(688,433,o),
(688,350,qs),
(688,267,o),
(609,130,o),
(472,51,o),
(389,51,qs)
);
}
);
userData = {
assembly = "PUSHB[ ]	/* 6 values pushed */
18 1 2 4 1 76
MPPEM[ ]	/* MeasurePixelPerEm */
PUSHB[ ]	/* 1 value pushed */
14
LT[ ]	/* LessThan */
IF[ ]	/* If */
NPUSHB[ ]	/* 54 values pushed */
0 3 9 5 9 3 5 128 0 5 4 4 5 112 0 8 2 10 2 8 114 6 1 4 7 1 2 8 4 2 104 0 9 9 0 97 0 0 0 39 77 12 1 10 10 1 97 11 1 1 1 40 1 78
ELSE[ ]	/* Else */
MPPEM[ ]	/* MeasurePixelPerEm */
PUSHB[ ]	/* 1 value pushed */
21
LT[ ]	/* LessThan */
IF[ ]	/* If */
NPUSHB[ ]	/* 55 values pushed */
0 3 9 5 9 3 5 128 0 5 4 9 5 4 126 0 8 2 10 2 8 114 6 1 4 7 1 2 8 4 2 104 0 9 9 0 97 0 0 0 39 77 12 1 10 10 1 97 11 1 1 1 40 1 78
ELSE[ ]	/* Else */
NPUSHB[ ]	/* 56 values pushed */
0 3 9 5 9 3 5 128 0 5 4 9 5 4 126 0 8 2 10 2 8 10 128 6 1 4 7 1 2 8 4 2 104 0 9 9 0 97 0 0 0 39 77 12 1 10 10 1 97 11 1 1 1 40 1 78
EIF[ ]	/* EndIf */
EIF[ ]	/* EndIf */
NPUSHB[ ]	/* 32 values pushed */
31 31 0 0 31 46 31 45 39 37 30 29 28 27 26 25 24 23 22 21 20 19 17 16 0 15 0 14 38 13 8 23
CALL[ ]	/* CallFunction */";
};
width = 778;
}
);
note = uni2783;
unicode = 10115;
},
{
glyphname = uni2784;
layers = (
{
layerId = m01;
shapes = (
{
closed = 1;
nodes = (
(487,-12,o),
(654,85,o),
(751,252,o),
(751,350,qs),
(751,448,o),
(654,615,o),
(487,712,o),
(389,712,qs),
(291,712,o),
(124,615,o),
(27,448,o),
(27,350,qs),
(27,252,o),
(124,85,o),
(291,-12,o),
(389,-12,qs)
);
},
{
closed = 1;
nodes = (
(307,51,o),
(170,130,o),
(91,267,o),
(91,350,qs),
(91,433,o),
(170,570,o),
(307,649,o),
(389,649,qs),
(472,649,o),
(609,570,o),
(688,433,o),
(688,350,qs),
(688,267,o),
(609,130,o),
(472,51,o),
(389,51,qs)
);
},
{
closed = 1;
nodes = (
(449,160,o),
(521,233,o),
(521,291,qs),
(521,343,o),
(462,413,o),
(406,413,qs),
(385,413,o),
(347,400,o),
(335,386,q),
(350,461,l),
(498,461,l),
(498,524,l),
(295,524,l),
(265,317,l),
(335,317,l),
(342,334,o),
(374,354,o),
(394,354,qs),
(420,354,o),
(451,318,o),
(451,290,qs),
(451,262,o),
(419,223,o),
(393,223,qs),
(370,223,o),
(337,247,o),
(332,269,q),
(261,269,l),
(263,220,o),
(337,160,o),
(393,160,qs)
);
}
);
userData = {
assembly = "PUSHB[ ]	/* 6 values pushed */
53 1 6 10 1 76
MPPEM[ ]	/* MeasurePixelPerEm */
PUSHB[ ]	/* 1 value pushed */
9
LT[ ]	/* LessThan */
IF[ ]	/* If */
NPUSHB[ ]	/* 62 values pushed */
0 7 6 4 9 7 114 0 4 5 6 4 5 126 0 8 0 9 10 8 9 103 0 10 0 6 7 10 6 105 0 5 14 1 11 3 5 11 105 0 2 2 0 97 0 0 0 39 77 13 1 3 3 1 98 12 1 1 1 40 1 78
ELSE[ ]	/* Else */
NPUSHB[ ]	/* 63 values pushed */
0 7 6 4 6 7 4 128 0 4 5 6 4 5 126 0 8 0 9 10 8 9 103 0 10 0 6 7 10 6 105 0 5 14 1 11 3 5 11 105 0 2 2 0 97 0 0 0 39 77 13 1 3 3 1 98 12 1 1 1 40 1 78
EIF[ ]	/* EndIf */
NPUSHB[ ]	/* 38 values pushed */
32 32 16 16 0 0 32 62 32 61 57 55 52 51 50 49 48 47 45 43 39 37 35 34 16 31 16 30 24 22 0 15 0 14 38 15 8 23
CALL[ ]	/* CallFunction */";
};
width = 778;
}
);
note = uni2784;
unicode = 10116;
},
{
glyphname = uni2785;
layers = (
{
layerId = m01;
shapes = (
{
closed = 1;
nodes = (
(487,-12,o),
(654,85,o),
(751,252,o),
(751,350,qs),
(751,448,o),
(654,615,o),
(487,712,o),
(389,712,qs),
(291,712,o),
(124,615,o),
(27,448,o),
(27,350,qs),
(27,252,o),
(124,85,o),
(291,-12,o),
(389,-12,qs)
);
},
{
closed = 1;
nodes = (
(307,51,o),
(170,130,o),
(91,267,o),
(91,350,qs),
(91,433,o),
(170,570,o),
(307,649,o),
(389,649,qs),
(472,649,o),
(609,570,o),
(688,433,o),
(688,350,qs),
(688,267,o),
(609,130,o),
(472,51,o),
(389,51,qs)
);
},
{
closed = 1;
nodes = (
(367,227,o),
(336,260,o),
(336,286,qs),
(336,310,o),
(368,342,o),
(391,342,qs),
(415,342,o),
(447,311,o),
(447,284,qs),
(447,257,o),
(414,227,o),
(392,227,qs)
);
},
{
closed = 1;
nodes = (
(450,165,o),
(516,237,o),
(516,287,qs),
(516,334,o),
(457,403,o),
(410,403,qs),
(383,403,o),
(339,377,o),
(328,357,q),
(330,476,o),
(393,476,qs),
(414,476,o),
(439,452,o),
(443,430,q),
(510,430,l),
(508,473,o),
(444,535,o),
(393,535,qs),
(323,535,o),
(256,421,o),
(256,339,qs),
(256,265,o),
(325,165,o),
(396,165,qs)
);
}
);
userData = {
assembly = "NPUSHB[ ]	/* 103 values pushed */
58 1 4 9 1 76 0 7 8 9 8 7 9 128 0 6 0 8 7 6 8 105 0 9 0 4 5 9 4 105 13 1 5 14 1 10 3 5 10 105 0 2 2 0 97 0 0 0 39 77 12 1 3 3 1 97 11 1 1 1 40 1 78 44 44 32 32 16 16 0 0 44 67 44 66 62 60 57 55 53 52 50 48 32 43 32 42 38 36 16 31 16 30 24 22 0 15 0 14 38 15 8 23
CALL[ ]	/* CallFunction */";
};
width = 778;
}
);
note = uni2785;
unicode = 10117;
},
{
glyphname = uni2786;
layers = (
{
layerId = m01;
shapes = (
{
closed = 1;
nodes = (
(487,-12,o),
(654,85,o),
(751,252,o),
(751,350,qs),
(751,448,o),
(654,615,o),
(487,712,o),
(389,712,qs),
(291,712,o),
(124,615,o),
(27,448,o),
(27,350,qs),
(27,252,o),
(124,85,o),
(291,-12,o),
(389,-12,qs)
);
},
{
closed = 1;
nodes = (
(384,167,l),
(525,473,l),
(525,524,l),
(259,524,l),
(259,463,l),
(447,463,l),
(309,167,l)
);
},
{
closed = 1;
nodes = (
(307,51,o),
(170,130,o),
(91,267,o),
(91,350,qs),
(91,433,o),
(170,570,o),
(307,649,o),
(389,649,qs),
(472,649,o),
(609,570,o),
(688,433,o),
(688,350,qs),
(688,267,o),
(609,130,o),
(472,51,o),
(389,51,qs)
);
}
);
userData = {
assembly = "NPUSHB[ ]	/* 69 values pushed */
20 1 2 3 1 76 0 4 2 6 2 4 6 128 0 3 0 2 4 3 2 103 0 5 5 0 97 0 0 0 39 77 8 1 6 6 1 97 7 1 1 1 40 1 78 23 23 0 0 23 38 23 37 31 29 22 21 19 18 17 16 0 15 0 14 38 9 8 23
CALL[ ]	/* CallFunction */";
};
width = 778;
}
);
note = uni2786;
unicode = 10118;
},
{
glyphname = uni2787;
layers = (
{
layerId = m01;
shapes = (
{
closed = 1;
nodes = (
(487,-12,o),
(654,85,o),
(751,252,o),
(751,350,qs),
(751,448,o),
(654,615,o),
(487,712,o),
(389,712,qs),
(291,712,o),
(125,615,o),
(27,448,o),
(27,350,qs),
(27,252,o),
(125,85,o),
(291,-12,o),
(389,-12,qs)
);
},
{
closed = 1;
nodes = (
(335,226,o),
(335,278,qs),
(335,305,o),
(366,332,o),
(391,332,qs),
(416,332,o),
(445,304,o),
(445,278,qs),
(445,253,o),
(416,226,o),
(391,226,qs)
);
},
{
closed = 1;
nodes = (
(307,51,o),
(170,131,o),
(91,268,o),
(91,350,qs),
(91,433,o),
(170,570,o),
(307,649,o),
(389,649,qs),
(472,649,o),
(609,569,o),
(688,432,o),
(688,350,qs),
(688,268,o),
(609,131,o),
(472,51,o),
(389,51,qs)
);
},
{
closed = 1;
nodes = (
(443,165,o),
(516,221,o),
(516,272,qs),
(516,304,o),
(488,352,o),
(460,364,q),
(482,374,o),
(508,415,o),
(508,439,qs),
(508,485,o),
(440,535,o),
(390,535,qs),
(337,535,o),
(271,484,o),
(271,439,qs),
(271,389,o),
(320,364,q),
(292,352,o),
(263,303,o),
(263,272,qs),
(263,223,o),
(338,165,o),
(390,165,qs)
);
},
{
closed = 1;
nodes = (
(369,385,o),
(344,410,o),
(344,430,qs),
(344,477,o),
(390,477,qs),
(412,477,o),
(436,452,o),
(436,430,qs),
(436,409,o),
(412,385,o),
(390,385,qs)
);
}
);
userData = {
assembly = "NPUSHB[ ]	/* 99 values pushed */
59 48 2 2 9 1 76 0 6 0 8 9 6 8 105 14 1 9 0 2 3 9 2 105 11 1 3 13 1 7 5 3 7 105 0 4 4 0 97 0 0 0 39 77 12 1 5 5 1 97 10 1 1 1 40 1 78 66 66 43 43 27 27 16 16 0 0 66 76 66 75 72 70 43 65 43 64 54 52 27 42 27 41 35 33 16 26 16 25 22 20 0 15 0 14 38 15 8 23
CALL[ ]	/* CallFunction */";
};
width = 778;
}
);
note = uni2787;
unicode = 10119;
},
{
glyphname = uni2788;
layers = (
{
layerId = m01;
shapes = (
{
closed = 1;
nodes = (
(487,-12,o),
(654,85,o),
(751,252,o),
(751,350,qs),
(751,448,o),
(654,615,o),
(487,712,o),
(389,712,qs),
(291,712,o),
(124,615,o),
(27,448,o),
(27,350,qs),
(27,252,o),
(124,85,o),
(291,-12,o),
(389,-12,qs)
);
},
{
closed = 1;
nodes = (
(307,51,o),
(170,130,o),
(91,267,o),
(91,350,qs),
(91,433,o),
(170,570,o),
(307,649,o),
(389,649,qs),
(472,649,o),
(609,570,o),
(688,433,o),
(688,350,qs),
(688,267,o),
(609,130,o),
(472,51,o),
(389,51,qs)
);
},
{
closed = 1;
nodes = (
(454,165,o),
(522,277,o),
(522,361,qs),
(522,434,o),
(455,535,o),
(382,535,qs),
(330,535,o),
(263,464,o),
(263,414,qs),
(263,378,o),
(294,325,o),
(343,297,o),
(369,297,qs),
(396,297,o),
(438,324,o),
(451,344,q),
(450,296,o),
(421,225,o),
(386,225,qs),
(346,225,o),
(335,270,q),
(269,270,l),
(271,226,o),
(333,165,o),
(385,165,qs)
);
},
{
closed = 1;
nodes = (
(363,359,o),
(332,391,o),
(332,416,qs),
(332,441,o),
(363,473,o),
(386,473,qs),
(411,473,o),
(443,440,o),
(443,415,qs),
(443,391,o),
(411,359,o),
(388,359,qs)
);
}
);
userData = {
assembly = "NPUSHB[ ]	/* 103 values pushed */
40 1 6 10 1 76 0 4 6 5 6 4 5 128 0 7 0 9 10 7 9 105 14 1 10 0 6 4 10 6 105 0 5 13 1 8 3 5 8 105 0 2 2 0 97 0 0 0 39 77 12 1 3 3 1 98 11 1 1 1 40 1 78 57 57 32 32 16 16 0 0 57 68 57 67 63 61 32 56 32 55 51 49 44 42 38 36 35 34 16 31 16 30 24 22 0 15 0 14 38 15 8 23
CALL[ ]	/* CallFunction */";
};
width = 778;
}
);
note = uni2788;
unicode = 10120;
},
{
glyphname = uni278A;
layers = (
{
layerId = m01;
shapes = (
{
closed = 1;
nodes = (
(487,-12,o),
(654,85,o),
(751,252,o),
(751,350,qs),
(751,448,o),
(654,615,o),
(487,712,o),
(389,712,qs),
(291,712,o),
(124,615,o),
(27,448,o),
(27,350,qs),
(27,252,o),
(124,85,o),
(291,-12,o),
(389,-12,qs)
);
},
{
closed = 1;
nodes = (
(276,239,l),
(368,239,l),
(368,452,l),
(280,434,l),
(280,491,l),
(398,533,l),
(436,533,l),
(436,239,l),
(517,239,l),
(517,176,l),
(276,176,l)
);
}
);
userData = {
assembly = "NPUSHB[ ]	/* 62 values pushed */
23 22 21 3 2 3 1 76 4 1 2 3 5 3 2 5 128 0 3 3 0 97 0 0 0 39 77 7 1 5 5 1 97 6 1 1 1 40 1 78 16 16 0 0 16 26 16 26 25 24 20 19 18 17 0 15 0 14 38 8 8 23
CALL[ ]	/* CallFunction */";
};
width = 778;
}
);
note = uni278A;
unicode = 10122;
},
{
glyphname = uni278B;
layers = (
{
layerId = m01;
shapes = (
{
closed = 1;
nodes = (
(487,-12,o),
(654,85,o),
(751,252,o),
(751,350,qs),
(751,448,o),
(654,615,o),
(487,712,o),
(389,712,qs),
(291,712,o),
(124,615,o),
(27,448,o),
(27,350,qs),
(27,252,o),
(124,85,o),
(291,-12,o),
(389,-12,qs)
);
},
{
closed = 1;
nodes = (
(266,227,l),
(372,336,ls),
(385,349,o),
(417,382,o),
(438,415,o),
(438,430,qs),
(438,453,o),
(412,478,o),
(389,478,qs),
(363,478,o),
(337,445,o),
(337,420,q),
(266,420,l),
(267,479,o),
(336,540,o),
(391,540,qs),
(446,540,o),
(509,480,o),
(509,432,qs),
(509,397,o),
(465,337,o),
(426,300,qs),
(366,239,l),
(516,239,l),
(516,176,l),
(266,176,l)
);
}
);
userData = {
assembly = "PUSHB[ ]	/* 6 values pushed */
40 1 6 2 1 76
MPPEM[ ]	/* MeasurePixelPerEm */
PUSHB[ ]	/* 1 value pushed */
27
LT[ ]	/* LessThan */
IF[ ]	/* If */
NPUSHB[ ]	/* 41 values pushed */
0 4 5 2 5 4 2 128 0 3 3 0 97 0 0 0 39 77 0 2 2 5 97 0 5 5 36 77 8 1 6 6 1 98 7 1 1 1 40 1 78
ELSE[ ]	/* Else */
NPUSHB[ ]	/* 39 values pushed */
0 4 5 2 5 4 2 128 0 5 0 2 6 5 2 103 0 3 3 0 97 0 0 0 39 77 8 1 6 6 1 98 7 1 1 1 40 1 78
EIF[ ]	/* EndIf */
NPUSHB[ ]	/* 24 values pushed */
16 16 0 0 16 41 16 41 33 31 29 28 26 24 18 17 0 15 0 14 38 9 8 23
CALL[ ]	/* CallFunction */";
};
width = 778;
}
);
note = uni278B;
unicode = 10123;
},
{
glyphname = uni278C;
layers = (
{
layerId = m01;
shapes = (
{
closed = 1;
nodes = (
(487,-12,o),
(654,85,o),
(751,252,o),
(751,350,qs),
(751,448,o),
(654,615,o),
(487,712,o),
(389,712,qs),
(291,712,o),
(124,615,o),
(27,448,o),
(27,350,qs),
(27,252,o),
(124,85,o),
(291,-12,o),
(389,-12,qs)
);
},
{
closed = 1;
nodes = (
(332,158,o),
(261,220,o),
(260,279,q),
(331,279,l),
(331,251,o),
(365,221,o),
(390,221,qs),
(419,221,o),
(449,250,o),
(449,278,qs),
(449,305,o),
(415,334,o),
(391,334,qs),
(372,334,o),
(353,323,q),
(314,369,l),
(417,460,l),
(270,460,l),
(270,522,l),
(508,522,l),
(508,461,l),
(423,388,l),
(472,382,o),
(519,321,o),
(519,279,qs),
(519,225,o),
(448,158,o),
(390,158,qs)
);
}
);
userData = {
assembly = "NPUSHB[ ]	/* 80 values pushed */
22 1 3 2 27 21 2 4 3 28 1 6 4 3 76 0 3 0 6 5 3 6 103 0 4 0 5 7 4 5 105 0 2 2 0 97 0 0 0 39 77 9 1 7 7 1 97 8 1 1 1 40 1 78 16 16 0 0 16 43 16 42 40 39 37 35 31 29 26 25 24 23 0 15 0 14 38 10 8 23
CALL[ ]	/* CallFunction */";
};
width = 778;
}
);
note = uni278C;
unicode = 10124;
},
{
glyphname = uni278D;
layers = (
{
layerId = m01;
shapes = (
{
closed = 1;
nodes = (
(487,-12,o),
(654,85,o),
(751,252,o),
(751,350,qs),
(751,448,o),
(654,615,o),
(487,712,o),
(389,712,qs),
(291,712,o),
(124,615,o),
(27,448,o),
(27,350,qs),
(27,252,o),
(124,85,o),
(291,-12,o),
(389,-12,qs)
);
},
{
closed = 1;
nodes = (
(403,239,l),
(240,239,l),
(240,298,l),
(359,533,l),
(430,533,l),
(317,302,l),
(409,302,l),
(409,392,l),
(477,392,l),
(477,302,l),
(514,302,l),
(514,239,l),
(477,239,l),
(477,176,l),
(403,176,l)
);
}
);
userData = {
assembly = "PUSHB[ ]	/* 6 values pushed */
27 1 2 3 1 76
MPPEM[ ]	/* MeasurePixelPerEm */
PUSHB[ ]	/* 1 value pushed */
9
LT[ ]	/* LessThan */
IF[ ]	/* If */
NPUSHB[ ]	/* 45 values pushed */
0 4 6 3 6 4 114 5 1 3 2 6 3 2 126 7 1 2 8 8 2 112 0 6 6 0 97 0 0 0 39 77 10 1 8 8 1 98 9 1 1 1 40 1 78
ELSE[ ]	/* Else */
MPPEM[ ]	/* MeasurePixelPerEm */
PUSHB[ ]	/* 1 value pushed */
21
LT[ ]	/* LessThan */
IF[ ]	/* If */
NPUSHB[ ]	/* 46 values pushed */
0 4 6 3 6 4 3 128 5 1 3 2 6 3 2 126 7 1 2 8 8 2 112 0 6 6 0 97 0 0 0 39 77 10 1 8 8 1 98 9 1 1 1 40 1 78
ELSE[ ]	/* Else */
NPUSHB[ ]	/* 47 values pushed */
0 4 6 3 6 4 3 128 5 1 3 2 6 3 2 126 7 1 2 8 6 2 8 126 0 6 6 0 97 0 0 0 39 77 10 1 8 8 1 98 9 1 1 1 40 1 78
EIF[ ]	/* EndIf */
EIF[ ]	/* EndIf */
NPUSHB[ ]	/* 28 values pushed */
16 16 0 0 16 30 16 30 29 28 26 25 24 23 22 21 20 19 18 17 0 15 0 14 38 11 8 23
CALL[ ]	/* CallFunction */";
};
width = 778;
}
);
note = uni278D;
unicode = 10125;
},
{
glyphname = uni278E;
layers = (
{
layerId = m01;
shapes = (
{
closed = 1;
nodes = (
(487,-12,o),
(654,85,o),
(751,252,o),
(751,350,qs),
(751,448,o),
(654,615,o),
(487,712,o),
(389,712,qs),
(291,712,o),
(125,615,o),
(27,448,o),
(27,350,qs),
(27,252,o),
(125,85,o),
(291,-12,o),
(389,-12,qs)
);
},
{
closed = 1;
nodes = (
(337,160,o),
(263,220,o),
(261,269,q),
(332,269,l),
(337,247,o),
(370,223,o),
(393,223,qs),
(419,223,o),
(451,262,o),
(451,290,qs),
(451,318,o),
(420,354,o),
(394,354,qs),
(374,354,o),
(342,334,o),
(335,317,q),
(265,317,l),
(295,524,l),
(498,524,l),
(498,461,l),
(350,461,l),
(335,386,l),
(347,400,o),
(385,413,o),
(406,413,qs),
(462,413,o),
(521,343,o),
(521,291,qs),
(521,233,o),
(449,160,o),
(393,160,qs)
);
}
);
userData = {
assembly = "NPUSHB[ ]	/* 83 values pushed */
24 1 6 2 1 76 0 3 0 2 6 3 2 105 0 5 0 8 7 5 8 103 0 6 0 7 9 6 7 105 0 4 4 0 97 0 0 0 39 77 11 1 9 9 1 97 10 1 1 1 40 1 78 16 16 0 0 16 46 16 45 43 42 40 38 34 32 30 29 28 27 26 25 22 20 0 15 0 14 38 12 8 23
CALL[ ]	/* CallFunction */";
};
width = 778;
}
);
note = uni278E;
unicode = 10126;
},
{
glyphname = uni278F;
layers = (
{
layerId = m01;
shapes = (
{
closed = 1;
nodes = (
(487,-12,o),
(654,85,o),
(751,252,o),
(751,350,qs),
(751,448,o),
(654,615,o),
(487,712,o),
(389,712,qs),
(291,712,o),
(124,615,o),
(27,448,o),
(27,350,qs),
(27,252,o),
(124,85,o),
(291,-12,o),
(389,-12,qs)
);
},
{
closed = 1;
nodes = (
(414,227,o),
(447,257,o),
(447,284,qs),
(447,311,o),
(415,342,o),
(391,342,qs),
(368,342,o),
(336,310,o),
(336,286,qs),
(336,260,o),
(367,227,o),
(392,227,qs)
);
},
{
closed = 1;
nodes = (
(325,165,o),
(256,265,o),
(256,339,qs),
(256,421,o),
(323,535,o),
(393,535,qs),
(444,535,o),
(508,473,o),
(510,430,q),
(443,430,l),
(439,452,o),
(414,476,o),
(393,476,qs),
(330,476,o),
(328,357,q),
(339,377,o),
(383,403,o),
(410,403,qs),
(457,403,o),
(516,334,o),
(516,287,qs),
(516,237,o),
(450,165,o),
(396,165,qs)
);
}
);
userData = {
assembly = "PUSHB[ ]	/* 6 values pushed */
36 1 2 4 1 76
MPPEM[ ]	/* MeasurePixelPerEm */
PUSHB[ ]	/* 1 value pushed */
25
LT[ ]	/* LessThan */
IF[ ]	/* If */
NPUSHB[ ]	/* 49 values pushed */
0 6 5 4 5 6 114 0 2 10 1 3 8 2 3 105 0 7 7 0 97 0 0 0 39 77 0 4 4 5 97 0 5 5 36 77 11 1 8 8 1 97 9 1 1 1 40 1 78
ELSE[ ]	/* Else */
MPPEM[ ]	/* MeasurePixelPerEm */
PUSHB[ ]	/* 1 value pushed */
27
LT[ ]	/* LessThan */
IF[ ]	/* If */
NPUSHB[ ]	/* 47 values pushed */
0 6 5 4 5 6 114 0 5 0 4 2 5 4 105 0 2 10 1 3 8 2 3 105 0 7 7 0 97 0 0 0 39 77 11 1 8 8 1 97 9 1 1 1 40 1 78
ELSE[ ]	/* Else */
NPUSHB[ ]	/* 48 values pushed */
0 6 5 4 5 6 4 128 0 5 0 4 2 5 4 105 0 2 10 1 3 8 2 3 105 0 7 7 0 97 0 0 0 39 77 11 1 8 8 1 97 9 1 1 1 40 1 78
EIF[ ]	/* EndIf */
EIF[ ]	/* EndIf */
NPUSHB[ ]	/* 32 values pushed */
28 28 16 16 0 0 28 51 28 50 46 44 42 41 39 37 34 32 16 27 16 26 22 20 0 15 0 14 38 12 8 23
CALL[ ]	/* CallFunction */";
};
width = 778;
}
);
note = uni278F;
unicode = 10127;
},
{
glyphname = uni2790;
layers = (
{
layerId = m01;
shapes = (
{
closed = 1;
nodes = (
(487,-12,o),
(654,85,o),
(751,252,o),
(751,350,qs),
(751,448,o),
(654,615,o),
(487,712,o),
(389,712,qs),
(291,712,o),
(124,615,o),
(27,448,o),
(27,350,qs),
(27,252,o),
(124,85,o),
(291,-12,o),
(389,-12,qs)
);
},
{
closed = 1;
nodes = (
(447,463,l),
(259,463,l),
(259,524,l),
(524,524,l),
(524,473,l),
(384,167,l),
(308,167,l)
);
}
);
userData = {
assembly = "NPUSHB[ ]	/* 57 values pushed */
17 1 3 2 1 76 0 3 2 4 2 3 4 128 0 2 2 0 97 0 0 0 39 77 6 1 4 4 1 98 5 1 1 1 40 1 78 16 16 0 0 16 22 16 22 21 20 19 18 0 15 0 14 38 7 8 23
CALL[ ]	/* CallFunction */";
};
width = 778;
}
);
note = uni2790;
unicode = 10128;
},
{
glyphname = uni2791;
layers = (
{
layerId = m01;
shapes = (
{
closed = 1;
nodes = (
(487,-12,o),
(654,85,o),
(751,252,o),
(751,350,qs),
(751,448,o),
(654,615,o),
(487,712,o),
(389,712,qs),
(291,712,o),
(124,615,o),
(27,448,o),
(27,350,qs),
(27,252,o),
(124,85,o),
(291,-12,o),
(389,-12,qs)
);
},
{
closed = 1;
nodes = (
(338,165,o),
(263,223,o),
(263,272,qs),
(263,303,o),
(292,352,o),
(320,364,q),
(271,389,o),
(271,439,qs),
(271,484,o),
(337,535,o),
(390,535,qs),
(440,535,o),
(508,485,o),
(508,439,qs),
(508,415,o),
(482,374,o),
(460,364,q),
(488,352,o),
(516,304,o),
(516,272,qs),
(516,221,o),
(443,165,o),
(390,165,qs)
);
},
{
closed = 1;
nodes = (
(416,226,o),
(445,253,o),
(445,278,qs),
(445,304,o),
(416,332,o),
(391,332,qs),
(366,332,o),
(335,305,o),
(335,278,qs),
(335,226,o),
(391,226,qs)
);
},
{
closed = 1;
nodes = (
(412,385,o),
(436,409,o),
(436,430,qs),
(436,452,o),
(412,477,o),
(390,477,qs),
(344,477,o),
(344,430,qs),
(344,410,o),
(369,385,o),
(390,385,qs)
);
}
);
userData = {
assembly = "PUSHB[ ]	/* 7 values pushed */
32 21 2 4 7 1 76
MPPEM[ ]	/* MeasurePixelPerEm */
PUSHB[ ]	/* 1 value pushed */
27
LT[ ]	/* LessThan */
IF[ ]	/* If */
NPUSHB[ ]	/* 43 values pushed */
0 4 10 1 5 3 4 5 105 0 2 2 0 97 0 0 0 39 77 11 1 7 7 6 97 0 6 6 36 77 9 1 3 3 1 97 8 1 1 1 40 1 78
ELSE[ ]	/* Else */
NPUSHB[ ]	/* 41 values pushed */
0 6 11 1 7 4 6 7 105 0 4 10 1 5 3 4 5 105 0 2 2 0 97 0 0 0 39 77 9 1 3 3 1 97 8 1 1 1 40 1 78
EIF[ ]	/* EndIf */
NPUSHB[ ]	/* 34 values pushed */
50 50 39 39 16 16 0 0 50 60 50 59 55 53 39 49 39 48 44 42 16 38 16 37 28 26 0 15 0 14 38 12 8 23
CALL[ ]	/* CallFunction */";
};
width = 778;
}
);
note = uni2791;
unicode = 10129;
},
{
glyphname = uni2792;
layers = (
{
layerId = m01;
shapes = (
{
closed = 1;
nodes = (
(487,-12,o),
(654,85,o),
(751,252,o),
(751,350,qs),
(751,448,o),
(654,615,o),
(487,712,o),
(389,712,qs),
(291,712,o),
(124,615,o),
(27,448,o),
(27,350,qs),
(27,252,o),
(124,85,o),
(291,-12,o),
(389,-12,qs)
);
},
{
closed = 1;
nodes = (
(333,165,o),
(271,226,o),
(269,270,q),
(335,270,l),
(346,225,o),
(386,225,qs),
(421,225,o),
(450,296,o),
(451,344,q),
(438,324,o),
(396,297,o),
(369,297,qs),
(343,297,o),
(294,325,o),
(263,378,o),
(263,414,qs),
(263,464,o),
(330,535,o),
(382,535,qs),
(455,535,o),
(522,434,o),
(522,361,qs),
(522,277,o),
(454,165,o),
(385,165,qs)
);
},
{
closed = 1;
nodes = (
(411,359,o),
(443,391,o),
(443,415,qs),
(443,440,o),
(411,473,o),
(386,473,qs),
(363,473,o),
(332,441,o),
(332,416,qs),
(332,391,o),
(363,359,o),
(388,359,qs)
);
}
);
userData = {
assembly = "PUSHB[ ]	/* 6 values pushed */
31 1 3 8 1 76
MPPEM[ ]	/* MeasurePixelPerEm */
PUSHB[ ]	/* 1 value pushed */
21
LT[ ]	/* LessThan */
IF[ ]	/* If */
NPUSHB[ ]	/* 50 values pushed */
0 5 3 4 3 5 4 128 0 3 0 4 6 3 4 105 0 2 2 0 97 0 0 0 39 77 11 1 8 8 7 97 0 7 7 36 77 10 1 6 6 1 97 9 1 1 1 40 1 78
ELSE[ ]	/* Else */
NPUSHB[ ]	/* 48 values pushed */
0 5 3 4 3 5 4 128 0 7 11 1 8 3 7 8 105 0 3 0 4 6 3 4 105 0 2 2 0 97 0 0 0 39 77 10 1 6 6 1 97 9 1 1 1 40 1 78
EIF[ ]	/* EndIf */
NPUSHB[ ]	/* 32 values pushed */
41 41 16 16 0 0 41 52 41 51 47 45 16 40 16 39 37 36 35 33 29 27 22 20 0 15 0 14 38 12 8 23
CALL[ ]	/* CallFunction */";
};
width = 778;
}
);
note = uni2792;
unicode = 10130;
},
{
glyphname = uni24EA.solid;
layers = (
{
layerId = m01;
shapes = (
{
closed = 1;
nodes = (
(487,-12,o),
(654,85,o),
(751,252,o),
(751,350,qs),
(751,448,o),
(654,615,o),
(487,712,o),
(389,712,qs),
(291,712,o),
(124,615,o),
(27,448,o),
(27,350,qs),
(27,252,o),
(124,85,o),
(291,-12,o),
(389,-12,qs)
);
},
{
closed = 1;
nodes = (
(320,165,o),
(287,216,qs),
(255,264,o),
(255,350,qs),
(255,436,o),
(287,484,qs),
(320,535,o),
(390,535,qs),
(459,535,o),
(492,485,qs),
(524,435,o),
(524,350,qs),
(524,265,o),
(492,215,qs),
(459,165,o),
(390,165,qs)
);
},
{
closed = 1;
nodes = (
(420,230,o),
(435,261,qs),
(450,294,o),
(450,350,qs),
(450,408,o),
(435,439,qs),
(420,470,o),
(390,470,qs),
(359,470,o),
(344,439,qs),
(329,410,o),
(329,350,qs),
(329,291,o),
(344,261,qs),
(359,230,o),
(390,230,qs)
);
}
);
userData = {
assembly = "NPUSHB[ ]	/* 58 values pushed */
0 4 8 1 5 3 4 5 105 0 2 2 0 97 0 0 0 39 77 7 1 3 3 1 97 6 1 1 1 40 1 78 32 32 16 16 0 0 32 47 32 46 40 38 16 31 16 30 24 22 0 15 0 14 38 9 8 23
CALL[ ]	/* CallFunction */";
};
width = 778;
}
);
note = uni24EA.solid;
},
{
glyphname = zero.dnom;
layers = (
{
layerId = m01;
shapes = (
{
closed = 1;
nodes = (
(231,-5,o),
(295,94,o),
(295,177,qs),
(295,260,o),
(231,358,o),
(162,358,qs),
(93,358,o),
(29,258,o),
(29,177,qs),
(29,96,o),
(93,-5,o),
(162,-5,qs)
);
},
{
closed = 1;
nodes = (
(133,59,o),
(100,116,o),
(100,177,qs),
(100,237,o),
(133,295,o),
(162,295,qs),
(195,295,o),
(224,229,o),
(224,177,qs),
(224,125,o),
(195,59,o),
(162,59,qs)
);
}
);
userData = {
assembly = "NPUSHB[ ]	/* 39 values pushed */
0 0 0 2 3 0 2 105 5 1 3 3 1 97 4 1 1 1 34 1 78 12 12 0 0 12 23 12 22 18 16 0 11 0 10 36 6 8 23
CALL[ ]	/* CallFunction */";
};
width = 324;
}
);
note = zero.dnom;
},
{
glyphname = one.dnom;
layers = (
{
layerId = m01;
shapes = (
{
closed = 1;
nodes = (
(283,0,l),
(283,62,l),
(201,62,l),
(201,353,l),
(164,353,l),
(44,309,l),
(44,254,l),
(134,274,l),
(134,62,l),
(41,62,l),
(41,0,l)
);
}
);
userData = {
assembly = "NPUSHB[ ]	/* 32 values pushed */
4 3 2 3 0 1 1 76 0 1 0 1 133 2 1 0 0 3 96 0 3 3 34 3 78 17 17 20 16 4 8 26
CALL[ ]	/* CallFunction */";
};
width = 316;
}
);
note = one.dnom;
},
{
glyphname = two.dnom;
layers = (
{
layerId = m01;
shapes = (
{
closed = 1;
nodes = (
(32,0,l),
(277,0,l),
(277,62,l),
(128,62,l),
(192,126,ls),
(233,168,o),
(268,218,o),
(268,251,qs),
(268,300,o),
(208,358,o),
(153,358,qs),
(99,358,o),
(33,297,o),
(32,241,q),
(101,241,l),
(101,265,o),
(127,298,o),
(152,298,qs),
(174,298,o),
(199,272,o),
(199,250,qs),
(199,231,o),
(168,194,o),
(128,152,qs),
(32,51,l)
);
}
);
userData = {
assembly = "NPUSHB[ ]	/* 41 values pushed */
24 1 4 3 1 76 0 1 0 3 0 1 3 128 0 2 0 0 1 2 0 105 0 3 3 4 95 0 4 4 34 4 78 17 22 34 18 37 5 8 27
CALL[ ]	/* CallFunction */";
};
width = 311;
}
);
note = two.dnom;
},
{
glyphname = three.dnom;
layers = (
{
layerId = m01;
shapes = (
{
closed = 1;
nodes = (
(217,-5,o),
(286,59,o),
(286,114,qs),
(286,156,o),
(237,214,o),
(193,221,q),
(275,296,l),
(275,353,l),
(43,353,l),
(43,292,l),
(184,292,l),
(84,202,l),
(123,156,l),
(143,167,o),
(160,167,qs),
(186,167,o),
(218,139,o),
(218,113,qs),
(218,86,o),
(187,57,o),
(160,57,qs),
(133,57,o),
(101,87,o),
(101,111,q),
(32,111,l),
(33,56,o),
(103,-5,o),
(160,-5,qs)
);
}
);
userData = {
assembly = "NPUSHB[ ]	/* 15 values pushed */
20 1 3 4 21 15 2 2 3 14 1 0 2 3 76
MPPEM[ ]	/* MeasurePixelPerEm */
PUSHB[ ]	/* 1 value pushed */
11
LT[ ]	/* LessThan */
IF[ ]	/* If */
NPUSHB[ ]	/* 34 values pushed */
0 2 3 0 3 2 114 0 0 1 3 0 1 126 0 4 0 3 2 4 3 103 0 1 1 5 97 6 1 5 5 34 5 78
ELSE[ ]	/* Else */
NPUSHB[ ]	/* 35 values pushed */
0 2 3 0 3 2 0 128 0 0 1 3 0 1 126 0 4 0 3 2 4 3 103 0 1 1 5 97 6 1 5 5 34 5 78
EIF[ ]	/* EndIf */
NPUSHB[ ]	/* 14 values pushed */
0 0 0 27 0 26 17 19 36 34 18 7 8 27
CALL[ ]	/* CallFunction */";
};
width = 318;
}
);
note = three.dnom;
},
{
glyphname = four.dnom;
layers = (
{
layerId = m01;
shapes = (
{
closed = 1;
nodes = (
(249,0,l),
(249,65,l),
(289,65,l),
(289,127,l),
(249,127,l),
(249,217,l),
(182,217,l),
(182,127,l),
(97,127,l),
(209,353,l),
(138,353,l),
(20,120,l),
(20,65,l),
(178,65,l),
(178,0,l)
);
}
);
userData = {
assembly = "NPUSHB[ ]	/* 42 values pushed */
2 1 0 2 1 76 0 1 3 1 133 4 1 2 5 1 0 6 2 0 104 0 3 3 6 95 0 6 6 34 6 78 17 17 17 17 17 18 16 7 8 29
CALL[ ]	/* CallFunction */";
};
width = 304;
}
);
note = four.dnom;
},
{
glyphname = five.dnom;
layers = (
{
layerId = m01;
shapes = (
{
closed = 1;
nodes = (
(212,-5,o),
(283,67,o),
(283,123,qs),
(283,175,o),
(221,245,o),
(168,245,qs),
(128,245,o),
(102,224,q),
(115,291,l),
(260,291,l),
(260,353,l),
(62,353,l),
(31,149,l),
(99,149,l),
(107,167,o),
(137,187,o),
(157,187,qs),
(183,187,o),
(215,152,o),
(215,123,qs),
(215,94,o),
(182,57,o),
(156,57,qs),
(133,57,o),
(101,82,o),
(96,103,q),
(27,103,l),
(30,55,o),
(99,-5,o),
(156,-5,qs)
);
}
);
userData = {
assembly = "PUSHB[ ]	/* 6 values pushed */
21 1 2 6 1 76
MPPEM[ ]	/* MeasurePixelPerEm */
PUSHB[ ]	/* 1 value pushed */
9
LT[ ]	/* LessThan */
IF[ ]	/* If */
NPUSHB[ ]	/* 42 values pushed */
0 3 2 0 5 3 114 0 0 1 2 0 1 126 0 4 0 5 6 4 5 103 0 6 0 2 3 6 2 105 0 1 1 7 97 8 1 7 7 34 7 78
ELSE[ ]	/* Else */
NPUSHB[ ]	/* 43 values pushed */
0 3 2 0 2 3 0 128 0 0 1 2 0 1 126 0 4 0 5 6 4 5 103 0 6 0 2 3 6 2 105 0 1 1 7 97 8 1 7 7 34 7 78
EIF[ ]	/* EndIf */
NPUSHB[ ]	/* 16 values pushed */
0 0 0 29 0 28 34 17 17 18 36 34 18 9 8 29
CALL[ ]	/* CallFunction */";
};
width = 312;
}
);
note = five.dnom;
},
{
glyphname = six.dnom;
layers = (
{
layerId = m01;
shapes = (
{
closed = 1;
nodes = (
(217,-5,o),
(283,66,o),
(283,115,qs),
(283,166,o),
(220,231,o),
(176,231,qs),
(153,231,o),
(112,210,o),
(99,192,q),
(101,242,o),
(133,299,o),
(163,299,qs),
(203,299,o),
(211,256,q),
(277,256,l),
(272,302,o),
(211,358,o),
(163,358,qs),
(95,358,o),
(29,245,o),
(29,165,qs),
(29,91,o),
(98,-5,o),
(165,-5,qs)
);
},
{
closed = 1;
nodes = (
(138,57,o),
(107,89,o),
(107,114,qs),
(107,137,o),
(138,170,o),
(161,170,qs),
(185,170,o),
(215,138,o),
(215,113,qs),
(215,88,o),
(185,57,o),
(162,57,qs)
);
}
);
userData = {
assembly = "NPUSHB[ ]	/* 64 values pushed */
14 1 5 3 1 76 0 1 2 3 2 1 3 128 0 0 0 2 1 0 2 105 0 3 0 5 6 3 5 105 8 1 6 6 4 97 7 1 4 4 34 4 78 24 24 0 0 24 35 24 34 30 28 0 23 0 22 36 33 18 36 9 8 26
CALL[ ]	/* CallFunction */";
};
width = 312;
}
);
note = six.dnom;
},
{
glyphname = seven.dnom;
layers = (
{
layerId = m01;
shapes = (
{
closed = 1;
nodes = (
(150,0,l),
(289,303,l),
(289,353,l),
(29,353,l),
(29,291,l),
(213,291,l),
(76,0,l)
);
}
);
userData = {
assembly = "NPUSHB[ ]	/* 26 values pushed */
4 1 0 1 1 76 0 1 0 0 2 1 0 103 0 2 2 34 2 78 18 17 16 3 8 25
CALL[ ]	/* CallFunction */";
};
width = 318;
}
);
note = seven.dnom;
},
{
glyphname = eight.dnom;
layers = (
{
layerId = m01;
shapes = (
{
closed = 1;
nodes = (
(204,-5,o),
(276,52,o),
(276,101,qs),
(276,131,o),
(249,178,o),
(224,190,q),
(244,201,o),
(268,240,o),
(268,263,qs),
(268,307,o),
(202,358,o),
(153,358,qs),
(104,358,o),
(37,307,o),
(37,263,qs),
(37,240,o),
(60,201,o),
(81,190,q),
(56,177,o),
(29,131,o),
(29,101,qs),
(29,54,o),
(100,-5,o),
(153,-5,qs)
);
},
{
closed = 1;
nodes = (
(126,56,o),
(98,82,o),
(98,106,qs),
(98,131,o),
(127,158,o),
(153,158,qs),
(179,158,o),
(207,131,o),
(207,106,qs),
(207,82,o),
(178,56,o),
(153,56,qs)
);
},
{
closed = 1;
nodes = (
(132,212,o),
(107,235,o),
(107,255,qs),
(107,277,o),
(131,300,o),
(153,300,qs),
(174,300,o),
(199,276,o),
(199,255,qs),
(199,236,o),
(173,212,o),
(153,212,qs)
);
}
);
userData = {
assembly = "NPUSHB[ ]	/* 63 values pushed */
17 5 2 2 5 1 76 0 0 0 4 5 0 4 105 8 1 5 0 2 3 5 2 105 7 1 3 3 1 97 6 1 1 1 34 1 78 36 36 24 24 0 0 36 47 36 46 42 40 24 35 24 34 30 28 0 23 0 22 42 9 8 23
CALL[ ]	/* CallFunction */";
};
width = 305;
}
);
note = eight.dnom;
},
{
glyphname = nine.dnom;
layers = (
{
layerId = m01;
shapes = (
{
closed = 1;
nodes = (
(217,-5,o),
(284,108,o),
(284,188,qs),
(284,262,o),
(215,358,o),
(148,358,qs),
(96,358,o),
(29,287,o),
(29,238,qs),
(29,191,o),
(91,123,o),
(137,123,qs),
(160,123,o),
(201,144,o),
(214,161,q),
(212,111,o),
(180,55,o),
(150,55,qs),
(110,55,o),
(102,99,q),
(36,99,l),
(41,52,o),
(102,-5,o),
(150,-5,qs)
);
},
{
closed = 1;
nodes = (
(128,184,o),
(98,215,o),
(98,241,qs),
(98,265,o),
(128,297,o),
(151,297,qs),
(175,297,o),
(206,265,o),
(206,240,qs),
(206,216,o),
(175,184,o),
(152,184,qs)
);
}
);
userData = {
assembly = "NPUSHB[ ]	/* 64 values pushed */
8 1 2 6 1 76 0 0 2 1 2 0 1 128 0 3 0 5 6 3 5 105 8 1 6 0 2 0 6 2 105 0 1 1 4 97 7 1 4 4 34 4 78 24 24 0 0 24 35 24 34 30 28 0 23 0 22 36 36 33 18 9 8 26
CALL[ ]	/* CallFunction */";
};
width = 313;
}
);
note = nine.dnom;
},
{
glyphname = zero.numr;
layers = (
{
layerId = m01;
shapes = (
{
closed = 1;
nodes = (
(231,342,o),
(295,441,o),
(295,524,qs),
(295,607,o),
(231,705,o),
(162,705,qs),
(93,705,o),
(29,605,o),
(29,524,qs),
(29,443,o),
(93,342,o),
(162,342,qs)
);
},
{
closed = 1;
nodes = (
(133,406,o),
(100,463,o),
(100,524,qs),
(100,584,o),
(133,642,o),
(162,642,qs),
(195,642,o),
(224,576,o),
(224,524,qs),
(224,472,o),
(195,406,o),
(162,406,qs)
);
}
);
userData = {
assembly = "NPUSHB[ ]	/* 38 values pushed */
5 1 3 4 1 1 3 1 101 0 2 2 0 97 0 0 0 33 2 78 12 12 0 0 12 23 12 22 18 16 0 11 0 10 36 6 8 23
CALL[ ]	/* CallFunction */";
};
width = 324;
}
);
note = zero.numr;
},
{
glyphname = one.numr;
layers = (
{
layerId = m01;
shapes = (
{
closed = 1;
nodes = (
(283,347,l),
(283,409,l),
(201,409,l),
(201,700,l),
(164,700,l),
(44,656,l),
(44,601,l),
(134,621,l),
(134,409,l),
(41,409,l),
(41,347,l)
);
}
);
userData = {
assembly = "NPUSHB[ ]	/* 29 values pushed */
4 3 2 3 0 1 1 76 2 1 0 0 3 0 3 100 0 1 1 33 1 78 17 17 20 16 4 8 26
CALL[ ]	/* CallFunction */";
};
width = 316;
}
);
note = one.numr;
},
{
glyphname = two.numr;
layers = (
{
layerId = m01;
shapes = (
{
closed = 1;
nodes = (
(32,347,l),
(277,347,l),
(277,409,l),
(128,409,l),
(192,473,ls),
(233,515,o),
(268,565,o),
(268,598,qs),
(268,647,o),
(208,705,o),
(153,705,qs),
(99,705,o),
(33,644,o),
(32,588,q),
(101,588,l),
(101,612,o),
(127,645,o),
(152,645,qs),
(174,645,o),
(199,619,o),
(199,597,qs),
(199,578,o),
(168,541,o),
(128,499,qs),
(32,398,l)
);
}
);
userData = {
assembly = "NPUSHB[ ]	/* 40 values pushed */
24 1 4 3 1 76 0 1 0 3 0 1 3 128 0 3 0 4 3 4 99 0 0 0 2 97 0 2 2 33 0 78 17 22 34 18 37 5 8 27
CALL[ ]	/* CallFunction */";
};
width = 311;
}
);
note = two.numr;
},
{
glyphname = three.numr;
layers = (
{
layerId = m01;
shapes = (
{
closed = 1;
nodes = (
(217,342,o),
(286,406,o),
(286,461,qs),
(286,503,o),
(237,561,o),
(193,568,q),
(275,643,l),
(275,700,l),
(43,700,l),
(43,639,l),
(184,639,l),
(84,549,l),
(123,503,l),
(143,514,o),
(160,514,qs),
(186,514,o),
(218,486,o),
(218,460,qs),
(218,433,o),
(187,404,o),
(160,404,qs),
(133,404,o),
(101,434,o),
(101,458,q),
(32,458,l),
(33,403,o),
(103,342,o),
(160,342,qs)
);
}
);
userData = {
assembly = "NPUSHB[ ]	/* 15 values pushed */
20 1 3 4 21 15 2 2 3 14 1 0 2 3 76
MPPEM[ ]	/* MeasurePixelPerEm */
PUSHB[ ]	/* 1 value pushed */
11
LT[ ]	/* LessThan */
IF[ ]	/* If */
NPUSHB[ ]	/* 33 values pushed */
0 2 3 0 3 2 114 0 0 1 3 0 1 126 0 1 6 1 5 1 5 101 0 3 3 4 95 0 4 4 33 3 78
ELSE[ ]	/* Else */
NPUSHB[ ]	/* 34 values pushed */
0 2 3 0 3 2 0 128 0 0 1 3 0 1 126 0 1 6 1 5 1 5 101 0 3 3 4 95 0 4 4 33 3 78
EIF[ ]	/* EndIf */
NPUSHB[ ]	/* 14 values pushed */
0 0 0 27 0 26 17 19 36 34 18 7 8 27
CALL[ ]	/* CallFunction */";
};
width = 318;
}
);
note = three.numr;
},
{
glyphname = four.numr;
layers = (
{
layerId = m01;
shapes = (
{
closed = 1;
nodes = (
(249,347,l),
(249,412,l),
(289,412,l),
(289,474,l),
(249,474,l),
(249,564,l),
(182,564,l),
(182,474,l),
(97,474,l),
(209,700,l),
(138,700,l),
(20,467,l),
(20,412,l),
(178,412,l),
(178,347,l)
);
}
);
userData = {
assembly = "PUSHB[ ]	/* 6 values pushed */
2 1 0 2 1 76
MPPEM[ ]	/* MeasurePixelPerEm */
PUSHB[ ]	/* 1 value pushed */
23
LT[ ]	/* LessThan */
IF[ ]	/* If */
NPUSHB[ ]	/* 25 values pushed */
0 3 0 6 3 6 99 0 1 1 33 77 5 1 0 0 2 95 4 1 2 2 36 0 78
ELSE[ ]	/* Else */
NPUSHB[ ]	/* 23 values pushed */
4 1 2 5 1 0 6 2 0 104 0 3 0 6 3 6 99 0 1 1 33 1 78
EIF[ ]	/* EndIf */
NPUSHB[ ]	/* 10 values pushed */
17 17 17 17 17 18 16 7 8 29
CALL[ ]	/* CallFunction */";
};
width = 304;
}
);
note = four.numr;
},
{
glyphname = five.numr;
layers = (
{
layerId = m01;
shapes = (
{
closed = 1;
nodes = (
(212,342,o),
(283,414,o),
(283,470,qs),
(283,522,o),
(221,592,o),
(168,592,qs),
(128,592,o),
(102,571,q),
(115,638,l),
(260,638,l),
(260,700,l),
(62,700,l),
(31,496,l),
(99,496,l),
(107,514,o),
(137,534,o),
(157,534,qs),
(183,534,o),
(215,499,o),
(215,470,qs),
(215,441,o),
(182,404,o),
(156,404,qs),
(133,404,o),
(101,429,o),
(96,450,q),
(27,450,l),
(30,402,o),
(99,342,o),
(156,342,qs)
);
}
);
userData = {
assembly = "PUSHB[ ]	/* 6 values pushed */
21 1 2 6 1 76
MPPEM[ ]	/* MeasurePixelPerEm */
PUSHB[ ]	/* 1 value pushed */
9
LT[ ]	/* LessThan */
IF[ ]	/* If */
NPUSHB[ ]	/* 41 values pushed */
0 3 2 0 5 3 114 0 0 1 2 0 1 126 0 6 0 2 3 6 2 105 0 1 8 1 7 1 7 101 0 5 5 4 95 0 4 4 33 5 78
ELSE[ ]	/* Else */
NPUSHB[ ]	/* 42 values pushed */
0 3 2 0 2 3 0 128 0 0 1 2 0 1 126 0 6 0 2 3 6 2 105 0 1 8 1 7 1 7 101 0 5 5 4 95 0 4 4 33 5 78
EIF[ ]	/* EndIf */
NPUSHB[ ]	/* 16 values pushed */
0 0 0 29 0 28 34 17 17 18 36 34 18 9 8 29
CALL[ ]	/* CallFunction */";
};
width = 312;
}
);
note = five.numr;
},
{
glyphname = six.numr;
layers = (
{
layerId = m01;
shapes = (
{
closed = 1;
nodes = (
(217,342,o),
(283,413,o),
(283,462,qs),
(283,513,o),
(220,578,o),
(176,578,qs),
(153,578,o),
(112,557,o),
(99,539,q),
(101,589,o),
(133,646,o),
(163,646,qs),
(203,646,o),
(211,603,q),
(277,603,l),
(272,649,o),
(211,705,o),
(163,705,qs),
(95,705,o),
(29,592,o),
(29,512,qs),
(29,438,o),
(98,342,o),
(165,342,qs)
);
},
{
closed = 1;
nodes = (
(138,404,o),
(107,436,o),
(107,461,qs),
(107,484,o),
(138,517,o),
(161,517,qs),
(185,517,o),
(215,485,o),
(215,460,qs),
(215,435,o),
(185,404,o),
(162,404,qs)
);
}
);
userData = {
assembly = "NPUSHB[ ]	/* 63 values pushed */
14 1 5 3 1 76 0 1 2 3 2 1 3 128 0 3 0 5 6 3 5 105 8 1 6 7 1 4 6 4 101 0 2 2 0 97 0 0 0 33 2 78 24 24 0 0 24 35 24 34 30 28 0 23 0 22 36 33 18 36 9 8 26
CALL[ ]	/* CallFunction */";
};
width = 312;
}
);
note = six.numr;
},
{
glyphname = seven.numr;
layers = (
{
layerId = m01;
shapes = (
{
closed = 1;
nodes = (
(150,347,l),
(289,650,l),
(289,700,l),
(29,700,l),
(29,638,l),
(213,638,l),
(76,347,l)
);
}
);
userData = {
assembly = "NPUSHB[ ]	/* 28 values pushed */
4 1 0 1 1 76 0 2 0 2 134 0 0 0 1 95 0 1 1 33 0 78 18 17 16 3 8 25
CALL[ ]	/* CallFunction */";
};
width = 318;
}
);
note = seven.numr;
},
{
glyphname = eight.numr;
layers = (
{
layerId = m01;
shapes = (
{
closed = 1;
nodes = (
(204,342,o),
(276,399,o),
(276,448,qs),
(276,478,o),
(249,525,o),
(224,537,q),
(244,548,o),
(268,587,o),
(268,610,qs),
(268,654,o),
(202,705,o),
(153,705,qs),
(104,705,o),
(37,654,o),
(37,610,qs),
(37,587,o),
(60,548,o),
(81,537,q),
(56,524,o),
(29,478,o),
(29,448,qs),
(29,401,o),
(100,342,o),
(153,342,qs)
);
},
{
closed = 1;
nodes = (
(126,403,o),
(98,429,o),
(98,453,qs),
(98,478,o),
(127,505,o),
(153,505,qs),
(179,505,o),
(207,478,o),
(207,453,qs),
(207,429,o),
(178,403,o),
(153,403,qs)
);
},
{
closed = 1;
nodes = (
(132,559,o),
(107,582,o),
(107,602,qs),
(107,624,o),
(131,647,o),
(153,647,qs),
(174,647,o),
(199,623,o),
(199,602,qs),
(199,583,o),
(173,559,o),
(153,559,qs)
);
}
);
userData = {
assembly = "NPUSHB[ ]	/* 62 values pushed */
17 5 2 2 5 1 76 8 1 5 0 2 3 5 2 105 7 1 3 6 1 1 3 1 101 0 4 4 0 97 0 0 0 33 4 78 36 36 24 24 0 0 36 47 36 46 42 40 24 35 24 34 30 28 0 23 0 22 42 9 8 23
CALL[ ]	/* CallFunction */";
};
width = 305;
}
);
note = eight.numr;
},
{
glyphname = nine.numr;
layers = (
{
layerId = m01;
shapes = (
{
closed = 1;
nodes = (
(217,342,o),
(284,455,o),
(284,535,qs),
(284,609,o),
(215,705,o),
(148,705,qs),
(96,705,o),
(29,634,o),
(29,585,qs),
(29,538,o),
(91,470,o),
(137,470,qs),
(160,470,o),
(201,491,o),
(214,508,q),
(212,458,o),
(180,402,o),
(150,402,qs),
(110,402,o),
(102,446,q),
(36,446,l),
(41,399,o),
(102,342,o),
(150,342,qs)
);
},
{
closed = 1;
nodes = (
(128,531,o),
(98,562,o),
(98,588,qs),
(98,612,o),
(128,644,o),
(151,644,qs),
(175,644,o),
(206,612,o),
(206,587,qs),
(206,563,o),
(175,531,o),
(152,531,qs)
);
}
);
userData = {
assembly = "PUSHB[ ]	/* 6 values pushed */
8 1 2 6 1 76
MPPEM[ ]	/* MeasurePixelPerEm */
PUSHB[ ]	/* 1 value pushed */
21
LT[ ]	/* LessThan */
IF[ ]	/* If */
NPUSHB[ ]	/* 38 values pushed */
0 0 2 1 2 0 1 128 0 1 7 1 4 1 4 101 0 5 5 3 97 0 3 3 33 77 0 2 2 6 97 8 1 6 6 42 2 78
ELSE[ ]	/* Else */
NPUSHB[ ]	/* 36 values pushed */
0 0 2 1 2 0 1 128 8 1 6 0 2 0 6 2 105 0 1 7 1 4 1 4 101 0 5 5 3 97 0 3 3 33 5 78
EIF[ ]	/* EndIf */
NPUSHB[ ]	/* 21 values pushed */
24 24 0 0 24 35 24 34 30 28 0 23 0 22 36 36 33 18 9 8 26
CALL[ ]	/* CallFunction */";
};
width = 313;
}
);
note = nine.numr;
},
{
glyphname = fraction;
layers = (
{
layerId = m01;
shapes = (
{
closed = 1;
nodes = (
(77,0,l),
(597,700,l),
(513,700,l),
(-7,0,l)
);
}
);
userData = {
assembly = "NPUSHB[ ]	/* 16 values pushed */
0 0 0 33 77 0 1 1 34 1 78 17 16 2 8 24
CALL[ ]	/* CallFunction */";
};
width = 585;
}
);
note = fraction;
unicode = 8260;
},
{
glyphname = onehalf;
layers = (
{
layerId = m01;
shapes = (
{
closed = 1;
nodes = (
(279,347,l),
(279,409,l),
(198,409,l),
(198,700,l),
(160,700,l),
(41,657,l),
(41,601,l),
(130,621,l),
(130,409,l),
(38,409,l),
(38,347,l)
);
},
{
closed = 1;
nodes = (
(176,0,l),
(696,700,l),
(612,700,l),
(92,0,l)
);
},
{
closed = 1;
nodes = (
(723,0,l),
(723,62,l),
(574,62,l),
(638,126,ls),
(679,168,o),
(714,218,o),
(714,251,qs),
(714,300,o),
(654,358,o),
(599,358,qs),
(545,358,o),
(479,296,o),
(478,241,q),
(547,241,l),
(547,265,o),
(573,298,o),
(598,298,qs),
(620,298,o),
(645,272,o),
(645,250,qs),
(645,231,o),
(614,194,o),
(574,152,qs),
(478,51,l),
(478,0,l)
);
}
);
userData = {
assembly = "PUSHB[ ]	/* 2 values pushed */
6 100
WCVTP[ ]	/* WriteCVTInPixels */
NPUSHB[ ]	/* 76 values pushed */
4 3 2 3 0 1 15 1 5 9 2 76 4 1 1 0 1 133 0 7 6 9 6 7 9 128 2 1 0 0 3 6 0 3 104 0 8 0 6 7 8 6 105 0 9 5 5 9 87 0 9 9 5 95 10 1 5 9 5 79 39 38 37 36 34 18 39 17 17 17 17 20 16 11 8 31
CALL[ ]	/* CallFunction */
PUSHB[ ]	/* 2 values pushed */
6 0
WCVTP[ ]	/* WriteCVTInPixels */";
};
width = 768;
}
);
note = onehalf;
unicode = 189;
},
{
glyphname = onequarter;
layers = (
{
layerId = m01;
shapes = (
{
closed = 1;
nodes = (
(173,0,l),
(693,700,l),
(609,700,l),
(89,0,l)
);
},
{
closed = 1;
nodes = (
(279,347,l),
(279,409,l),
(198,409,l),
(198,700,l),
(160,700,l),
(41,657,l),
(41,601,l),
(130,621,l),
(130,409,l),
(38,409,l),
(38,347,l)
);
},
{
closed = 1;
nodes = (
(682,0,l),
(682,65,l),
(722,65,l),
(722,127,l),
(682,127,l),
(682,217,l),
(615,217,l),
(615,127,l),
(525,127,l),
(637,353,l),
(566,353,l),
(448,120,l),
(448,65,l),
(611,65,l),
(611,0,l)
);
}
);
userData = {
assembly = "PUSHB[ ]	/* 2 values pushed */
6 100
WCVTP[ ]	/* WriteCVTInPixels */
NPUSHB[ ]	/* 82 values pushed */
8 7 6 3 2 0 17 1 6 8 2 76 3 1 0 2 0 133 0 7 2 5 2 7 5 128 4 1 2 0 5 9 2 5 104 0 9 8 1 9 87 10 1 8 11 1 6 1 8 6 104 0 9 9 1 95 12 1 1 9 1 79 29 28 27 26 25 24 23 22 17 18 17 17 17 20 17 17 16 13 8 31
CALL[ ]	/* CallFunction */
PUSHB[ ]	/* 2 values pushed */
6 0
WCVTP[ ]	/* WriteCVTInPixels */";
};
width = 762;
}
);
note = onequarter;
unicode = 188;
},
{
glyphname = threequarters;
layers = (
{
layerId = m01;
shapes = (
{
closed = 1;
nodes = (
(178,0,l),
(698,700,l),
(613,700,l),
(94,0,l)
);
},
{
closed = 1;
nodes = (
(686,0,l),
(686,65,l),
(726,65,l),
(726,127,l),
(686,127,l),
(686,217,l),
(620,217,l),
(620,127,l),
(530,127,l),
(641,353,l),
(570,353,l),
(453,120,l),
(453,65,l),
(616,65,l),
(616,0,l)
);
},
{
closed = 1;
nodes = (
(225,342,o),
(294,406,o),
(294,461,qs),
(294,503,o),
(245,561,o),
(201,568,q),
(283,643,l),
(283,700,l),
(51,700,l),
(51,639,l),
(192,639,l),
(92,549,l),
(131,503,l),
(151,514,o),
(168,514,qs),
(194,514,o),
(226,486,o),
(226,460,qs),
(226,433,o),
(195,404,o),
(168,404,qs),
(141,404,o),
(109,434,o),
(109,458,q),
(40,458,l),
(41,403,o),
(111,342,o),
(168,342,qs)
);
}
);
userData = {
assembly = "PUSHB[ ]	/* 2 values pushed */
6 100
WCVTP[ ]	/* WriteCVTInPixels */
NPUSHB[ ]	/* 19 values pushed */
39 1 12 0 40 34 2 11 12 33 1 9 11 6 1 2 4 4 76
MPPEM[ ]	/* MeasurePixelPerEm */
PUSHB[ ]	/* 1 value pushed */
11
LT[ ]	/* LessThan */
IF[ ]	/* If */
NPUSHB[ ]	/* 67 values pushed */
0 11 12 9 12 11 114 0 9 10 12 9 10 126 0 3 10 14 10 3 14 128 13 1 0 0 12 11 0 12 103 0 10 15 1 14 5 10 14 105 0 5 4 1 5 87 6 1 4 7 1 2 1 4 2 104 0 5 5 1 95 8 1 1 5 1 79
ELSE[ ]	/* Else */
NPUSHB[ ]	/* 68 values pushed */
0 11 12 9 12 11 9 128 0 9 10 12 9 10 126 0 3 10 14 10 3 14 128 13 1 0 0 12 11 0 12 103 0 10 15 1 14 5 10 14 105 0 5 4 1 5 87 6 1 4 7 1 2 1 4 2 104 0 5 5 1 95 8 1 1 5 1 79
EIF[ ]	/* EndIf */
NPUSHB[ ]	/* 28 values pushed */
19 19 19 46 19 45 38 37 36 35 32 30 26 24 22 21 17 17 17 17 17 18 17 17 16 16 8 31
CALL[ ]	/* CallFunction */
PUSHB[ ]	/* 2 values pushed */
6 0
WCVTP[ ]	/* WriteCVTInPixels */";
};
width = 767;
}
);
note = threequarters;
unicode = 190;
},
{
glyphname = oneeighth;
layers = (
{
layerId = m01;
shapes = (
{
closed = 1;
nodes = (
(174,0,l),
(694,700,l),
(609,700,l),
(90,0,l)
);
},
{
closed = 1;
nodes = (
(279,347,l),
(279,409,l),
(198,409,l),
(198,700,l),
(160,700,l),
(41,657,l),
(41,601,l),
(130,621,l),
(130,409,l),
(38,409,l),
(38,347,l)
);
},
{
closed = 1;
nodes = (
(568,56,o),
(540,82,o),
(540,106,qs),
(540,131,o),
(569,158,o),
(595,158,qs),
(621,158,o),
(649,131,o),
(649,106,qs),
(649,82,o),
(620,56,o),
(595,56,qs)
);
},
{
closed = 1;
nodes = (
(645,-5,o),
(718,52,o),
(718,101,qs),
(718,130,o),
(691,178,o),
(665,190,q),
(685,201,o),
(710,240,o),
(710,263,qs),
(710,307,o),
(643,358,o),
(594,358,qs),
(545,358,o),
(479,307,o),
(479,263,qs),
(479,240,o),
(502,201,o),
(523,190,q),
(498,177,o),
(470,130,o),
(470,101,qs),
(470,54,o),
(541,-5,o),
(594,-5,qs)
);
},
{
closed = 1;
nodes = (
(574,212,o),
(548,236,o),
(548,255,qs),
(548,277,o),
(572,300,o),
(594,300,qs),
(616,300,o),
(640,276,o),
(640,255,qs),
(640,235,o),
(615,212,o),
(594,212,qs)
);
}
);
userData = {
assembly = "NPUSHB[ ]	/* 13 values pushed */
8 7 6 3 2 0 44 32 2 6 11 2 76
MPPEM[ ]	/* MeasurePixelPerEm */
PUSHB[ ]	/* 1 value pushed */
46
LT[ ]	/* LessThan */
IF[ ]	/* If */
NPUSHB[ ]	/* 46 values pushed */
4 1 2 0 5 10 2 5 104 0 8 0 10 11 8 10 106 14 1 11 0 6 7 11 6 105 3 1 0 0 33 77 12 1 7 7 1 97 13 9 2 1 1 34 1 78
ELSE[ ]	/* Else */
NPUSHB[ ]	/* 50 values pushed */
4 1 2 0 5 10 2 5 104 0 8 0 10 11 8 10 106 14 1 11 0 6 7 11 6 105 3 1 0 0 33 77 0 1 1 34 77 12 1 7 7 9 97 13 1 9 9 34 9 78
EIF[ ]	/* EndIf */
NPUSHB[ ]	/* 32 values pushed */
51 51 27 27 15 15 51 62 51 61 57 55 27 50 27 49 39 37 15 26 15 25 37 17 17 20 17 17 16 15 8 29
CALL[ ]	/* CallFunction */";
};
width = 764;
}
);
note = oneeighth;
unicode = 8539;
},
{
glyphname = threeeighths;
layers = (
{
layerId = m01;
shapes = (
{
closed = 1;
nodes = (
(173,0,l),
(693,700,l),
(608,700,l),
(89,0,l)
);
},
{
closed = 1;
nodes = (
(225,342,o),
(294,406,o),
(294,461,qs),
(294,502,o),
(244,561,o),
(200,568,q),
(283,643,l),
(283,700,l),
(50,700,l),
(50,639,l),
(192,639,l),
(91,549,l),
(131,503,l),
(151,514,o),
(168,514,qs),
(194,514,o),
(226,486,o),
(226,460,qs),
(226,433,o),
(195,404,o),
(168,404,qs),
(141,404,o),
(109,434,o),
(109,458,q),
(40,458,l),
(41,403,o),
(110,342,o),
(168,342,qs)
);
},
{
closed = 1;
nodes = (
(568,56,o),
(540,82,o),
(540,106,qs),
(540,131,o),
(569,158,o),
(595,158,qs),
(621,158,o),
(649,131,o),
(649,106,qs),
(649,82,o),
(620,56,o),
(595,56,qs)
);
},
{
closed = 1;
nodes = (
(645,-5,o),
(718,52,o),
(718,101,qs),
(718,130,o),
(691,178,o),
(665,190,q),
(685,201,o),
(710,240,o),
(710,263,qs),
(710,307,o),
(643,358,o),
(594,358,qs),
(545,358,o),
(479,307,o),
(479,263,qs),
(479,240,o),
(502,201,o),
(523,190,q),
(498,177,o),
(470,130,o),
(470,101,qs),
(470,54,o),
(541,-5,o),
(594,-5,qs)
);
},
{
closed = 1;
nodes = (
(574,212,o),
(548,236,o),
(548,255,qs),
(548,277,o),
(572,300,o),
(594,300,qs),
(616,300,o),
(640,276,o),
(640,255,qs),
(640,235,o),
(615,212,o),
(594,212,qs)
);
}
);
userData = {
assembly = "NPUSHB[ ]	/* 20 values pushed */
24 1 5 0 25 19 2 4 5 18 1 2 4 61 49 2 8 13 4 76
MPPEM[ ]	/* MeasurePixelPerEm */
PUSHB[ ]	/* 1 value pushed */
11
LT[ ]	/* LessThan */
IF[ ]	/* If */
NPUSHB[ ]	/* 65 values pushed */
0 4 5 2 5 4 114 0 2 3 5 2 3 126 0 3 14 1 7 12 3 7 105 0 10 0 12 13 10 12 106 17 1 13 0 8 9 13 8 105 0 5 5 0 95 6 1 0 0 33 77 15 1 9 9 1 97 16 11 2 1 1 34 1 78
ELSE[ ]	/* Else */
MPPEM[ ]	/* MeasurePixelPerEm */
PUSHB[ ]	/* 1 value pushed */
46
LT[ ]	/* LessThan */
IF[ ]	/* If */
NPUSHB[ ]	/* 66 values pushed */
0 4 5 2 5 4 2 128 0 2 3 5 2 3 126 0 3 14 1 7 12 3 7 105 0 10 0 12 13 10 12 106 17 1 13 0 8 9 13 8 105 0 5 5 0 95 6 1 0 0 33 77 15 1 9 9 1 97 16 11 2 1 1 34 1 78
ELSE[ ]	/* Else */
NPUSHB[ ]	/* 70 values pushed */
0 4 5 2 5 4 2 128 0 2 3 5 2 3 126 0 3 14 1 7 12 3 7 105 0 10 0 12 13 10 12 106 17 1 13 0 8 9 13 8 105 0 5 5 0 95 6 1 0 0 33 77 0 1 1 34 77 15 1 9 9 11 97 16 1 11 11 34 11 78
EIF[ ]	/* EndIf */
EIF[ ]	/* EndIf */
NPUSHB[ ]	/* 40 values pushed */
68 68 44 44 32 32 4 4 68 79 68 78 74 72 44 67 44 66 56 54 32 43 32 42 38 36 4 31 4 30 17 19 36 34 19 17 16 18 8 29
CALL[ ]	/* CallFunction */";
};
width = 761;
}
);
note = threeeighths;
unicode = 8540;
},
{
glyphname = fiveeighths;
layers = (
{
layerId = m01;
shapes = (
{
closed = 1;
nodes = (
(177,0,l),
(697,700,l),
(612,700,l),
(92,0,l)
);
},
{
closed = 1;
nodes = (
(227,342,o),
(298,414,o),
(298,470,qs),
(298,522,o),
(236,592,o),
(183,592,qs),
(143,592,o),
(117,571,q),
(130,638,l),
(275,638,l),
(275,700,l),
(77,700,l),
(46,496,l),
(114,496,l),
(122,514,o),
(152,534,o),
(172,534,qs),
(198,534,o),
(230,499,o),
(230,470,qs),
(230,441,o),
(197,404,o),
(171,404,qs),
(148,404,o),
(116,429,o),
(111,450,q),
(42,450,l),
(45,402,o),
(114,342,o),
(171,342,qs)
);
},
{
closed = 1;
nodes = (
(572,56,o),
(544,82,o),
(544,106,qs),
(544,131,o),
(573,158,o),
(599,158,qs),
(625,158,o),
(653,131,o),
(653,106,qs),
(653,82,o),
(624,56,o),
(599,56,qs)
);
},
{
closed = 1;
nodes = (
(649,-5,o),
(722,53,o),
(722,101,qs),
(722,130,o),
(695,178,o),
(669,190,q),
(689,201,o),
(714,240,o),
(714,263,qs),
(714,307,o),
(647,358,o),
(598,358,qs),
(549,358,o),
(483,307,o),
(483,263,qs),
(483,240,o),
(506,201,o),
(527,190,q),
(502,177,o),
(474,130,o),
(474,101,qs),
(474,54,o),
(545,-5,o),
(598,-5,qs)
);
},
{
closed = 1;
nodes = (
(578,212,o),
(552,236,o),
(552,255,qs),
(552,277,o),
(576,300,o),
(598,300,qs),
(620,300,o),
(644,276,o),
(644,255,qs),
(644,235,o),
(619,212,o),
(598,212,qs)
);
}
);
userData = {
assembly = "NPUSHB[ ]	/* 11 values pushed */
25 1 4 8 63 51 2 10 15 2 76
MPPEM[ ]	/* MeasurePixelPerEm */
PUSHB[ ]	/* 1 value pushed */
9
LT[ ]	/* LessThan */
IF[ ]	/* If */
NPUSHB[ ]	/* 73 values pushed */
0 5 4 2 7 5 114 0 2 3 4 2 3 126 0 8 0 4 5 8 4 105 0 3 16 1 9 14 3 9 105 0 12 0 14 15 12 14 106 19 1 15 0 10 11 15 10 105 0 7 7 0 95 6 1 0 0 33 77 17 1 11 11 1 97 18 13 2 1 1 34 1 78
ELSE[ ]	/* Else */
MPPEM[ ]	/* MeasurePixelPerEm */
PUSHB[ ]	/* 1 value pushed */
46
LT[ ]	/* LessThan */
IF[ ]	/* If */
NPUSHB[ ]	/* 74 values pushed */
0 5 4 2 4 5 2 128 0 2 3 4 2 3 126 0 8 0 4 5 8 4 105 0 3 16 1 9 14 3 9 105 0 12 0 14 15 12 14 106 19 1 15 0 10 11 15 10 105 0 7 7 0 95 6 1 0 0 33 77 17 1 11 11 1 97 18 13 2 1 1 34 1 78
ELSE[ ]	/* Else */
NPUSHB[ ]	/* 78 values pushed */
0 5 4 2 4 5 2 128 0 2 3 4 2 3 126 0 8 0 4 5 8 4 105 0 3 16 1 9 14 3 9 105 0 12 0 14 15 12 14 106 19 1 15 0 10 11 15 10 105 0 7 7 0 95 6 1 0 0 33 77 0 1 1 34 77 17 1 11 11 13 97 18 1 13 13 34 13 78
EIF[ ]	/* EndIf */
EIF[ ]	/* EndIf */
NPUSHB[ ]	/* 42 values pushed */
70 70 46 46 34 34 4 4 70 81 70 80 76 74 46 69 46 68 58 56 34 45 34 44 40 38 4 33 4 32 34 17 17 18 36 34 19 17 16 20 8 31
CALL[ ]	/* CallFunction */";
};
width = 765;
}
);
note = fiveeighths;
unicode = 8541;
},
{
glyphname = seveneighths;
layers = (
{
layerId = m01;
shapes = (
{
closed = 1;
nodes = (
(144,0,l),
(664,700,l),
(579,700,l),
(59,0,l)
);
},
{
closed = 1;
nodes = (
(550,56,o),
(522,82,o),
(522,106,qs),
(522,131,o),
(551,158,o),
(577,158,qs),
(603,158,o),
(631,131,o),
(631,106,qs),
(631,82,o),
(602,56,o),
(577,56,qs)
);
},
{
closed = 1;
nodes = (
(176,347,l),
(315,650,l),
(315,700,l),
(55,700,l),
(55,638,l),
(239,638,l),
(102,347,l)
);
},
{
closed = 1;
nodes = (
(627,-5,o),
(700,52,o),
(700,101,qs),
(700,130,o),
(673,178,o),
(647,190,q),
(667,201,o),
(692,240,o),
(692,263,qs),
(692,307,o),
(625,358,o),
(576,358,qs),
(527,358,o),
(461,307,o),
(461,263,qs),
(461,240,o),
(484,201,o),
(505,190,q),
(480,177,o),
(452,130,o),
(452,101,qs),
(452,54,o),
(523,-5,o),
(576,-5,qs)
);
},
{
closed = 1;
nodes = (
(556,212,o),
(530,236,o),
(530,255,qs),
(530,277,o),
(554,300,o),
(576,300,qs),
(598,300,o),
(622,276,o),
(622,255,qs),
(622,235,o),
(597,212,o),
(576,212,qs)
);
}
);
userData = {
assembly = "NPUSHB[ ]	/* 11 values pushed */
20 1 4 0 40 28 2 2 10 2 76
MPPEM[ ]	/* MeasurePixelPerEm */
PUSHB[ ]	/* 1 value pushed */
46
LT[ ]	/* LessThan */
IF[ ]	/* If */
NPUSHB[ ]	/* 50 values pushed */
0 6 7 9 7 6 9 128 0 7 0 9 10 7 9 106 13 1 10 0 2 3 10 2 105 0 4 4 0 95 5 1 0 0 33 77 11 1 3 3 1 97 12 8 2 1 1 34 1 78
ELSE[ ]	/* Else */
NPUSHB[ ]	/* 54 values pushed */
0 6 7 9 7 6 9 128 0 7 0 9 10 7 9 106 13 1 10 0 2 3 10 2 105 0 4 4 0 95 5 1 0 0 33 77 0 1 1 34 77 11 1 3 3 8 97 12 1 8 8 34 8 78
EIF[ ]	/* EndIf */
NPUSHB[ ]	/* 34 values pushed */
47 47 23 23 4 4 47 58 47 57 53 51 23 46 23 45 35 33 22 21 19 18 17 16 4 15 4 14 37 17 16 14 8 25
CALL[ ]	/* CallFunction */";
};
width = 741;
}
);
note = seveneighths;
unicode = 8542;
},
{
glyphname = uni2080;
layers = (
{
layerId = m01;
shapes = (
{
closed = 1;
nodes = (
(231,-5,o),
(295,94,o),
(295,177,qs),
(295,260,o),
(231,358,o),
(162,358,qs),
(93,358,o),
(29,258,o),
(29,177,qs),
(29,96,o),
(93,-5,o),
(162,-5,qs)
);
},
{
closed = 1;
nodes = (
(133,59,o),
(100,116,o),
(100,177,qs),
(100,237,o),
(133,295,o),
(162,295,qs),
(195,295,o),
(224,229,o),
(224,177,qs),
(224,125,o),
(195,59,o),
(162,59,qs)
);
}
);
userData = {
assembly = "NPUSHB[ ]	/* 41 values pushed */
0 2 2 0 97 0 0 0 51 77 5 1 3 3 1 97 4 1 1 1 52 1 78 12 12 0 0 12 23 12 22 18 16 0 11 0 10 36 6 9 23
CALL[ ]	/* CallFunction */";
};
width = 324;
}
);
note = uni2080;
unicode = 8320;
},
{
glyphname = uni2081;
layers = (
{
layerId = m01;
shapes = (
{
closed = 1;
nodes = (
(283,0,l),
(283,62,l),
(201,62,l),
(201,353,l),
(164,353,l),
(44,309,l),
(44,254,l),
(134,274,l),
(134,62,l),
(41,62,l),
(41,0,l)
);
}
);
userData = {
assembly = "NPUSHB[ ]	/* 32 values pushed */
4 3 2 3 0 1 1 76 0 1 1 49 77 2 1 0 0 3 96 0 3 3 50 3 78 17 17 20 16 4 9 26
CALL[ ]	/* CallFunction */";
};
width = 316;
}
);
note = uni2081;
unicode = 8321;
},
{
glyphname = uni2082;
layers = (
{
layerId = m01;
shapes = (
{
closed = 1;
nodes = (
(32,0,l),
(277,0,l),
(277,62,l),
(128,62,l),
(192,126,ls),
(233,168,o),
(268,218,o),
(268,251,qs),
(268,300,o),
(208,358,o),
(153,358,qs),
(99,358,o),
(33,297,o),
(32,241,q),
(101,241,l),
(101,265,o),
(127,298,o),
(152,298,qs),
(174,298,o),
(199,272,o),
(199,250,qs),
(199,231,o),
(168,194,o),
(128,152,qs),
(32,51,l)
);
}
);
userData = {
assembly = "NPUSHB[ ]	/* 43 values pushed */
24 1 4 3 1 76 0 1 0 3 0 1 3 128 0 0 0 2 97 0 2 2 51 77 0 3 3 4 95 0 4 4 50 4 78 17 22 34 18 37 5 9 27
CALL[ ]	/* CallFunction */";
};
width = 311;
}
);
note = uni2082;
unicode = 8322;
},
{
glyphname = uni2083;
layers = (
{
layerId = m01;
shapes = (
{
closed = 1;
nodes = (
(217,-5,o),
(286,59,o),
(286,114,qs),
(286,156,o),
(237,214,o),
(193,221,q),
(275,296,l),
(275,353,l),
(43,353,l),
(43,292,l),
(184,292,l),
(84,202,l),
(123,156,l),
(143,167,o),
(160,167,qs),
(186,167,o),
(218,139,o),
(218,113,qs),
(218,86,o),
(187,57,o),
(160,57,qs),
(133,57,o),
(101,87,o),
(101,111,q),
(32,111,l),
(33,56,o),
(103,-5,o),
(160,-5,qs)
);
}
);
userData = {
assembly = "NPUSHB[ ]	/* 15 values pushed */
20 1 3 4 21 15 2 2 3 14 1 0 2 3 76
MPPEM[ ]	/* MeasurePixelPerEm */
PUSHB[ ]	/* 1 value pushed */
10
LT[ ]	/* LessThan */
IF[ ]	/* If */
NPUSHB[ ]	/* 36 values pushed */
0 2 3 0 3 2 114 0 0 1 3 0 1 126 0 3 3 4 95 0 4 4 49 77 0 1 1 5 97 6 1 5 5 52 5 78
ELSE[ ]	/* Else */
NPUSHB[ ]	/* 37 values pushed */
0 2 3 0 3 2 0 128 0 0 1 3 0 1 126 0 3 3 4 95 0 4 4 49 77 0 1 1 5 97 6 1 5 5 52 5 78
EIF[ ]	/* EndIf */
NPUSHB[ ]	/* 14 values pushed */
0 0 0 27 0 26 17 19 36 34 18 7 9 27
CALL[ ]	/* CallFunction */";
};
width = 318;
}
);
note = uni2083;
unicode = 8323;
},
{
glyphname = uni2084;
layers = (
{
layerId = m01;
shapes = (
{
closed = 1;
nodes = (
(249,0,l),
(249,65,l),
(289,65,l),
(289,127,l),
(249,127,l),
(249,217,l),
(182,217,l),
(182,127,l),
(97,127,l),
(209,353,l),
(138,353,l),
(20,120,l),
(20,65,l),
(178,65,l),
(178,0,l)
);
}
);
userData = {
assembly = "PUSHB[ ]	/* 6 values pushed */
2 1 0 2 1 76
MPPEM[ ]	/* MeasurePixelPerEm */
PUSHB[ ]	/* 1 value pushed */
14
LT[ ]	/* LessThan */
IF[ ]	/* If */
NPUSHB[ ]	/* 28 values pushed */
0 3 1 2 2 3 114 4 1 2 5 1 0 6 2 0 104 0 1 1 49 77 0 6 6 50 6 78
ELSE[ ]	/* Else */
NPUSHB[ ]	/* 29 values pushed */
0 3 1 2 1 3 2 128 4 1 2 5 1 0 6 2 0 104 0 1 1 49 77 0 6 6 50 6 78
EIF[ ]	/* EndIf */
NPUSHB[ ]	/* 10 values pushed */
17 17 17 17 17 18 16 7 9 29
CALL[ ]	/* CallFunction */";
};
width = 304;
}
);
note = uni2084;
unicode = 8324;
},
{
glyphname = uni2085;
layers = (
{
layerId = m01;
shapes = (
{
closed = 1;
nodes = (
(212,-5,o),
(283,67,o),
(283,123,qs),
(283,175,o),
(221,245,o),
(168,245,qs),
(128,245,o),
(102,224,q),
(115,291,l),
(260,291,l),
(260,353,l),
(62,353,l),
(31,149,l),
(99,149,l),
(107,167,o),
(137,187,o),
(157,187,qs),
(183,187,o),
(215,152,o),
(215,123,qs),
(215,94,o),
(182,57,o),
(156,57,qs),
(133,57,o),
(101,82,o),
(96,103,q),
(27,103,l),
(30,55,o),
(99,-5,o),
(156,-5,qs)
);
}
);
userData = {
assembly = "PUSHB[ ]	/* 6 values pushed */
21 1 2 6 1 76
MPPEM[ ]	/* MeasurePixelPerEm */
PUSHB[ ]	/* 1 value pushed */
9
LT[ ]	/* LessThan */
IF[ ]	/* If */
NPUSHB[ ]	/* 44 values pushed */
0 3 2 0 5 3 114 0 0 1 2 0 1 126 0 6 0 2 3 6 2 105 0 5 5 4 95 0 4 4 49 77 0 1 1 7 97 8 1 7 7 52 7 78
ELSE[ ]	/* Else */
NPUSHB[ ]	/* 45 values pushed */
0 3 2 0 2 3 0 128 0 0 1 2 0 1 126 0 6 0 2 3 6 2 105 0 5 5 4 95 0 4 4 49 77 0 1 1 7 97 8 1 7 7 52 7 78
EIF[ ]	/* EndIf */
NPUSHB[ ]	/* 16 values pushed */
0 0 0 29 0 28 34 17 17 18 36 34 18 9 9 29
CALL[ ]	/* CallFunction */";
};
width = 312;
}
);
note = uni2085;
unicode = 8325;
},
{
glyphname = uni2086;
layers = (
{
layerId = m01;
shapes = (
{
closed = 1;
nodes = (
(217,-5,o),
(283,66,o),
(283,115,qs),
(283,166,o),
(220,231,o),
(176,231,qs),
(153,231,o),
(112,210,o),
(99,192,q),
(101,242,o),
(133,299,o),
(163,299,qs),
(203,299,o),
(211,256,q),
(277,256,l),
(272,302,o),
(211,358,o),
(163,358,qs),
(95,358,o),
(29,245,o),
(29,165,qs),
(29,91,o),
(98,-5,o),
(165,-5,qs)
);
},
{
closed = 1;
nodes = (
(138,57,o),
(107,89,o),
(107,114,qs),
(107,137,o),
(138,170,o),
(161,170,qs),
(185,170,o),
(215,138,o),
(215,113,qs),
(215,88,o),
(185,57,o),
(162,57,qs)
);
}
);
userData = {
assembly = "NPUSHB[ ]	/* 66 values pushed */
14 1 5 3 1 76 0 1 2 3 2 1 3 128 0 3 0 5 6 3 5 105 0 2 2 0 97 0 0 0 51 77 8 1 6 6 4 97 7 1 4 4 52 4 78 24 24 0 0 24 35 24 34 30 28 0 23 0 22 36 33 18 36 9 9 26
CALL[ ]	/* CallFunction */";
};
width = 312;
}
);
note = uni2086;
unicode = 8326;
},
{
glyphname = uni2087;
layers = (
{
layerId = m01;
shapes = (
{
closed = 1;
nodes = (
(150,0,l),
(289,303,l),
(289,353,l),
(29,353,l),
(29,291,l),
(213,291,l),
(76,0,l)
);
}
);
userData = {
assembly = "NPUSHB[ ]	/* 28 values pushed */
4 1 0 1 1 76 0 0 0 1 95 0 1 1 49 77 0 2 2 50 2 78 18 17 16 3 9 25
CALL[ ]	/* CallFunction */";
};
width = 318;
}
);
note = uni2087;
unicode = 8327;
},
{
glyphname = uni2088;
layers = (
{
layerId = m01;
shapes = (
{
closed = 1;
nodes = (
(204,-5,o),
(276,52,o),
(276,101,qs),
(276,131,o),
(249,178,o),
(224,190,q),
(244,201,o),
(268,240,o),
(268,263,qs),
(268,307,o),
(202,358,o),
(153,358,qs),
(104,358,o),
(37,307,o),
(37,263,qs),
(37,240,o),
(60,201,o),
(81,190,q),
(56,177,o),
(29,131,o),
(29,101,qs),
(29,54,o),
(100,-5,o),
(153,-5,qs)
);
},
{
closed = 1;
nodes = (
(126,56,o),
(98,82,o),
(98,106,qs),
(98,131,o),
(127,158,o),
(153,158,qs),
(179,158,o),
(207,131,o),
(207,106,qs),
(207,82,o),
(178,56,o),
(153,56,qs)
);
},
{
closed = 1;
nodes = (
(132,212,o),
(107,235,o),
(107,255,qs),
(107,277,o),
(131,300,o),
(153,300,qs),
(174,300,o),
(199,276,o),
(199,255,qs),
(199,236,o),
(173,212,o),
(153,212,qs)
);
}
);
userData = {
assembly = "NPUSHB[ ]	/* 65 values pushed */
17 5 2 2 5 1 76 8 1 5 0 2 3 5 2 105 0 4 4 0 97 0 0 0 51 77 7 1 3 3 1 97 6 1 1 1 52 1 78 36 36 24 24 0 0 36 47 36 46 42 40 24 35 24 34 30 28 0 23 0 22 42 9 9 23
CALL[ ]	/* CallFunction */";
};
width = 305;
}
);
note = uni2088;
unicode = 8328;
},
{
glyphname = uni2089;
layers = (
{
layerId = m01;
shapes = (
{
closed = 1;
nodes = (
(217,-5,o),
(284,108,o),
(284,188,qs),
(284,262,o),
(215,358,o),
(148,358,qs),
(96,358,o),
(29,287,o),
(29,238,qs),
(29,191,o),
(91,123,o),
(137,123,qs),
(160,123,o),
(201,144,o),
(214,161,q),
(212,111,o),
(180,55,o),
(150,55,qs),
(110,55,o),
(102,99,q),
(36,99,l),
(41,52,o),
(102,-5,o),
(150,-5,qs)
);
},
{
closed = 1;
nodes = (
(128,184,o),
(98,215,o),
(98,241,qs),
(98,265,o),
(128,297,o),
(151,297,qs),
(175,297,o),
(206,265,o),
(206,240,qs),
(206,216,o),
(175,184,o),
(152,184,qs)
);
}
);
userData = {
assembly = "NPUSHB[ ]	/* 66 values pushed */
8 1 2 6 1 76 0 0 2 1 2 0 1 128 8 1 6 0 2 0 6 2 105 0 5 5 3 97 0 3 3 51 77 0 1 1 4 97 7 1 4 4 52 4 78 24 24 0 0 24 35 24 34 30 28 0 23 0 22 36 36 33 18 9 9 26
CALL[ ]	/* CallFunction */";
};
width = 313;
}
);
note = uni2089;
unicode = 8329;
},
{
glyphname = uni2070;
layers = (
{
layerId = m01;
shapes = (
{
closed = 1;
nodes = (
(231,342,o),
(295,441,o),
(295,524,qs),
(295,607,o),
(231,705,o),
(162,705,qs),
(93,705,o),
(29,605,o),
(29,524,qs),
(29,443,o),
(93,342,o),
(162,342,qs)
);
},
{
closed = 1;
nodes = (
(133,406,o),
(100,463,o),
(100,524,qs),
(100,584,o),
(133,642,o),
(162,642,qs),
(195,642,o),
(224,576,o),
(224,524,qs),
(224,472,o),
(195,406,o),
(162,406,qs)
);
}
);
userData = {
assembly = "NPUSHB[ ]	/* 41 values pushed */
0 2 2 0 97 0 0 0 59 77 5 1 3 3 1 97 4 1 1 1 60 1 78 12 12 0 0 12 23 12 22 18 16 0 11 0 10 36 6 10 23
CALL[ ]	/* CallFunction */";
};
width = 324;
}
);
note = uni2070;
unicode = 8304;
},
{
glyphname = uni00B9;
layers = (
{
layerId = m01;
shapes = (
{
closed = 1;
nodes = (
(283,347,l),
(283,409,l),
(201,409,l),
(201,700,l),
(164,700,l),
(44,656,l),
(44,601,l),
(134,621,l),
(134,409,l),
(41,409,l),
(41,347,l)
);
}
);
userData = {
assembly = "NPUSHB[ ]	/* 32 values pushed */
4 3 2 3 0 1 1 76 0 1 1 57 77 2 1 0 0 3 96 0 3 3 58 3 78 17 17 20 16 4 10 26
CALL[ ]	/* CallFunction */";
};
width = 311;
}
);
note = uni00B9;
unicode = 185;
},
{
glyphname = uni00B2;
layers = (
{
layerId = m01;
shapes = (
{
closed = 1;
nodes = (
(32,347,l),
(277,347,l),
(277,409,l),
(128,409,l),
(192,473,ls),
(233,515,o),
(268,565,o),
(268,598,qs),
(268,647,o),
(208,705,o),
(153,705,qs),
(99,705,o),
(33,644,o),
(32,588,q),
(101,588,l),
(101,612,o),
(127,645,o),
(152,645,qs),
(174,645,o),
(199,619,o),
(199,597,qs),
(199,578,o),
(168,541,o),
(128,499,qs),
(32,398,l)
);
}
);
userData = {
assembly = "NPUSHB[ ]	/* 43 values pushed */
24 1 4 3 1 76 0 1 0 3 0 1 3 128 0 0 0 2 97 0 2 2 59 77 0 3 3 4 95 0 4 4 58 4 78 17 22 34 18 37 5 10 27
CALL[ ]	/* CallFunction */";
};
width = 311;
}
);
note = uni00B2;
unicode = 178;
},
{
glyphname = uni00B3;
layers = (
{
layerId = m01;
shapes = (
{
closed = 1;
nodes = (
(217,342,o),
(286,406,o),
(286,461,qs),
(286,503,o),
(237,561,o),
(193,568,q),
(275,643,l),
(275,700,l),
(43,700,l),
(43,639,l),
(184,639,l),
(84,549,l),
(123,503,l),
(143,514,o),
(160,514,qs),
(186,514,o),
(218,486,o),
(218,460,qs),
(218,433,o),
(187,404,o),
(160,404,qs),
(133,404,o),
(101,434,o),
(101,458,q),
(32,458,l),
(33,403,o),
(103,342,o),
(160,342,qs)
);
}
);
userData = {
assembly = "NPUSHB[ ]	/* 15 values pushed */
20 1 3 4 21 15 2 2 3 14 1 0 2 3 76
MPPEM[ ]	/* MeasurePixelPerEm */
PUSHB[ ]	/* 1 value pushed */
10
LT[ ]	/* LessThan */
IF[ ]	/* If */
NPUSHB[ ]	/* 36 values pushed */
0 2 3 0 3 2 114 0 0 1 3 0 1 126 0 3 3 4 95 0 4 4 57 77 0 1 1 5 97 6 1 5 5 60 5 78
ELSE[ ]	/* Else */
NPUSHB[ ]	/* 37 values pushed */
0 2 3 0 3 2 0 128 0 0 1 3 0 1 126 0 3 3 4 95 0 4 4 57 77 0 1 1 5 97 6 1 5 5 60 5 78
EIF[ ]	/* EndIf */
NPUSHB[ ]	/* 14 values pushed */
0 0 0 27 0 26 17 19 36 34 18 7 10 27
CALL[ ]	/* CallFunction */";
};
width = 318;
}
);
note = uni00B3;
unicode = 179;
},
{
glyphname = uni2074;
layers = (
{
layerId = m01;
shapes = (
{
closed = 1;
nodes = (
(248,347,l),
(248,412,l),
(289,412,l),
(289,474,l),
(248,474,l),
(248,563,l),
(183,563,l),
(183,474,l),
(96,474,l),
(208,700,l),
(138,700,l),
(20,466,l),
(20,412,l),
(179,412,l),
(179,347,l)
);
}
);
userData = {
assembly = "PUSHB[ ]	/* 6 values pushed */
2 1 0 2 1 76
MPPEM[ ]	/* MeasurePixelPerEm */
PUSHB[ ]	/* 1 value pushed */
15
LT[ ]	/* LessThan */
IF[ ]	/* If */
NPUSHB[ ]	/* 28 values pushed */
0 3 1 2 2 3 114 4 1 2 5 1 0 6 2 0 104 0 1 1 57 77 0 6 6 58 6 78
ELSE[ ]	/* Else */
NPUSHB[ ]	/* 29 values pushed */
0 3 1 2 1 3 2 128 4 1 2 5 1 0 6 2 0 104 0 1 1 57 77 0 6 6 58 6 78
EIF[ ]	/* EndIf */
NPUSHB[ ]	/* 10 values pushed */
17 17 17 17 17 18 16 7 10 29
CALL[ ]	/* CallFunction */";
};
width = 304;
}
);
note = uni2074;
unicode = 8308;
},
{
glyphname = uni2075;
layers = (
{
layerId = m01;
shapes = (
{
closed = 1;
nodes = (
(212,342,o),
(283,414,o),
(283,470,qs),
(283,522,o),
(221,592,o),
(168,592,qs),
(128,592,o),
(102,571,q),
(115,638,l),
(260,638,l),
(260,700,l),
(62,700,l),
(31,496,l),
(99,496,l),
(107,514,o),
(137,534,o),
(157,534,qs),
(183,534,o),
(215,499,o),
(215,470,qs),
(215,441,o),
(182,404,o),
(156,404,qs),
(133,404,o),
(101,429,o),
(96,450,q),
(27,450,l),
(30,402,o),
(99,342,o),
(156,342,qs)
);
}
);
userData = {
assembly = "PUSHB[ ]	/* 6 values pushed */
21 1 2 6 1 76
MPPEM[ ]	/* MeasurePixelPerEm */
PUSHB[ ]	/* 1 value pushed */
9
LT[ ]	/* LessThan */
IF[ ]	/* If */
NPUSHB[ ]	/* 44 values pushed */
0 3 2 0 5 3 114 0 0 1 2 0 1 126 0 6 0 2 3 6 2 105 0 5 5 4 95 0 4 4 57 77 0 1 1 7 97 8 1 7 7 60 7 78
ELSE[ ]	/* Else */
NPUSHB[ ]	/* 45 values pushed */
0 3 2 0 2 3 0 128 0 0 1 2 0 1 126 0 6 0 2 3 6 2 105 0 5 5 4 95 0 4 4 57 77 0 1 1 7 97 8 1 7 7 60 7 78
EIF[ ]	/* EndIf */
NPUSHB[ ]	/* 16 values pushed */
0 0 0 29 0 28 34 17 17 18 36 34 18 9 10 29
CALL[ ]	/* CallFunction */";
};
width = 312;
}
);
note = uni2075;
unicode = 8309;
},
{
glyphname = uni2076;
layers = (
{
layerId = m01;
shapes = (
{
closed = 1;
nodes = (
(217,342,o),
(283,413,o),
(283,462,qs),
(283,513,o),
(220,578,o),
(176,578,qs),
(153,578,o),
(112,557,o),
(99,539,q),
(101,589,o),
(133,646,o),
(163,646,qs),
(203,646,o),
(211,603,q),
(277,603,l),
(272,649,o),
(211,705,o),
(163,705,qs),
(95,705,o),
(29,592,o),
(29,512,qs),
(29,438,o),
(98,342,o),
(165,342,qs)
);
},
{
closed = 1;
nodes = (
(138,404,o),
(107,436,o),
(107,461,qs),
(107,484,o),
(138,517,o),
(161,517,qs),
(185,517,o),
(215,485,o),
(215,460,qs),
(215,435,o),
(185,404,o),
(162,404,qs)
);
}
);
userData = {
assembly = "NPUSHB[ ]	/* 66 values pushed */
14 1 5 3 1 76 0 1 2 3 2 1 3 128 0 3 0 5 6 3 5 105 0 2 2 0 97 0 0 0 59 77 8 1 6 6 4 97 7 1 4 4 60 4 78 24 24 0 0 24 35 24 34 30 28 0 23 0 22 36 33 18 36 9 10 26
CALL[ ]	/* CallFunction */";
};
width = 312;
}
);
note = uni2076;
unicode = 8310;
},
{
glyphname = uni2077;
layers = (
{
layerId = m01;
shapes = (
{
closed = 1;
nodes = (
(150,347,l),
(289,650,l),
(289,700,l),
(29,700,l),
(29,638,l),
(213,638,l),
(76,347,l)
);
}
);
userData = {
assembly = "NPUSHB[ ]	/* 28 values pushed */
4 1 0 1 1 76 0 0 0 1 95 0 1 1 57 77 0 2 2 58 2 78 18 17 16 3 10 25
CALL[ ]	/* CallFunction */";
};
width = 318;
}
);
note = uni2077;
unicode = 8311;
},
{
glyphname = uni2078;
layers = (
{
layerId = m01;
shapes = (
{
closed = 1;
nodes = (
(204,342,o),
(276,399,o),
(276,448,qs),
(276,478,o),
(249,525,o),
(224,537,q),
(244,548,o),
(268,587,o),
(268,610,qs),
(268,654,o),
(202,705,o),
(153,705,qs),
(104,705,o),
(37,654,o),
(37,610,qs),
(37,587,o),
(60,548,o),
(81,537,q),
(56,524,o),
(29,478,o),
(29,448,qs),
(29,401,o),
(100,342,o),
(153,342,qs)
);
},
{
closed = 1;
nodes = (
(126,403,o),
(98,429,o),
(98,453,qs),
(98,478,o),
(127,505,o),
(153,505,qs),
(179,505,o),
(207,478,o),
(207,453,qs),
(207,429,o),
(178,403,o),
(153,403,qs)
);
},
{
closed = 1;
nodes = (
(132,559,o),
(107,582,o),
(107,602,qs),
(107,624,o),
(131,647,o),
(153,647,qs),
(174,647,o),
(199,623,o),
(199,602,qs),
(199,583,o),
(173,559,o),
(153,559,qs)
);
}
);
userData = {
assembly = "NPUSHB[ ]	/* 65 values pushed */
17 5 2 2 5 1 76 8 1 5 0 2 3 5 2 105 0 4 4 0 97 0 0 0 59 77 7 1 3 3 1 97 6 1 1 1 60 1 78 36 36 24 24 0 0 36 47 36 46 42 40 24 35 24 34 30 28 0 23 0 22 42 9 10 23
CALL[ ]	/* CallFunction */";
};
width = 305;
}
);
note = uni2078;
unicode = 8312;
},
{
glyphname = uni2079;
layers = (
{
layerId = m01;
shapes = (
{
closed = 1;
nodes = (
(217,342,o),
(284,455,o),
(284,535,qs),
(284,609,o),
(215,705,o),
(148,705,qs),
(96,705,o),
(29,634,o),
(29,585,qs),
(29,538,o),
(91,470,o),
(137,470,qs),
(160,470,o),
(201,491,o),
(214,508,q),
(212,458,o),
(180,402,o),
(150,402,qs),
(110,402,o),
(102,446,q),
(36,446,l),
(41,399,o),
(102,342,o),
(150,342,qs)
);
},
{
closed = 1;
nodes = (
(128,531,o),
(98,562,o),
(98,588,qs),
(98,612,o),
(128,644,o),
(151,644,qs),
(175,644,o),
(206,612,o),
(206,587,qs),
(206,563,o),
(175,531,o),
(152,531,qs)
);
}
);
userData = {
assembly = "NPUSHB[ ]	/* 66 values pushed */
8 1 2 6 1 76 0 0 2 1 2 0 1 128 8 1 6 0 2 0 6 2 105 0 5 5 3 97 0 3 3 59 77 0 1 1 4 97 7 1 4 4 60 4 78 24 24 0 0 24 35 24 34 30 28 0 23 0 22 36 36 33 18 9 10 26
CALL[ ]	/* CallFunction */";
};
width = 313;
}
);
note = uni2079;
unicode = 8313;
},
{
glyphname = period;
kernLeft = period;
kernRight = period;
layers = (
{
layerId = m01;
shapes = (
{
closed = 1;
nodes = (
(135,-8,o),
(176,33,o),
(176,62,qs),
(176,91,o),
(135,132,o),
(106,132,qs),
(76,132,o),
(35,91,o),
(35,62,qs),
(35,33,o),
(76,-8,o),
(106,-8,qs)
);
}
);
userData = {
assembly = "NPUSHB[ ]	/* 22 values pushed */
0 0 0 1 97 2 1 1 1 40 1 78 0 0 0 11 0 10 36 3 8 23
CALL[ ]	/* CallFunction */";
};
width = 211;
}
);
note = period;
unicode = 46;
},
{
glyphname = comma;
kernLeft = comma;
kernRight = comma;
layers = (
{
layerId = m01;
shapes = (
{
closed = 1;
nodes = (
(79,-117,l),
(171,118,l),
(66,118,l),
(8,-117,l)
);
}
);
userData = {
assembly = "NPUSHB[ ]	/* 21 values pushed */
0 0 1 1 0 87 0 0 0 1 95 0 1 0 1 79 17 16 2 8 24
CALL[ ]	/* CallFunction */";
};
width = 204;
}
);
note = comma;
unicode = 44;
},
{
glyphname = colon;
kernLeft = colon;
kernRight = colon;
layers = (
{
layerId = m01;
shapes = (
{
closed = 1;
nodes = (
(138,370,o),
(179,411,o),
(179,440,qs),
(179,469,o),
(138,510,o),
(109,510,qs),
(79,510,o),
(39,469,o),
(39,440,qs),
(39,411,o),
(79,370,o),
(109,370,qs)
);
},
{
closed = 1;
nodes = (
(138,-8,o),
(179,33,o),
(179,62,qs),
(179,91,o),
(138,132,o),
(109,132,qs),
(79,132,o),
(39,91,o),
(39,62,qs),
(39,33,o),
(79,-8,o),
(109,-8,qs)
);
}
);
userData = {
assembly = "NPUSHB[ ]	/* 41 values pushed */
4 1 1 1 0 97 0 0 0 42 77 0 2 2 3 97 5 1 3 3 40 3 78 12 12 0 0 12 23 12 22 18 16 0 11 0 10 36 6 8 23
CALL[ ]	/* CallFunction */";
};
width = 221;
}
);
note = colon;
unicode = 58;
},
{
glyphname = semicolon;
kernLeft = semicolon;
kernRight = semicolon;
layers = (
{
layerId = m01;
shapes = (
{
closed = 1;
nodes = (
(95,-117,l),
(187,118,l),
(81,118,l),
(24,-117,l)
);
},
{
closed = 1;
nodes = (
(163,370,o),
(204,411,o),
(204,440,qs),
(204,469,o),
(163,510,o),
(134,510,qs),
(104,510,o),
(63,469,o),
(63,440,qs),
(63,411,o),
(104,370,o),
(134,370,qs)
);
}
);
userData = {
assembly = "NPUSHB[ ]	/* 31 values pushed */
0 0 0 1 0 1 99 4 1 3 3 2 97 0 2 2 42 3 78 4 4 4 15 4 14 37 17 16 5 8 25
CALL[ ]	/* CallFunction */";
};
width = 245;
}
);
note = semicolon;
unicode = 59;
},
{
glyphname = ellipsis;
kernLeft = period;
kernRight = period;
layers = (
{
layerId = m01;
shapes = (
{
closed = 1;
nodes = (
(545,-8,o),
(586,33,o),
(586,62,qs),
(586,91,o),
(545,132,o),
(516,132,qs),
(486,132,o),
(445,91,o),
(445,62,qs),
(445,33,o),
(486,-8,o),
(516,-8,qs)
);
},
{
closed = 1;
nodes = (
(140,-8,o),
(181,33,o),
(181,62,qs),
(181,91,o),
(140,132,o),
(111,132,qs),
(81,132,o),
(40,91,o),
(40,62,qs),
(40,33,o),
(81,-8,o),
(111,-8,qs)
);
},
{
closed = 1;
nodes = (
(342,-8,o),
(383,33,o),
(383,62,qs),
(383,91,o),
(342,132,o),
(313,132,qs),
(283,132,o),
(243,91,o),
(243,62,qs),
(243,33,o),
(283,-8,o),
(313,-8,qs)
);
}
);
userData = {
assembly = "NPUSHB[ ]	/* 44 values pushed */
4 2 2 0 0 1 97 8 5 7 3 6 5 1 1 40 1 78 24 24 12 12 0 0 24 35 24 34 30 28 12 23 12 22 18 16 0 11 0 10 36 9 8 23
CALL[ ]	/* CallFunction */";
};
width = 625;
}
);
note = ellipsis;
unicode = 8230;
},
{
glyphname = exclam;
layers = (
{
layerId = m01;
shapes = (
{
closed = 1;
nodes = (
(177,208,l),
(189,700,l),
(75,700,l),
(87,208,l)
);
},
{
closed = 1;
nodes = (
(163,-8,o),
(204,33,o),
(204,62,qs),
(204,91,o),
(163,132,o),
(134,132,qs),
(104,132,o),
(64,91,o),
(64,62,qs),
(64,33,o),
(104,-8,o),
(134,-8,qs)
);
}
);
userData = {
assembly = "NPUSHB[ ]	/* 34 values pushed */
0 1 1 0 95 0 0 0 33 77 0 2 2 3 97 4 1 3 3 40 3 78 4 4 4 15 4 14 37 17 16 5 8 25
CALL[ ]	/* CallFunction */";
};
width = 267;
}
);
note = exclam;
unicode = 33;
},
{
glyphname = exclamdown;
kernLeft = exclamdown;
kernRight = exclamdown;
layers = (
{
layerId = m01;
shapes = (
{
closed = 1;
nodes = (
(192,-141,l),
(179,352,l),
(90,352,l),
(78,-141,l)
);
},
{
closed = 1;
nodes = (
(166,428,o),
(207,469,o),
(207,498,qs),
(207,527,o),
(166,568,o),
(137,568,qs),
(107,568,o),
(66,527,o),
(66,498,qs),
(66,469,o),
(107,428,o),
(137,428,qs)
);
}
);
userData = {
assembly = "NPUSHB[ ]	/* 37 values pushed */
0 2 4 1 3 0 2 3 105 0 0 1 1 0 87 0 0 0 1 95 0 1 0 1 79 4 4 4 15 4 14 37 17 16 5 8 25
CALL[ ]	/* CallFunction */";
};
width = 272;
}
);
note = exclamdown;
unicode = 161;
},
{
glyphname = question;
kernLeft = question;
kernRight = question;
layers = (
{
layerId = m01;
shapes = (
{
closed = 1;
nodes = (
(237,207,l),
(240,299,l),
(312,299,o),
(365,321,qs),
(420,343,o),
(480,435,o),
(480,505,qs),
(480,570,o),
(452,616,qs),
(423,662,o),
(321,712,o),
(255,712,qs),
(185,712,o),
(137,686,qs),
(87,660,o),
(32,568,o),
(32,508,q),
(133,508,l),
(133,561,o),
(198,624,o),
(255,624,qs),
(311,624,o),
(378,560,o),
(378,505,qs),
(378,447,o),
(350,419,qs),
(325,392,o),
(238,370,o),
(179,370,qs),
(140,370,l),
(144,207,l)
);
},
{
closed = 1;
nodes = (
(220,-8,o),
(261,33,o),
(261,62,qs),
(261,91,o),
(220,132,o),
(191,132,qs),
(161,132,o),
(120,91,o),
(120,62,qs),
(120,33,o),
(161,-8,o),
(191,-8,qs)
);
}
);
userData = {
assembly = "NPUSHB[ ]	/* 62 values pushed */
0 2 1 0 1 2 0 128 0 4 0 5 0 4 5 128 0 0 0 5 6 0 5 103 0 1 1 3 97 0 3 3 39 77 0 6 6 7 97 8 1 7 7 40 7 78 31 31 31 42 31 41 37 17 24 36 18 38 32 9 8 29
CALL[ ]	/* CallFunction */";
};
width = 522;
}
);
note = question;
unicode = 63;
},
{
glyphname = questiondown;
kernLeft = questiondown;
kernRight = questiondown;
layers = (
{
layerId = m01;
shapes = (
{
closed = 1;
nodes = (
(335,-160,o),
(385,-134,qs),
(435,-108,o),
(490,-16,o),
(490,44,q),
(389,44,l),
(389,-9,o),
(324,-71,o),
(267,-71,qs),
(211,-71,o),
(144,-7,o),
(144,47,qs),
(144,105,o),
(172,133,qs),
(197,160,o),
(284,182,o),
(343,182,qs),
(382,182,l),
(378,345,l),
(285,345,l),
(282,254,l),
(210,252,o),
(157,232,qs),
(102,210,o),
(42,118,o),
(42,48,qs),
(42,-17,o),
(70,-64,qs),
(99,-110,o),
(201,-160,o),
(267,-160,qs)
);
},
{
closed = 1;
nodes = (
(361,421,o),
(402,462,o),
(402,491,qs),
(402,520,o),
(361,561,o),
(331,561,qs),
(302,561,o),
(261,520,o),
(261,491,qs),
(261,462,o),
(302,421,o),
(331,421,qs)
);
}
);
userData = {
assembly = "NPUSHB[ ]	/* 72 values pushed */
0 0 1 2 1 0 2 128 0 4 2 3 2 4 3 128 0 6 9 1 7 1 6 7 105 0 1 0 2 4 1 2 105 0 3 5 5 3 89 0 3 3 5 98 8 1 5 3 5 82 31 31 0 0 31 42 31 41 37 35 0 30 0 29 18 38 33 17 24 10 8 27
CALL[ ]	/* CallFunction */";
};
width = 522;
}
);
note = questiondown;
unicode = 191;
},
{
glyphname = periodcentered;
layers = (
{
layerId = m01;
shapes = (
{
closed = 1;
nodes = (
(138,270,o),
(179,311,o),
(179,340,qs),
(179,370,o),
(138,410,o),
(109,410,qs),
(79,410,o),
(39,370,o),
(39,340,qs),
(39,311,o),
(79,270,o),
(109,270,qs)
);
}
);
userData = {
assembly = "NPUSHB[ ]	/* 27 values pushed */
0 0 1 1 0 89 0 0 0 1 97 2 1 1 0 1 81 0 0 0 11 0 10 36 3 8 23
CALL[ ]	/* CallFunction */";
};
width = 218;
}
);
note = periodcentered;
unicode = 183;
},
{
glyphname = bullet;
layers = (
{
layerId = m01;
shapes = (
{
closed = 1;
nodes = (
(238,206,o),
(312,280,o),
(312,333,qs),
(312,387,o),
(238,462,o),
(184,462,qs),
(150,462,o),
(91,428,o),
(57,368,o),
(57,333,qs),
(57,280,o),
(131,206,o),
(184,206,qs)
);
}
);
userData = {
assembly = "NPUSHB[ ]	/* 27 values pushed */
0 0 1 1 0 89 0 0 0 1 97 2 1 1 0 1 81 0 0 0 12 0 11 37 3 8 23
CALL[ ]	/* CallFunction */";
};
width = 369;
}
);
note = bullet;
unicode = 8226;
},
{
glyphname = asterisk;
kernLeft = asterisk;
kernRight = asterisk;
layers = (
{
layerId = m01;
shapes = (
{
closed = 1;
nodes = (
(280,358,l),
(280,487,l),
(392,423,l),
(427,483,l),
(315,547,l),
(427,611,l),
(392,671,l),
(280,607,l),
(280,735,l),
(211,735,l),
(211,607,l),
(100,671,l),
(66,611,l),
(176,547,l),
(66,483,l),
(100,423,l),
(211,487,l),
(211,358,l)
);
}
);
userData = {
assembly = "NPUSHB[ ]	/* 40 values pushed */
15 14 13 12 11 10 9 6 5 4 3 2 1 0 14 1 0 1 76 0 0 1 1 0 87 0 0 0 1 95 0 1 0 1 79 24 23 2 8 24
CALL[ ]	/* CallFunction */";
};
width = 489;
}
);
note = asterisk;
unicode = 42;
},
{
glyphname = numbersign;
layers = (
{
layerId = m01;
shapes = (
{
closed = 1;
nodes = (
(243,0,l),
(283,186,l),
(485,186,l),
(445,0,l),
(545,0,l),
(585,186,l),
(745,186,l),
(745,281,l),
(606,281,l),
(638,436,l),
(793,436,l),
(793,530,l),
(659,530,l),
(698,715,l),
(598,715,l),
(559,530,l),
(356,530,l),
(396,715,l),
(296,715,l),
(256,530,l),
(87,530,l),
(87,436,l),
(236,436,l),
(203,281,l),
(40,281,l),
(40,186,l),
(183,186,l),
(143,0,l)
);
},
{
closed = 1;
nodes = (
(336,436,l),
(539,436,l),
(505,281,l),
(303,281,l)
);
}
);
userData = {
assembly = "MPPEM[ ]	/* MeasurePixelPerEm */
PUSHB[ ]	/* 1 value pushed */
33
LT[ ]	/* LessThan */
IF[ ]	/* If */
NPUSHB[ ]	/* 38 values pushed */
7 5 2 3 14 8 2 2 1 3 2 104 16 15 9 3 1 12 10 2 0 11 1 0 103 6 1 4 4 33 77 13 1 11 11 34 11 78
ELSE[ ]	/* Else */
NPUSHB[ ]	/* 38 values pushed */
6 1 4 3 4 133 7 5 2 3 14 8 2 2 1 3 2 104 16 15 9 3 1 12 10 2 0 11 1 0 103 13 1 11 11 34 11 78
EIF[ ]	/* EndIf */
NPUSHB[ ]	/* 30 values pushed */
28 28 28 31 28 31 30 29 27 26 25 24 23 22 21 20 19 18 17 17 17 17 17 17 17 17 16 17 8 31
CALL[ ]	/* CallFunction */";
};
width = 837;
}
);
note = numbersign;
unicode = 35;
},
{
glyphname = slash;
kernLeft = slash;
kernRight = slash;
layers = (
{
layerId = m01;
shapes = (
{
closed = 1;
nodes = (
(129,-103,l),
(380,771,l),
(276,771,l),
(26,-103,l)
);
}
);
userData = {
assembly = "NPUSHB[ ]	/* 14 values pushed */
0 0 1 0 133 0 1 1 118 17 16 2 8 24
CALL[ ]	/* CallFunction */";
};
width = 406;
}
);
note = slash;
unicode = 47;
},
{
glyphname = backslash;
kernLeft = backslash;
kernRight = backslash;
layers = (
{
layerId = m01;
shapes = (
{
closed = 1;
nodes = (
(380,-103,l),
(130,771,l),
(26,771,l),
(277,-103,l)
);
}
);
userData = {
assembly = "NPUSHB[ ]	/* 14 values pushed */
0 0 1 0 133 0 1 1 118 17 16 2 8 24
CALL[ ]	/* CallFunction */";
};
width = 406;
}
);
note = backslash;
unicode = 92;
},
{
glyphname = periodcentered.loclCAT;
layers = (
{
layerId = m01;
shapes = (
{
closed = 1;
nodes = (
(100,270,o),
(141,311,o),
(141,340,qs),
(141,370,o),
(100,410,o),
(71,410,qs),
(41,410,o),
(0,370,o),
(0,340,qs),
(0,311,o),
(41,270,o),
(71,270,qs)
);
}
);
userData = {
assembly = "NPUSHB[ ]	/* 27 values pushed */
0 0 1 1 0 89 0 0 0 1 97 2 1 1 0 1 81 0 0 0 11 0 10 36 3 8 23
CALL[ ]	/* CallFunction */";
};
width = 141;
}
);
note = periodcentered.loclCAT;
},
{
glyphname = periodcentered.loclCAT.case;
layers = (
{
layerId = m01;
shapes = (
{
closed = 1;
nodes = (
(-110,280,o),
(-69,321,o),
(-69,350,qs),
(-69,380,o),
(-110,420,o),
(-139,420,qs),
(-169,420,o),
(-210,380,o),
(-210,350,qs),
(-210,321,o),
(-169,280,o),
(-139,280,qs)
);
}
);
userData = {
assembly = "NPUSHB[ ]	/* 27 values pushed */
0 0 1 1 0 89 0 0 0 1 97 2 1 1 0 1 81 0 0 0 11 0 10 36 3 8 23
CALL[ ]	/* CallFunction */";
};
width = 0;
}
);
note = periodcentered.loclCAT.case;
},
{
glyphname = hyphen;
kernLeft = hyphen;
kernRight = hyphen;
layers = (
{
layerId = m01;
shapes = (
{
closed = 1;
nodes = (
(417,246,l),
(417,335,l),
(57,335,l),
(57,246,l)
);
}
);
userData = {
assembly = "NPUSHB[ ]	/* 21 values pushed */
0 0 1 1 0 87 0 0 0 1 95 0 1 0 1 79 17 16 2 8 24
CALL[ ]	/* CallFunction */";
};
width = 473;
}
);
note = hyphen;
unicode = 45;
},
{
glyphname = endash;
kernLeft = hyphen;
kernRight = hyphen;
layers = (
{
layerId = m01;
shapes = (
{
closed = 1;
nodes = (
(589,246,l),
(589,335,l),
(57,335,l),
(57,246,l)
);
}
);
userData = {
assembly = "NPUSHB[ ]	/* 21 values pushed */
0 0 1 1 0 87 0 0 0 1 95 0 1 0 1 79 17 16 2 8 24
CALL[ ]	/* CallFunction */";
};
width = 645;
}
);
note = endash;
unicode = 8211;
},
{
glyphname = emdash;
kernLeft = hyphen;
kernRight = hyphen;
layers = (
{
layerId = m01;
shapes = (
{
closed = 1;
nodes = (
(801,246,l),
(801,335,l),
(57,335,l),
(57,246,l)
);
}
);
userData = {
assembly = "NPUSHB[ ]	/* 21 values pushed */
0 0 1 1 0 87 0 0 0 1 95 0 1 0 1 79 17 16 2 8 24
CALL[ ]	/* CallFunction */";
};
width = 857;
}
);
note = emdash;
unicode = 8212;
},
{
glyphname = underscore;
kernLeft = underscore;
kernRight = underscore;
layers = (
{
layerId = m01;
shapes = (
{
closed = 1;
nodes = (
(605,-137,l),
(605,-37,l),
(57,-37,l),
(57,-137,l)
);
}
);
userData = {
assembly = "PUSHB[ ]	/* 2 values pushed */
6 100
WCVTP[ ]	/* WriteCVTInPixels */
NPUSHB[ ]	/* 21 values pushed */
0 0 1 1 0 87 0 0 0 1 95 0 1 0 1 79 17 16 2 8 24
CALL[ ]	/* CallFunction */
PUSHB[ ]	/* 2 values pushed */
6 0
WCVTP[ ]	/* WriteCVTInPixels */";
};
width = 662;
}
);
note = underscore;
unicode = 95;
},
{
glyphname = parenleft;
kernRight = parenleft;
layers = (
{
layerId = m01;
shapes = (
{
closed = 1;
nodes = (
(351,-145,l),
(351,-135,l),
(257,-39,o),
(151,202,o),
(151,333,qs),
(151,465,o),
(257,706,o),
(351,801,q),
(351,811,l),
(244,811,l),
(190,758,o),
(144,685,qs),
(46,524,o),
(46,333,qs),
(46,232,o),
(73,143,qs),
(99,57,o),
(187,-89,o),
(244,-145,q)
);
}
);
userData = {
assembly = "NPUSHB[ ]	/* 28 values pushed */
16 10 2 1 0 1 76 0 0 1 1 0 87 0 0 0 1 95 0 1 0 1 79 24 24 2 8 24
CALL[ ]	/* CallFunction */";
};
width = 386;
}
);
note = parenleft;
unicode = 40;
},
{
glyphname = parenright;
kernLeft = parenright;
layers = (
{
layerId = m01;
shapes = (
{
closed = 1;
nodes = (
(35,-145,l),
(142,-145,l),
(199,-89,o),
(288,57,o),
(314,143,qs),
(340,233,o),
(340,333,qs),
(340,527,o),
(242,685,qs),
(196,758,o),
(142,811,q),
(35,811,l),
(35,801,l),
(129,706,o),
(235,465,o),
(235,333,qs),
(235,202,o),
(129,-39,o),
(35,-135,q)
);
}
);
userData = {
assembly = "NPUSHB[ ]	/* 28 values pushed */
18 5 2 1 0 1 76 0 0 1 1 0 87 0 0 0 1 95 0 1 0 1 79 25 22 2 8 24
CALL[ ]	/* CallFunction */";
};
width = 386;
}
);
note = parenright;
unicode = 41;
},
{
glyphname = braceleft;
kernLeft = braceleft;
kernRight = braceleft;
layers = (
{
layerId = m01;
shapes = (
{
closed = 1;
nodes = (
(387,-162,l),
(387,-73,l),
(349,-73,ls),
(270,-73,o),
(270,5,qs),
(270,40,o),
(281,91,qs),
(290,138,o),
(290,182,qs),
(290,237,o),
(236,311,o),
(180,324,q),
(180,326,l),
(236,338,o),
(290,412,o),
(290,467,qs),
(290,511,o),
(281,560,q),
(270,602,o),
(270,644,qs),
(270,722,o),
(349,722,qs),
(387,722,l),
(387,811,l),
(329,811,ls),
(254,811,o),
(168,730,o),
(168,654,qs),
(168,617,o),
(178,563,qs),
(189,514,o),
(189,471,qs),
(189,385,o),
(88,368,q),
(88,282,l),
(189,265,o),
(189,179,qs),
(189,137,o),
(178,86,qs),
(168,32,o),
(168,-4,qs),
(168,-81,o),
(254,-162,o),
(329,-162,qs)
);
}
);
userData = {
assembly = "NPUSHB[ ]	/* 48 values pushed */
30 9 8 3 2 1 1 76 0 0 0 1 2 0 1 105 0 2 3 3 2 89 0 2 2 3 97 4 1 3 2 3 81 0 0 0 43 0 42 41 39 22 20 19 17 5 8 22
CALL[ ]	/* CallFunction */";
};
width = 444;
}
);
note = braceleft;
unicode = 123;
},
{
glyphname = braceright;
kernLeft = braceright;
kernRight = braceright;
layers = (
{
layerId = m01;
shapes = (
{
closed = 1;
nodes = (
(115,-162,ls),
(190,-162,o),
(276,-81,o),
(276,-4,qs),
(276,32,o),
(266,86,qs),
(255,137,o),
(255,179,qs),
(255,265,o),
(356,282,q),
(356,368,l),
(255,385,o),
(255,471,qs),
(255,514,o),
(266,563,qs),
(276,617,o),
(276,654,qs),
(276,730,o),
(190,811,o),
(115,811,qs),
(57,811,l),
(57,722,l),
(95,722,ls),
(174,722,o),
(174,644,qs),
(174,609,o),
(165,564,qs),
(154,520,o),
(154,467,qs),
(154,412,o),
(208,338,o),
(264,326,q),
(264,324,l),
(208,311,o),
(154,237,o),
(154,182,qs),
(154,129,o),
(166,78,qs),
(174,41,o),
(174,5,qs),
(174,-73,o),
(95,-73,qs),
(57,-73,l),
(57,-162,l)
);
}
);
userData = {
assembly = "NPUSHB[ ]	/* 42 values pushed */
33 32 10 3 0 1 1 76 0 2 0 1 0 2 1 105 0 0 3 3 0 89 0 0 0 3 97 0 3 0 3 81 43 41 24 22 21 19 32 4 8 23
CALL[ ]	/* CallFunction */";
};
width = 444;
}
);
note = braceright;
unicode = 125;
},
{
glyphname = bracketleft;
layers = (
{
layerId = m01;
shapes = (
{
closed = 1;
nodes = (
(277,-160,l),
(277,-73,l),
(171,-73,l),
(171,725,l),
(277,725,l),
(277,811,l),
(71,811,l),
(71,-160,l)
);
}
);
userData = {
assembly = "NPUSHB[ ]	/* 31 values pushed */
0 0 0 1 2 0 1 103 0 2 3 3 2 87 0 2 2 3 95 0 3 2 3 79 17 17 17 16 4 8 26
CALL[ ]	/* CallFunction */";
};
width = 334;
}
);
note = bracketleft;
unicode = 91;
},
{
glyphname = bracketright;
layers = (
{
layerId = m01;
shapes = (
{
closed = 1;
nodes = (
(263,-160,l),
(263,811,l),
(57,811,l),
(57,725,l),
(163,725,l),
(163,-73,l),
(57,-73,l),
(57,-160,l)
);
}
);
userData = {
assembly = "NPUSHB[ ]	/* 31 values pushed */
0 2 0 1 0 2 1 103 0 0 3 3 0 87 0 0 0 3 95 0 3 0 3 79 17 17 17 16 4 8 26
CALL[ ]	/* CallFunction */";
};
width = 334;
}
);
note = bracketright;
unicode = 93;
},
{
glyphname = quotesinglbase;
layers = (
{
layerId = m01;
shapes = (
{
closed = 1;
nodes = (
(82,-117,l),
(179,118,l),
(64,118,l),
(8,-117,l)
);
}
);
userData = {
assembly = "NPUSHB[ ]	/* 21 values pushed */
0 0 1 1 0 87 0 0 0 1 95 0 1 0 1 79 17 16 2 8 24
CALL[ ]	/* CallFunction */";
};
width = 212;
}
);
note = quotesinglbase;
unicode = 8218;
},
{
glyphname = quotedblbase;
layers = (
{
layerId = m01;
shapes = (
{
closed = 1;
nodes = (
(82,-117,l),
(179,118,l),
(64,118,l),
(8,-117,l)
);
},
{
closed = 1;
nodes = (
(258,-117,l),
(354,118,l),
(240,118,l),
(184,-117,l)
);
}
);
userData = {
assembly = "NPUSHB[ ]	/* 26 values pushed */
2 1 0 1 1 0 87 2 1 0 0 1 95 3 1 1 0 1 79 17 17 17 16 4 8 26
CALL[ ]	/* CallFunction */";
};
width = 387;
}
);
note = quotedblbase;
unicode = 8222;
},
{
glyphname = quotedblleft;
layers = (
{
layerId = m01;
shapes = (
{
closed = 1;
nodes = (
(320,466,l),
(376,700,l),
(302,700,l),
(206,466,l)
);
},
{
closed = 1;
nodes = (
(146,466,l),
(201,700,l),
(127,700,l),
(31,466,l)
);
}
);
userData = {
assembly = "NPUSHB[ ]	/* 20 values pushed */
3 1 1 1 0 95 2 1 0 0 33 1 78 17 17 17 16 4 8 26
CALL[ ]	/* CallFunction */";
};
width = 413;
}
);
note = quotedblleft;
unicode = 8220;
},
{
glyphname = quotedblright;
kernRight = quotedblright;
layers = (
{
layerId = m01;
shapes = (
{
closed = 1;
nodes = (
(286,466,l),
(382,701,l),
(268,701,l),
(212,466,l)
);
},
{
closed = 1;
nodes = (
(111,466,l),
(208,701,l),
(94,701,l),
(37,466,l)
);
}
);
userData = {
assembly = "NPUSHB[ ]	/* 20 values pushed */
3 1 1 1 0 95 2 1 0 0 33 1 78 17 17 17 16 4 8 26
CALL[ ]	/* CallFunction */";
};
width = 413;
}
);
note = quotedblright;
unicode = 8221;
},
{
glyphname = quoteleft;
layers = (
{
layerId = m01;
shapes = (
{
closed = 1;
nodes = (
(146,466,l),
(201,700,l),
(127,700,l),
(31,466,l)
);
}
);
userData = {
assembly = "NPUSHB[ ]	/* 16 values pushed */
0 1 1 0 95 0 0 0 33 1 78 17 16 2 8 24
CALL[ ]	/* CallFunction */";
};
width = 238;
}
);
note = quoteleft;
unicode = 8216;
},
{
glyphname = quoteright;
kernRight = quotedblright;
layers = (
{
layerId = m01;
shapes = (
{
closed = 1;
nodes = (
(111,466,l),
(208,700,l),
(94,700,l),
(37,466,l)
);
}
);
userData = {
assembly = "NPUSHB[ ]	/* 16 values pushed */
0 1 1 0 95 0 0 0 33 1 78 17 16 2 8 24
CALL[ ]	/* CallFunction */";
};
width = 239;
}
);
note = quoteright;
unicode = 8217;
},
{
glyphname = guillemotleft;
kernLeft = guillemotleft;
layers = (
{
layerId = m01;
shapes = (
{
closed = 1;
nodes = (
(429,120,l),
(332,295,l),
(429,470,l),
(327,470,l),
(233,295,l),
(327,120,l)
);
},
{
closed = 1;
nodes = (
(239,120,l),
(142,295,l),
(239,470,l),
(137,470,l),
(43,295,l),
(137,120,l)
);
}
);
userData = {
assembly = "NPUSHB[ ]	/* 33 values pushed */
9 3 2 1 0 1 76 2 1 0 1 1 0 87 2 1 0 0 1 95 3 1 1 0 1 79 18 18 18 17 4 8 26
CALL[ ]	/* CallFunction */";
};
width = 479;
}
);
note = guillemotleft;
unicode = 171;
},
{
glyphname = guillemotright;
layers = (
{
layerId = m01;
shapes = (
{
closed = 1;
nodes = (
(342,120,l),
(436,295,l),
(342,470,l),
(240,470,l),
(337,295,l),
(240,120,l)
);
},
{
closed = 1;
nodes = (
(152,120,l),
(246,295,l),
(152,470,l),
(50,470,l),
(147,295,l),
(50,120,l)
);
}
);
userData = {
assembly = "NPUSHB[ ]	/* 33 values pushed */
9 3 2 1 0 1 76 2 1 0 1 1 0 87 2 1 0 0 1 95 3 1 1 0 1 79 18 18 18 17 4 8 26
CALL[ ]	/* CallFunction */";
};
width = 479;
}
);
note = guillemotright;
unicode = 187;
},
{
glyphname = guilsinglleft;
kernLeft = guillemotleft;
layers = (
{
layerId = m01;
shapes = (
{
closed = 1;
nodes = (
(239,120,l),
(142,295,l),
(239,470,l),
(137,470,l),
(43,295,l),
(137,120,l)
);
}
);
userData = {
assembly = "NPUSHB[ ]	/* 27 values pushed */
3 1 1 0 1 76 0 0 1 1 0 87 0 0 0 1 95 0 1 0 1 79 18 17 2 8 24
CALL[ ]	/* CallFunction */";
};
width = 289;
}
);
note = guilsinglleft;
unicode = 8249;
},
{
glyphname = guilsinglright;
layers = (
{
layerId = m01;
shapes = (
{
closed = 1;
nodes = (
(152,120,l),
(246,295,l),
(152,470,l),
(50,470,l),
(147,295,l),
(50,120,l)
);
}
);
userData = {
assembly = "NPUSHB[ ]	/* 27 values pushed */
3 1 1 0 1 76 0 0 1 1 0 87 0 0 0 1 95 0 1 0 1 79 18 17 2 8 24
CALL[ ]	/* CallFunction */";
};
width = 289;
}
);
note = guilsinglright;
unicode = 8250;
},
{
glyphname = quotedbl;
kernRight = quotedblright;
layers = (
{
layerId = m01;
shapes = (
{
closed = 1;
nodes = (
(286,466,l),
(382,701,l),
(268,701,l),
(212,466,l)
);
},
{
closed = 1;
nodes = (
(111,466,l),
(208,701,l),
(94,701,l),
(37,466,l)
);
}
);
userData = {
assembly = "NPUSHB[ ]	/* 20 values pushed */
3 1 1 1 0 95 2 1 0 0 33 1 78 17 17 17 16 4 8 26
CALL[ ]	/* CallFunction */";
};
width = 413;
}
);
note = quotedbl;
unicode = 34;
},
{
glyphname = quotesingle;
kernLeft = quotesingle;
kernRight = quotedblright;
layers = (
{
layerId = m01;
shapes = (
{
closed = 1;
nodes = (
(106,466,l),
(203,700,l),
(89,700,l),
(32,466,l)
);
}
);
userData = {
assembly = "NPUSHB[ ]	/* 16 values pushed */
0 1 1 0 95 0 0 0 33 1 78 17 16 2 8 24
CALL[ ]	/* CallFunction */";
};
width = 227;
}
);
note = quotesingle;
unicode = 39;
},
{
glyphname = florin;
layers = (
{
layerId = m01;
shapes = (
{
closed = 1;
nodes = (
(-23,-210,ls),
(54,-210,o),
(138,-140,o),
(147,-61,qs),
(202,463,l),
(313,463,l),
(321,551,l),
(212,551,l),
(216,592,ls),
(220,640,o),
(274,681,o),
(328,681,q),
(337,770,l),
(230,770,o),
(119,684,o),
(110,592,qs),
(106,551,l),
(37,551,l),
(29,463,l),
(96,463,l),
(41,-61,ls),
(37,-94,o),
(10,-121,o),
(-17,-121,qs),
(-40,-121,l),
(-49,-210,l)
);
}
);
userData = {
assembly = "MPPEM[ ]	/* MeasurePixelPerEm */
PUSHB[ ]	/* 1 value pushed */
50
LT[ ]	/* LessThan */
IF[ ]	/* If */
NPUSHB[ ]	/* 29 values pushed */
0 3 0 4 2 3 4 105 5 1 2 6 1 1 0 2 1 103 0 0 0 7 97 0 7 7 38 7 78
ELSE[ ]	/* Else */
NPUSHB[ ]	/* 34 values pushed */
0 3 0 4 2 3 4 105 5 1 2 6 1 1 0 2 1 103 0 0 7 7 0 89 0 0 0 7 97 0 7 0 7 81
EIF[ ]	/* EndIf */
NPUSHB[ ]	/* 11 values pushed */
35 17 19 17 19 17 19 32 8 8 30
CALL[ ]	/* CallFunction */";
};
width = 334;
}
);
note = florin;
unicode = 402;
},
